<svg width="101" height="99" viewBox="0 0 101 99" fill="none" xmlns="http://www.w3.org/2000/svg">
<g clip-path="url(#clip0_809_464)">
<path d="M32.23 35.1099C32.23 35.4399 32.25 35.7699 32.26 36.0999C37.44 32.7499 43.6 30.7899 50.23 30.7899C56.86 30.7899 63.02 32.7399 68.2 36.0999C68.21 35.7699 68.23 35.4399 68.23 35.1099C68.23 22.2699 60.92 11.1499 50.24 5.65991C39.54 11.1499 32.23 22.2699 32.23 35.1099Z" fill="white"/>
<path d="M50.2201 64.5599C39.8101 59.2099 32.6201 48.5199 32.2501 36.0999C23.4001 41.8299 17.4701 51.6599 17.1401 62.9099C22.3201 66.2599 28.4801 68.2199 35.1101 68.2199C40.5501 68.2099 45.6901 66.8899 50.2201 64.5599Z" fill="white"/>
<path d="M68.1902 36.0898C67.8202 48.5098 60.6302 59.1998 50.2202 64.5498C54.7502 66.8798 59.8902 68.1998 65.3302 68.1998C71.9602 68.1998 78.1202 66.2498 83.3002 62.8898C82.9702 51.6598 77.0402 41.8298 68.1902 36.0898Z" fill="white"/>
<path d="M50.2201 57.6C43.9901 53.41 39.7701 46.81 38.5801 39.41C42.2001 37.68 46.1601 36.78 50.2201 36.78C54.2801 36.78 58.2401 37.68 61.8601 39.41C60.6701 46.81 56.4501 53.41 50.2201 57.6Z" fill="#D9042B"/>
<path d="M35.11 70.21C15.75 70.21 0 54.46 0 35.11C0 15.75 15.75 0 35.11 0C54.47 0 70.22 15.75 70.22 35.11C70.21 54.46 54.46 70.21 35.11 70.21ZM35.11 4C17.95 4 4 17.95 4 35.11C4 52.26 17.95 66.22 35.11 66.22C52.26 66.22 66.22 52.27 66.22 35.11C66.21 17.95 52.26 4 35.11 4Z" fill="#3035B0"/>
<path d="M65.3302 70.21C45.9702 70.21 30.2202 54.46 30.2202 35.1C30.2302 15.75 45.9802 0 65.3302 0C84.6902 0 100.44 15.75 100.44 35.11C100.44 54.46 84.6902 70.21 65.3302 70.21ZM65.3302 4C48.1802 4 34.2302 17.95 34.2302 35.11C34.2302 52.26 48.1802 66.22 65.3402 66.22C82.4902 66.22 96.4502 52.27 96.4502 35.11C96.4402 17.95 82.4902 4 65.3302 4Z" fill="#3035B0"/>
<path d="M50.2199 99C30.8599 99 15.1099 83.25 15.1099 63.9C15.1099 44.54 30.8599 28.79 50.2199 28.79C69.5799 28.79 85.3299 44.54 85.3299 63.9C85.3299 83.25 69.5799 99 50.2199 99ZM50.2199 32.79C33.0699 32.79 19.1099 46.74 19.1099 63.9C19.1099 81.05 33.0599 95 50.2199 95C67.3699 95 81.3299 81.05 81.3299 63.9C81.3299 46.74 67.3699 32.79 50.2199 32.79Z" fill="#3035B0"/>
</g>
<defs>
<clipPath id="clip0_809_464">
<rect width="100.44" height="99" fill="white"/>
</clipPath>
</defs>
</svg>
