<svg width="107" height="91" viewBox="0 0 107 91" fill="none" xmlns="http://www.w3.org/2000/svg">
<path d="M53.5294 59.2784C53.0223 59.2784 52.5359 59.4799 52.1773 59.8385C51.8187 60.1971 51.6172 60.6835 51.6172 61.1907V80.7339C51.6172 81.241 51.8187 81.7274 52.1773 82.086C52.5359 82.4446 53.0223 82.6461 53.5294 82.6461C54.0366 82.6461 54.523 82.4446 54.8816 82.086C55.2402 81.7274 55.4417 81.241 55.4417 80.7339V61.1907C55.4417 60.6835 55.2402 60.1971 54.8816 59.8385C54.523 59.4799 54.0366 59.2784 53.5294 59.2784Z" fill="#3035B0"/>
<path d="M53.5313 27.3441C55.2213 27.3567 56.8769 26.867 58.2881 25.937C59.6993 25.007 60.8023 23.6787 61.4572 22.1207C62.1122 20.5627 62.2894 18.8453 61.9666 17.1864C61.6437 15.5274 60.8352 14.0019 59.6438 12.8032C58.4523 11.6046 56.9316 10.787 55.2746 10.4541C53.6177 10.1213 51.8992 10.2883 50.3373 10.9338C48.7754 11.5794 47.4405 12.6744 46.5021 14.08C45.5636 15.4855 45.0639 17.1382 45.0664 18.8282C45.0697 21.077 45.961 23.2334 47.5463 24.8282C49.1316 26.4231 51.2826 27.3273 53.5313 27.3441ZM53.5313 14.1241C54.4643 14.1115 55.38 14.3766 56.1619 14.8857C56.9438 15.3949 57.5567 16.1251 57.9225 16.9834C58.2884 17.8418 58.3907 18.7896 58.2164 19.7063C58.0422 20.6229 57.5992 21.4671 56.944 22.1314C56.2887 22.7956 55.4507 23.25 54.5365 23.4368C53.6223 23.6235 52.6732 23.5342 51.8099 23.1801C50.9466 22.826 50.2081 22.2231 49.6883 21.4482C49.1686 20.6733 48.891 19.7613 48.8909 18.8282C48.8908 17.5916 49.3776 16.4046 50.2461 15.5243C51.1146 14.6439 52.2948 14.1409 53.5313 14.1241Z" fill="#D9042B"/>
<path d="M25.7912 36.2418C25.284 36.2418 24.7976 36.4433 24.439 36.8019C24.0804 37.1605 23.8789 37.6469 23.8789 38.1541V57.6972C23.8789 58.2044 24.0804 58.6908 24.439 59.0494C24.7976 59.408 25.284 59.6095 25.7912 59.6095C26.2983 59.6095 26.7847 59.408 27.1433 59.0494C27.5019 58.6908 27.7034 58.2044 27.7034 57.6972V38.1541C27.7034 37.6469 27.5019 37.1605 27.1433 36.8019C26.7847 36.4433 26.2983 36.2418 25.7912 36.2418Z" fill="#3035B0"/>
<path d="M19.7338 15.0297C21.1483 15.0297 22.5311 14.6102 23.7072 13.8244C24.8833 13.0385 25.7999 11.9216 26.3412 10.6148C26.8825 9.30793 27.0242 7.86995 26.7482 6.48263C26.4723 5.09532 25.7911 3.82099 24.7909 2.82079C23.7907 1.8206 22.5164 1.13945 21.1291 0.863497C19.7418 0.587543 18.3038 0.729174 16.997 1.27048C15.6901 1.81178 14.5732 2.72844 13.7873 3.90455C13.0015 5.08066 12.582 6.46339 12.582 7.87788C12.582 9.77466 13.3355 11.5937 14.6767 12.935C16.018 14.2762 17.8371 15.0297 19.7338 15.0297ZM19.7338 4.56332C20.3925 4.56332 21.0363 4.75879 21.5837 5.12497C22.1312 5.49114 22.5576 6.01156 22.8091 6.62029C23.0605 7.22901 23.1257 7.89868 22.9962 8.54446C22.8668 9.19024 22.5487 9.78308 22.0821 10.2479C21.6154 10.7127 21.0214 11.0286 20.3751 11.1556C19.7288 11.2825 19.0594 11.2148 18.4517 10.961C17.8439 10.7072 17.3251 10.2787 16.9611 9.72989C16.597 9.18105 16.404 8.5365 16.4065 7.87788C16.4099 6.99763 16.7619 6.15459 17.3856 5.53335C18.0092 4.91212 18.8536 4.56331 19.7338 4.56332Z" fill="#D9042B"/>
<path d="M83.1839 57.6972V38.1541C83.1839 37.6469 82.9824 37.1605 82.6238 36.8019C82.2652 36.4433 81.7788 36.2418 81.2716 36.2418C80.7645 36.2418 80.2781 36.4433 79.9195 36.8019C79.5608 37.1605 79.3594 37.6469 79.3594 38.1541V57.6972C79.3594 58.2044 79.5608 58.6908 79.9195 59.0494C80.2781 59.408 80.7645 59.6095 81.2716 59.6095C81.7788 59.6095 82.2652 59.408 82.6238 59.0494C82.9824 58.6908 83.1839 58.2044 83.1839 57.6972Z" fill="#3035B0"/>
<path d="M87.3276 15.0297C88.7421 15.0297 90.1248 14.6102 91.3009 13.8244C92.477 13.0385 93.3937 11.9216 93.935 10.6148C94.4763 9.30793 94.6179 7.86995 94.342 6.48263C94.066 5.09532 93.3849 3.82099 92.3847 2.82079C91.3845 1.8206 90.1101 1.13945 88.7228 0.863497C87.3355 0.587543 85.8975 0.729174 84.5907 1.27048C83.2839 1.81178 82.1669 2.72844 81.3811 3.90455C80.5952 5.08066 80.1758 6.46339 80.1758 7.87788C80.1758 9.77466 80.9293 11.5937 82.2705 12.935C83.6117 14.2762 85.4308 15.0297 87.3276 15.0297ZM87.3276 4.56332C87.9862 4.56332 88.63 4.75879 89.1775 5.12497C89.7249 5.49114 90.1514 6.01156 90.4028 6.62029C90.6543 7.22901 90.7194 7.89868 90.59 8.54446C90.4606 9.19024 90.1424 9.78308 89.6758 10.2479C89.2092 10.7127 88.6151 11.0286 87.9689 11.1556C87.3226 11.2825 86.6532 11.2148 86.0454 10.961C85.4377 10.7072 84.9189 10.2787 84.5548 9.72989C84.1908 9.18105 83.9978 8.5365 84.0003 7.87788C84.0036 6.99763 84.3557 6.15459 84.9793 5.53335C85.6029 4.91212 86.4473 4.56331 87.3276 4.56332Z" fill="#D9042B"/>
<path d="M102.7 52.6249C100.338 51.5971 97.8459 50.898 95.2936 50.5469V40.0678H98.6082C99.1153 40.0678 99.6017 39.8663 99.9604 39.5077C100.319 39.1491 100.52 38.6627 100.52 38.1555V24.5913C100.517 22.2628 99.5906 20.0306 97.9441 18.3841C96.2975 16.7376 94.0654 15.8111 91.7368 15.8077H82.9788C80.6502 15.8111 78.4181 16.7376 76.7716 18.3841C75.125 20.0306 74.1985 22.2628 74.1952 24.5913C74.1952 25.0985 74.3966 25.5849 74.7553 25.9435C75.1139 26.3021 75.6003 26.5036 76.1074 26.5036C76.6146 26.5036 77.101 26.3021 77.4596 25.9435C77.8182 25.5849 78.0197 25.0985 78.0197 24.5913C78.0197 23.2761 78.5421 22.0147 79.4722 21.0847C80.4022 20.1547 81.6635 19.6322 82.9788 19.6322H91.6731C92.9883 19.6322 94.2497 20.1547 95.1797 21.0847C96.1097 22.0147 96.6322 23.2761 96.6322 24.5913V36.2433H93.3814C92.8742 36.2433 92.3878 36.4448 92.0292 36.8034C91.6706 37.162 91.4691 37.6484 91.4691 38.1555V57.6987C91.4691 58.2059 91.6706 58.6922 92.0292 59.0509C92.3878 59.4095 92.8742 59.6109 93.3814 59.6109C93.8885 59.6109 94.3749 59.4095 94.7336 59.0509C95.0922 58.6922 95.2936 58.2059 95.2936 57.6987V54.4606C97.2851 54.76 99.2301 55.3126 101.081 56.1052C102.853 56.9338 103.236 57.6477 103.236 57.7752C103.236 57.9027 102.547 59.05 99.4113 60.1081C95.5875 61.252 91.6098 61.7981 87.6191 61.7272C83.6242 61.799 79.6423 61.2529 75.8142 60.1081C75.5756 60.0244 75.3229 59.9885 75.0705 60.0025C74.8181 60.0164 74.5708 60.08 74.343 60.1895C74.1151 60.299 73.911 60.4523 73.7424 60.6407C73.5737 60.829 73.4439 61.0488 73.3602 61.2873C73.2765 61.5259 73.2406 61.7786 73.2545 62.0311C73.2685 62.2835 73.332 62.5307 73.4415 62.7586C73.551 62.9865 73.7043 63.1906 73.8927 63.3592C74.0811 63.5278 74.3008 63.6577 74.5394 63.7414C75.164 63.9454 75.8142 64.1366 76.5409 64.3151L65.6156 72.219L65.3861 72.423C64.6339 72.2828 63.8563 72.1425 63.0404 72.015V57.9919H67.6298C68.137 57.9919 68.6233 57.7904 68.982 57.4318C69.3406 57.0732 69.542 56.5868 69.542 56.0797V38.9587C69.542 36.1512 68.4277 33.4586 66.4437 31.4722C64.4597 29.4858 61.7684 28.3682 58.9609 28.3648C58.454 28.3653 57.9679 28.567 57.6096 28.9258L53.4792 33.0307L49.387 28.964C49.0484 28.6224 48.5928 28.4219 48.1121 28.4031C46.7156 28.3896 45.3301 28.6524 44.0355 29.1764C42.741 29.7004 41.5627 30.4752 40.5687 31.4562C39.5746 32.4372 38.7844 33.6051 38.2434 34.8927C37.7024 36.1802 37.4213 37.5621 37.4163 38.9587V56.0669C37.4163 56.5741 37.6178 57.0605 37.9764 57.4191C38.335 57.7777 38.8214 57.9792 39.3285 57.9792H43.9179V72.0023C43.102 72.1298 42.3116 72.27 41.5595 72.4102C41.4888 72.336 41.412 72.2678 41.33 72.2063L30.4175 64.3023C31.1059 64.1238 31.7815 63.9326 32.4062 63.7286C32.6448 63.6449 32.8645 63.5151 33.0529 63.3464C33.2413 63.1778 33.3946 62.9737 33.5041 62.7458C33.6136 62.518 33.6771 62.2707 33.6911 62.0183C33.705 61.7659 33.6691 61.5132 33.5854 61.2746C33.5017 61.036 33.3718 60.8163 33.2032 60.6279C33.0346 60.4395 32.8305 60.2862 32.6026 60.1767C32.3747 60.0672 32.1275 60.0037 31.8751 59.9897C31.6227 59.9758 31.3699 60.0117 31.1314 60.0954C27.3077 61.2403 23.3299 61.7864 19.3392 61.7144C15.3443 61.7863 11.3623 61.2402 7.53425 60.0954C4.38542 59.05 3.70976 57.9791 3.70976 57.7624C3.70976 57.5457 4.09221 56.921 5.86422 56.0924C7.75024 55.3007 9.7294 54.7523 11.7539 54.4606V57.7242C11.7539 58.2313 11.9554 58.7177 12.314 59.0763C12.6726 59.435 13.159 59.6364 13.6662 59.6364C14.1734 59.6364 14.6597 59.435 15.0184 59.0763C15.377 58.7177 15.5784 58.2313 15.5784 57.7242V38.1555C15.5784 37.6484 15.377 37.162 15.0184 36.8034C14.6597 36.4448 14.1734 36.2433 13.6662 36.2433H10.4281V24.5913C10.4281 23.2761 10.9506 22.0147 11.8806 21.0847C12.8106 20.1547 14.072 19.6322 15.3872 19.6322H24.0688C25.384 19.6322 26.6454 20.1547 27.5754 21.0847C28.5054 22.0147 29.0279 23.2761 29.0279 24.5913C29.0279 25.0985 29.2294 25.5849 29.588 25.9435C29.9466 26.3021 30.433 26.5036 30.9402 26.5036C31.4473 26.5036 31.9337 26.3021 32.2923 25.9435C32.6509 25.5849 32.8524 25.0985 32.8524 24.5913C32.849 22.2628 31.9225 20.0306 30.276 18.3841C28.6295 16.7376 26.3973 15.8111 24.0688 15.8077H15.3872C13.0587 15.8111 10.8265 16.7376 9.18 18.3841C7.53349 20.0306 6.607 22.2628 6.60363 24.5913V38.1555C6.60363 38.6627 6.80509 39.1491 7.16371 39.5077C7.52233 39.8663 8.00871 40.0678 8.51587 40.0678H11.7539V50.5469C9.20613 50.8996 6.71845 51.5987 4.35992 52.6249C0.75215 54.3076 0 56.3474 0 57.7242C0 59.4707 1.12185 61.9056 6.37416 63.6904C10.5933 64.9625 14.984 65.5732 19.3902 65.5007C21.3197 65.5066 23.248 65.4002 25.1652 65.182L36.8044 73.6213C31.858 75.3041 29.0662 77.7773 29.0662 80.7094C29.0662 86.8923 41.3428 90.1304 53.4664 90.1304C65.5901 90.1304 77.8667 86.8923 77.8667 80.7094C77.8667 77.7773 75.0748 75.3041 70.1285 73.6213L81.7677 65.182C83.6848 65.4004 85.6131 65.5068 87.5427 65.5007C91.9446 65.5733 96.3312 64.9626 100.546 63.6904C105.875 61.9056 106.997 59.4707 106.997 57.7242C107.06 56.3474 106.257 54.3076 102.7 52.6249ZM74.1059 80.6711C74.1059 82.5706 66.8394 86.2677 53.5302 86.2677C40.2209 86.2677 32.9544 82.6344 32.9544 80.7349C32.9544 79.5875 36.218 77.1271 43.9689 75.865V80.7349C43.9689 81.2421 44.1704 81.7284 44.529 82.0871C44.8876 82.4457 45.374 82.6471 45.8812 82.6471C46.3883 82.6471 46.8747 82.4457 47.2333 82.0871C47.5919 81.7284 47.7934 81.2421 47.7934 80.7349V50.2409C47.7934 49.7338 47.5919 49.2474 47.2333 48.8888C46.8747 48.5302 46.3883 48.3287 45.8812 48.3287C45.374 48.3287 44.8876 48.5302 44.529 48.8888C44.1704 49.2474 43.9689 49.7338 43.9689 50.2409V54.1547H41.2408V38.9587C41.2399 37.2963 41.8518 35.6919 42.9596 34.4524C44.0674 33.213 45.5932 32.4254 47.2452 32.2403L52.1278 37.0847C52.4859 37.4389 52.9692 37.6376 53.4728 37.6376C53.9764 37.6376 54.4597 37.4389 54.8177 37.0847L59.7003 32.2403C61.3558 32.4197 62.8863 33.2053 63.9973 34.4456C65.1082 35.686 65.7209 37.2935 65.7175 38.9587V54.1547H63.0404V50.2409C63.0404 49.7338 62.8389 49.2474 62.4803 48.8888C62.1217 48.5302 61.6353 48.3287 61.1282 48.3287C60.621 48.3287 60.1346 48.5302 59.776 48.8888C59.4174 49.2474 59.2159 49.7338 59.2159 50.2409V80.7349C59.2159 81.2421 59.4174 81.7284 59.776 82.0871C60.1346 82.4457 60.621 82.6471 61.1282 82.6471C61.6353 82.6471 62.1217 82.4457 62.4803 82.0871C62.8389 81.7284 63.0404 81.2421 63.0404 80.7349V75.865C70.8296 77.1271 74.1059 79.5748 74.1059 80.7349V80.6711Z" fill="#3035B0"/>
</svg>
