<svg width="119" height="102" viewBox="0 0 119 102" fill="none" xmlns="http://www.w3.org/2000/svg">
<path d="M98.8101 63.5198H94.8101V91.5398H98.8101V63.5198Z" fill="#3035B0"/>
<path d="M14.29 91.5399V39.2099C14.29 37.6499 15.56 36.3899 17.11 36.3899H35.76L14.29 91.5399Z" fill="white"/>
<path d="M16.29 91.5399H12.29V39.2099C12.29 36.5499 14.45 34.3899 17.11 34.3899H35.76V38.3899H17.11C16.66 38.3899 16.29 38.7599 16.29 39.2099V91.5399Z" fill="#3035B0"/>
<path d="M90.81 42.3899H20.29V85.4599H90.81V42.3899Z" fill="#D9E4F5"/>
<path d="M83.7456 40.7203V36.9727L80.4176 36.6983C80.1841 35.4725 79.7345 34.3225 79.1039 33.2952L81.3284 30.6684L78.6835 28.024L76.1321 30.178C75.1337 29.5009 74.0069 28.993 72.7983 28.7012L72.5122 25.2688H68.7639L68.4895 28.5961C67.2634 28.8296 66.119 29.2791 65.0856 29.9095L62.4583 27.6855L59.8076 30.3298L61.962 32.8807C61.2847 33.8789 60.7768 35.0055 60.4848 36.2138L57.0576 36.4999V40.2416L60.3856 40.516C60.6191 41.7418 61.0687 42.886 61.6993 43.9133L59.4748 46.5401L62.1196 49.1845L64.6711 47.0305C65.6695 47.7076 66.7963 48.2155 68.0049 48.5015L68.291 51.9339H72.0393L72.3137 48.6066C73.5398 48.3731 74.6842 47.9236 75.7117 47.2932L78.3391 49.5172L80.9839 46.8729L78.8295 44.3219C79.5068 43.3238 80.0147 42.1971 80.3067 40.9888L83.7456 40.7203Z" fill="white"/>
<path d="M73.1251 53.1189H67.2281L66.9245 49.4238C66.183 49.1845 65.4707 48.8693 64.7935 48.484L62.0727 50.7839L57.9098 46.616L60.3036 43.7908C59.9475 43.0961 59.6672 42.3723 59.4571 41.6193L55.9072 41.3216V35.4317L59.5972 35.1223C59.8366 34.3809 60.1518 33.6688 60.5372 32.9916L58.2368 30.2714L62.4055 26.1036L65.2314 28.4969C65.9262 28.1408 66.6501 27.8606 67.4033 27.6563L67.6952 24.1072H73.5921L73.9016 27.8022C74.6431 28.0416 75.3554 28.3568 76.0327 28.742L78.7534 26.4421L82.9221 30.61L80.5283 33.4353C80.8845 34.1299 81.1647 34.8538 81.3691 35.6068L84.9189 35.8986V41.7944L81.229 42.1038C80.9896 42.8451 80.6743 43.5573 80.2889 44.2344L82.5893 46.9546L78.4265 51.1166L75.5948 48.7233C74.9 49.0794 74.176 49.3596 73.4228 49.5639L73.1251 53.1189ZM69.3767 50.7839H70.9706L71.2334 47.6434L72.1033 47.48C73.1718 47.2757 74.1818 46.8846 75.1102 46.3183L75.8283 45.8805L78.2805 47.9528L79.4073 46.8262L77.3697 44.4212L77.866 43.6857C78.479 42.7867 78.9169 41.7944 79.1738 40.7378L79.3723 39.9206L82.5718 39.6521V38.0585L79.4307 37.7958L79.2672 36.926C79.0629 35.8578 78.6717 34.8421 78.1053 33.9139L77.6674 33.1959L79.7401 30.7443L78.6133 29.6176L76.2078 31.6549L75.4722 31.1587C74.573 30.5458 73.5805 30.108 72.5237 29.857L71.7005 29.6585L71.4319 26.4596H69.838L69.5752 29.6001L68.7053 29.7694C67.6368 29.9737 66.6209 30.3648 65.6984 30.9311L64.9803 31.3689L62.5281 29.2966L61.4013 30.4232L63.4389 32.8282L62.9427 33.5637C62.3296 34.4627 61.8917 35.455 61.6348 36.5116L61.4363 37.3346L58.2368 37.6032V39.1968L61.3779 39.4594L61.5473 40.3292C61.7516 41.4033 62.1428 42.4131 62.7091 43.3354L63.1528 44.0534L61.0802 46.5051L62.207 47.6317L64.6125 45.6003L65.3481 46.0965C66.2473 46.7094 67.2398 47.1472 68.2966 47.3982L69.1198 47.5967L69.3767 50.7839Z" fill="#3035B0"/>
<path d="M75.3378 38.613C75.3378 41.339 73.1309 43.5397 70.4043 43.5397C67.6835 43.5397 65.4707 41.3332 65.4707 38.613C65.4707 35.8869 67.6777 33.6804 70.4043 33.6804C73.1309 33.6863 75.3378 35.8928 75.3378 38.613Z" fill="#D9E4F5"/>
<path d="M50.3199 58.6759C44.9543 53.3113 42 46.1781 42 38.5895C42 31.6664 44.4697 25.1052 48.9946 19.9275L54.7922 25.724C48.2531 33.657 48.7026 45.501 56.1001 52.8969C63.4975 60.2928 75.3439 60.7423 83.2784 54.2045L89.0761 60.001C83.8973 64.5249 77.3348 66.9941 70.4103 66.9941C62.8261 67 55.6914 64.0462 50.3199 58.6759Z" fill="#D9042B"/>
<path d="M51.4585 17.4351C56.176 13.1972 62.0905 10.6929 68.4194 10.2551V18.4566C64.2799 18.8594 60.4031 20.5114 57.2445 23.2257L51.4585 17.4351Z" fill="#3035B0"/>
<path d="M85.7835 51.7587C92.5971 43.814 92.2468 31.8007 84.7268 24.2822C81.2587 20.8148 76.763 18.7659 71.9229 18.4157V10.2317C78.9466 10.5936 85.4974 13.5006 90.5069 18.5032C101.215 29.2089 101.571 46.4058 91.5754 57.5493L85.7835 51.7587Z" fill="white"/>
<path d="M91.6218 59.248L84.1952 51.817L84.9017 50.994C91.3474 43.4813 90.9095 32.1101 83.9033 25.1053C80.6162 21.8247 76.4475 19.91 71.8409 19.5773L70.7549 19.5014V9L71.981 9.06421C79.285 9.44364 86.1569 12.5024 91.3299 17.6802C102.441 28.7886 102.931 46.6451 92.445 58.3315L91.6218 59.248ZM87.3538 51.6769L91.5109 55.8331C100.327 45.069 99.6206 29.2673 89.6776 19.3321C85.2053 14.8549 79.355 12.0938 73.0903 11.4867V17.3533C77.7845 17.937 82.1751 20.0793 85.5497 23.4533C93.1573 31.0652 93.8696 43.2536 87.3538 51.6769Z" fill="#3035B0"/>
<path d="M2 91.2798V96.3398C2 96.3398 5.7 99.0998 8.42 99.0998H42.5H68.61H102.68C105.4 99.0998 109.1 96.3398 109.1 96.3398V91.2798H2Z" fill="white"/>
<path d="M102.68 101.1H8.42C5.13 101.1 1.23 98.2598 0.8 97.9398L0 97.3398V89.2798H111.1V97.3398L110.3 97.9398C109.87 98.2598 105.97 101.1 102.68 101.1ZM4 95.2898C5.32 96.1398 7.21 97.0998 8.42 97.0998H102.68C103.92 97.0998 105.85 96.0898 107.1 95.2798V93.2698H4V95.2898Z" fill="#3035B0"/>
<g clip-path="url(#clip0_1314_1107)">
<path d="M39.9502 63H35.9502V78.9H39.9502V63Z" fill="#3035B0"/>
<path d="M45.89 68.95H30V72.95H45.89V68.95Z" fill="#3035B0"/>
</g>
<g clip-path="url(#clip1_1314_1107)">
<path d="M112.95 49H108.95V64.9H112.95V49Z" fill="#3035B0"/>
<path d="M118.89 54.95H103V58.95H118.89V54.95Z" fill="#3035B0"/>
</g>
<path d="M24.9651 23.3244C22.6619 23.3244 20.4864 22.504 18.7744 21.0083L25.2791 14.5391H34.3388C34.2074 16.8262 33.2474 18.9572 31.6048 20.5908C29.8308 22.3515 27.4728 23.3244 24.9651 23.3244Z" fill="#D9E4F5"/>
<path d="M25.5747 13.116V4.66821C30.2068 4.95864 33.8898 8.51998 34.306 13.116H25.5747Z" fill="white"/>
<path d="M24.9651 23.3244C22.6619 23.3244 20.4864 22.504 18.7744 21.0083L25.2791 14.5391H34.3388C34.2074 16.8262 33.2474 18.9572 31.6048 20.5908C29.8308 22.3515 27.4728 23.3244 24.9651 23.3244Z" fill="#D9E4F5"/>
<path d="M25.5747 13.116V4.66821C30.2068 4.95864 33.8898 8.51998 34.306 13.116H25.5747Z" fill="#DA1238"/>
<path d="M24.9287 26C21.972 26 19.1249 24.9254 16.9165 22.9759L17.8875 21.8905C19.8294 23.604 22.3297 24.5515 24.9323 24.5515C30.7836 24.5515 35.5434 19.8176 35.5434 13.9982C35.5398 8.34942 31.1048 3.71714 25.4397 3.45213L25.5091 2C31.9516 2.30495 36.9998 7.57253 36.9998 13.9946C36.9998 20.6126 31.583 26 24.9287 26Z" fill="#3035B0" stroke="#3035B0"/>
<path d="M21.6292 2.84054V12.0506L15.1355 18.6397C14.0478 16.9661 13.4601 15.0093 13.4601 12.9945C13.4601 8.07908 16.9424 3.8897 21.6292 2.84054ZM23.0893 1.16333C16.8949 1.59171 12 6.72134 12 12.9945C12 16.0113 13.1352 18.7631 15.0005 20.8578L23.0893 12.646V1.16333Z" fill="#3035B0" stroke="#3035B0"/>
<defs>
<clipPath id="clip0_1314_1107">
<rect width="15.89" height="15.9" fill="white" transform="translate(30 63)"/>
</clipPath>
<clipPath id="clip1_1314_1107">
<rect width="15.89" height="15.9" fill="white" transform="translate(103 49)"/>
</clipPath>
</defs>
</svg>
