<svg width="128" height="100" viewBox="0 0 128 100" fill="none" xmlns="http://www.w3.org/2000/svg">
<path d="M41.2051 99.325L40.1551 86.655C36.6651 85.675 33.3551 84.215 30.2851 82.295L20.9051 90.235L8.85506 78.175L17.0651 68.475C15.2951 65.325 13.9851 61.945 13.1751 58.415L0.935057 57.385L0.935056 40.335L13.6051 39.275C14.5851 35.785 16.0451 32.475 17.9551 29.405L10.0251 20.035L22.0851 7.97496L31.7951 16.185C34.9451 14.415 38.3251 13.105 41.8551 12.285L42.8751 0.0449582L59.9251 0.0449574L60.9851 12.715C64.4751 13.695 67.7851 15.155 70.8551 17.065L80.2251 9.13496L92.2851 21.225L83.1551 32.015L80.1051 29.435L86.8551 21.455L80.0051 14.605L71.1451 22.095L69.8851 21.245C66.4551 18.915 62.6751 17.245 58.6451 16.275L57.2351 15.935L56.2451 4.07496L46.5551 4.07496L45.5951 15.635L44.1051 15.925C40.0251 16.705 36.1651 18.195 32.6351 20.355L31.4051 21.105L22.3251 13.425L15.4751 20.275L22.9751 29.125L22.1151 30.385C19.7851 33.805 18.1151 37.595 17.1451 41.625L16.8051 43.035L4.93506 44.025L4.93506 53.715L16.5051 54.675L16.7851 56.165C17.5651 60.245 19.0551 64.105 21.2151 67.635L21.9651 68.865L14.2851 77.945L21.1351 84.795L29.9951 77.295L31.2551 78.155C34.6851 80.485 38.4651 82.155 42.4951 83.125L43.9051 83.465L44.8851 95.335L54.5751 95.335L55.5351 83.765L57.0251 83.485C61.1151 82.705 64.9751 81.215 68.4951 79.055L69.7251 78.295L78.8051 85.975L85.6551 79.125L79.1451 71.425L82.1951 68.845L91.0851 79.355L79.0451 91.415L69.3351 83.205C66.1851 84.975 62.8151 86.285 59.2751 87.095L58.2551 99.335" fill="#3035B0"/>
<path d="M50.8253 74.615L50.8253 78.615C50.1153 78.615 49.3953 78.585 48.6753 78.535L48.9653 74.545C49.5953 74.595 50.2153 74.615 50.8253 74.615Z" fill="#3035B0"/>
<path d="M45.4651 74.0351L44.6051 77.9451C43.2751 77.6551 41.9451 77.2551 40.6551 76.7751L42.0651 73.0351C43.1751 73.4451 44.3151 73.7851 45.4651 74.0351ZM45.4251 25.3751C44.2751 25.6351 43.1351 25.9751 42.0351 26.3851L40.6151 22.6451C41.8951 22.1651 43.2251 21.7651 44.5651 21.4651L45.4251 25.3751ZM38.8451 71.5451L36.9151 75.0451C35.7151 74.3851 34.5551 73.6351 33.4651 72.8051L35.8751 69.6151C36.8151 70.3251 37.8151 70.9751 38.8451 71.5451ZM38.8151 27.8751C37.7851 28.4451 36.7751 29.0951 35.8351 29.8051L33.4251 26.6151C34.5151 25.7951 35.6751 25.0351 36.8751 24.3751L38.8151 27.8751ZM33.1951 67.2851L30.3651 70.1051C29.3951 69.1351 28.4951 68.0951 27.6751 66.9951L30.8751 64.5951C31.5751 65.5451 32.3551 66.4551 33.1951 67.2851ZM33.1751 32.1351C32.3451 32.9751 31.5651 33.8751 30.8551 34.8151L27.6551 32.4251C28.4751 31.3251 29.3751 30.2851 30.3451 29.3151L33.1751 32.1351ZM28.9551 61.6251L25.4451 63.5451C24.7851 62.3451 24.2051 61.0851 23.7351 59.8051L27.4851 58.4051C27.8851 59.5051 28.3851 60.5851 28.9551 61.6251ZM28.9351 37.8051C28.3651 38.8451 27.8751 39.9251 27.4651 41.0351L23.7151 39.6451C24.1951 38.3651 24.7651 37.1051 25.4251 35.8951L28.9351 37.8051ZM26.4751 55.0051L22.5651 55.8551C22.2751 54.5251 22.0751 53.1551 21.9751 51.7851L25.9651 51.4951C26.0551 52.6751 26.2251 53.8551 26.4751 55.0051ZM26.4651 44.4351C26.2151 45.5851 26.0451 46.7651 25.9651 47.9451L21.9751 47.6651C22.0651 46.2951 22.2651 44.9251 22.5551 43.5951L26.4651 44.4351Z" fill="#3035B0"/>
<path d="M50.8251 20.785L50.8251 24.785C50.2051 24.785 49.5851 24.805 48.9751 24.855L48.6851 20.865C49.3851 20.815 50.1051 20.785 50.8251 20.785Z" fill="#3035B0"/>
<path d="M51.3566 43.3889H101.556C101.806 43.3888 102.047 43.2893 102.224 43.1122L121.316 24.0202C121.892 24.367 122.55 24.552 123.223 24.5556C123.97 24.5556 124.7 24.334 125.321 23.9189C125.943 23.5038 126.427 22.9138 126.713 22.2235C126.999 21.5332 127.074 20.7736 126.928 20.0408C126.782 19.308 126.422 18.6348 125.894 18.1065C125.366 17.5782 124.692 17.2184 123.96 17.0726C123.227 16.9268 122.467 17.0016 121.777 17.2876C121.087 17.5735 120.497 18.0577 120.082 18.679C119.666 19.3002 119.445 20.0306 119.445 20.7778C119.448 21.45 119.633 22.1088 119.98 22.6847L101.165 41.5H51.3566C51.1061 41.5 50.8658 41.5995 50.6887 41.7766C50.5116 41.9537 50.4121 42.194 50.4121 42.4444C50.4121 42.6949 50.5116 42.9352 50.6887 43.1123C50.8658 43.2894 51.1061 43.3889 51.3566 43.3889ZM123.223 18.8889C123.533 18.8887 123.839 18.965 124.113 19.1112C124.387 19.2575 124.621 19.469 124.794 19.7272C124.967 19.9853 125.073 20.2821 125.104 20.5912C125.134 20.9003 125.088 21.2122 124.97 21.4993C124.851 21.7864 124.663 22.0397 124.424 22.237C124.184 22.4342 123.899 22.5693 123.594 22.6301C123.289 22.6909 122.975 22.6757 122.677 22.5858C122.38 22.4958 122.109 22.3339 121.889 22.1145L121.888 22.1124L121.886 22.111C121.622 21.8468 121.442 21.5103 121.37 21.1441C121.297 20.7778 121.335 20.3982 121.478 20.0533C121.621 19.7085 121.863 19.4137 122.174 19.2065C122.484 18.9992 122.849 18.8887 123.223 18.8889Z" fill="#D9042B" stroke="#D9042B"/>
<path d="M123.223 77.3333C122.55 77.3369 121.892 77.5219 121.316 77.8686L102.224 58.7767C102.047 58.5996 101.806 58.5001 101.556 58.5H51.3566C51.1061 58.5 50.8658 58.5995 50.6887 58.7766C50.5116 58.9537 50.4121 59.194 50.4121 59.4444C50.4121 59.6949 50.5116 59.9352 50.6887 60.1123C50.8658 60.2894 51.1061 60.3889 51.3566 60.3889H101.165L119.98 79.2042C119.633 79.7801 119.448 80.4389 119.445 81.1111C119.445 81.8583 119.666 82.5887 120.082 83.2099C120.497 83.8312 121.087 84.3154 121.777 84.6013C122.467 84.8873 123.227 84.9621 123.96 84.8163C124.692 84.6705 125.366 84.3107 125.894 83.7824C126.422 83.2541 126.782 82.5809 126.928 81.8481C127.074 81.1153 126.999 80.3557 126.713 79.6654C126.427 78.9751 125.943 78.3851 125.321 77.97C124.7 77.5549 123.97 77.3333 123.223 77.3333ZM123.223 83C122.849 83.0002 122.484 82.8897 122.174 82.6824C121.863 82.4751 121.621 82.1804 121.478 81.8355C121.335 81.4907 121.297 81.1111 121.37 80.7448C121.442 80.3786 121.622 80.0421 121.886 79.7779L121.888 79.7765L121.889 79.7744C122.109 79.555 122.38 79.3931 122.677 79.3031C122.975 79.2132 123.289 79.198 123.594 79.2588C123.899 79.3196 124.184 79.4547 124.424 79.6519C124.663 79.8491 124.851 80.1025 124.97 80.3896C125.088 80.6767 125.134 80.9886 125.104 81.2977C125.073 81.6068 124.967 81.9036 124.794 82.1617C124.621 82.4199 124.387 82.6314 124.113 82.7776C123.839 82.9239 123.533 83.0002 123.223 83Z" fill="#D9042B" stroke="#D9042B"/>
<path d="M123.222 47.1668C122.387 47.1693 121.576 47.4488 120.917 47.9615C120.257 48.4743 119.787 49.1912 119.579 50.0001H61.9444C61.694 50.0001 61.4537 50.0996 61.2766 50.2767C61.0995 50.4538 61 50.694 61 50.9445C61 51.195 61.0995 51.4352 61.2766 51.6124C61.4537 51.7895 61.694 51.889 61.9444 51.889H119.579C119.756 52.5716 120.122 53.1906 120.634 53.6758C121.146 54.161 121.784 54.493 122.475 54.6339C123.166 54.7749 123.883 54.7192 124.544 54.4733C125.205 54.2273 125.784 53.8009 126.215 53.2424C126.645 52.684 126.911 52.0159 126.981 51.3141C127.052 50.6122 126.924 49.9048 126.612 49.272C126.3 48.6392 125.818 48.1065 125.218 47.7344C124.619 47.3622 123.928 47.1656 123.222 47.1668ZM123.222 52.8334C122.849 52.8334 122.483 52.7226 122.173 52.5151C121.862 52.3075 121.62 52.0125 121.477 51.6674C121.334 51.3222 121.297 50.9424 121.37 50.576C121.443 50.2096 121.622 49.8731 121.887 49.6089C122.151 49.3447 122.487 49.1648 122.854 49.0919C123.22 49.0191 123.6 49.0565 123.945 49.1994C124.29 49.3424 124.585 49.5845 124.793 49.8951C125 50.2057 125.111 50.5709 125.111 50.9445C125.111 51.4453 124.911 51.9255 124.557 52.2796C124.203 52.6338 123.723 52.8329 123.222 52.8334Z" fill="#D9042B" stroke="#D9042B"/>
</svg>
