<svg width="78" height="78" viewBox="0 0 78 78" fill="none" xmlns="http://www.w3.org/2000/svg">
<path d="M69.0236 1.72681e-06C67.5544 -0.000936102 66.1102 0.380142 64.8327 1.10584C63.5553 1.83153 62.4884 2.8769 61.7369 4.13936C60.9855 5.40181 60.5751 6.83797 60.5462 8.30688C60.5173 9.77579 60.8708 11.227 61.5721 12.518L47.6583 26.3768C45.6857 24.8404 43.2568 24.0061 40.7564 24.0061C38.256 24.0061 35.8271 24.8404 33.8544 26.3768L23.018 15.5513C23.5424 14.6905 23.82 13.7019 23.8202 12.6939C23.8181 11.5785 23.4857 10.4887 22.8651 9.56187C22.2445 8.63506 21.3634 7.91271 20.333 7.48588C19.3025 7.05905 18.1687 6.94684 17.0745 7.16339C15.9803 7.37994 14.9747 7.91556 14.1845 8.70273C13.3943 9.48991 12.8547 10.4934 12.634 11.5867C12.4132 12.6801 12.521 13.8143 12.9438 14.8464C13.3667 15.8786 14.0856 16.7624 15.01 17.3866C15.9344 18.0108 17.0229 18.3474 18.1382 18.3539C19.1426 18.3591 20.1298 18.0934 20.9957 17.5846L31.8322 28.421C30.2859 30.3957 29.4456 32.8314 29.4456 35.3395C29.4456 37.8475 30.2859 40.2833 31.8322 42.2579L13.9399 60.1172C12.3655 58.7253 10.3259 57.9753 8.22486 58.0155C6.1238 58.0558 4.11444 58.8835 2.59458 60.3348C1.07472 61.786 0.155149 63.755 0.0179126 65.852C-0.119324 67.949 0.535778 70.021 1.85353 71.658C3.17128 73.295 5.05562 74.3775 7.13351 74.6913C9.21141 75.0051 11.3314 74.5272 13.0737 73.3524C14.8161 72.1775 16.0539 70.3913 16.542 68.3473C17.0301 66.3034 16.7329 64.1506 15.7094 62.3153L33.8544 44.2142C35.4462 45.4583 37.3451 46.2483 39.3496 46.5002V60.8536C37.2547 61.2077 35.3692 62.3359 34.0668 64.0146C32.7645 65.6933 32.1403 67.8 32.318 69.9172C32.4957 72.0344 33.4622 74.0077 35.0262 75.4458C36.5901 76.884 38.6372 77.6822 40.7619 77.6822C42.8865 77.6822 44.9337 76.884 46.4976 75.4458C48.0615 74.0077 49.0281 72.0344 49.2057 69.9172C49.3834 67.8 48.7592 65.6933 47.4569 64.0146C46.1545 62.3359 44.2691 61.2077 42.1741 60.8536V46.5112C44.1787 46.2593 46.0776 45.4693 47.6693 44.2252L58.4948 55.0616C57.9745 55.9243 57.6972 56.9117 57.6925 57.9191C57.6925 59.0364 58.0238 60.1286 58.6445 61.0576C59.2653 61.9866 60.1475 62.7106 61.1797 63.1382C62.212 63.5657 63.3478 63.6776 64.4436 63.4596C65.5394 63.2417 66.546 62.7036 67.336 61.9136C68.126 61.1236 68.6641 60.117 68.882 59.0212C69.1 57.9254 68.9881 56.7896 68.5606 55.7573C68.133 54.7251 67.409 53.8429 66.48 53.2221C65.551 52.6014 64.4588 52.2701 63.3415 52.2701C62.3372 52.2724 61.3527 52.5499 60.495 53.0724L49.6586 42.2359C51.149 40.2373 51.9542 37.8107 51.9542 35.3175C51.9542 32.8243 51.149 30.3977 49.6586 28.3991L63.3086 14.7491C64.327 15.6731 65.5551 16.3354 66.8867 16.6787C68.2184 17.0221 69.6135 17.0362 70.9518 16.7198C72.2901 16.4034 73.5313 15.766 74.5682 14.8628C75.6051 13.9595 76.4066 12.8174 76.9035 11.5351C77.4004 10.2528 77.5777 8.86885 77.4201 7.50272C77.2626 6.13659 76.7749 4.82933 75.9992 3.69381C75.2235 2.55829 74.183 1.62862 72.9677 0.985076C71.7524 0.341531 70.3987 0.00344291 69.0236 1.72681e-06ZM15.3247 12.7048C15.3247 12.1462 15.4904 11.6001 15.8007 11.1356C16.1111 10.6711 16.5522 10.3091 17.0683 10.0953C17.5844 9.88155 18.1524 9.82561 18.7003 9.9346C19.2482 10.0436 19.7514 10.3126 20.1465 10.7076C20.5415 11.1026 20.8105 11.6059 20.9195 12.1538C21.0285 12.7017 20.9725 13.2696 20.7587 13.7857C20.545 14.3019 20.1829 14.743 19.7184 15.0533C19.254 15.3637 18.7079 15.5294 18.1492 15.5294C17.4001 15.5294 16.6817 15.2318 16.152 14.7021C15.6223 14.1724 15.3247 13.454 15.3247 12.7048ZM8.25791 72.0527C7.14064 72.0527 6.04846 71.7214 5.11948 71.1007C4.1905 70.48 3.46644 69.5977 3.03888 68.5655C2.61132 67.5333 2.49945 66.3974 2.71742 65.3016C2.93539 64.2058 3.47341 63.1992 4.26344 62.4092C5.05347 61.6192 6.06003 61.0812 7.15584 60.8632C8.25165 60.6452 9.38748 60.7571 10.4197 61.1847C11.4519 61.6122 12.3342 62.3363 12.9549 63.2653C13.5756 64.1942 13.907 65.2864 13.907 66.4037C13.904 67.901 13.308 69.3362 12.2492 70.395C11.1904 71.4537 9.75524 72.0498 8.25791 72.0527ZM46.3834 69.2392C46.3834 70.3565 46.0521 71.4487 45.4314 72.3776C44.8107 73.3066 43.9284 74.0307 42.8962 74.4582C41.864 74.8858 40.7281 74.9977 39.6323 74.7797C38.5365 74.5617 37.53 74.0237 36.7399 73.2337C35.9499 72.4436 35.4119 71.4371 35.1939 70.3413C34.9759 69.2455 35.0878 68.1096 35.5154 67.0774C35.9429 66.0452 36.667 65.1629 37.596 64.5422C38.5249 63.9215 39.6171 63.5902 40.7344 63.5902C42.2326 63.5902 43.6695 64.1853 44.7289 65.2447C45.7883 66.3041 46.3834 67.741 46.3834 69.2392ZM40.7454 43.7855C39.0704 43.7812 37.4343 43.2805 36.0437 42.3468C34.6532 41.4131 33.5705 40.0882 32.9325 38.5395C32.2946 36.9908 32.1299 35.2877 32.4593 33.6455C32.7887 32.0032 33.5975 30.4954 34.7834 29.3126C35.9693 28.1297 37.4792 27.3249 39.1223 26.9997C40.7654 26.6745 42.4681 26.8436 44.0151 27.4856C45.5622 28.1276 46.8843 29.2136 47.8144 30.6066C48.7445 31.9996 49.2409 33.637 49.2409 35.312C49.238 37.5584 48.3443 39.712 46.7559 41.3005C45.1674 42.889 43.0138 43.7826 40.7674 43.7855H40.7454ZM66.1661 57.9081C66.1661 58.4668 66.0004 59.0129 65.69 59.4774C65.3797 59.9419 64.9386 60.3039 64.4224 60.5177C63.9063 60.7314 63.3384 60.7874 62.7905 60.6784C62.2426 60.5694 61.7393 60.3004 61.3443 59.9054C60.9493 59.5104 60.6803 59.0071 60.5713 58.4592C60.4623 57.9113 60.5182 57.3434 60.732 56.8273C60.9458 56.3111 61.3078 55.87 61.7723 55.5596C62.2368 55.2493 62.7829 55.0836 63.3415 55.0836C64.0907 55.0836 64.8091 55.3812 65.3388 55.9109C65.8685 56.4406 66.1661 57.159 66.1661 57.9081ZM69.0236 14.1226C67.9063 14.1226 66.8141 13.7913 65.8851 13.1706C64.9561 12.5498 64.2321 11.6676 63.8045 10.6354C63.377 9.60313 63.2651 8.46729 63.4831 7.37149C63.701 6.27568 64.239 5.26912 65.0291 4.47909C65.8191 3.68905 66.8257 3.15104 67.9215 2.93307C69.0173 2.7151 70.1531 2.82697 71.1853 3.25453C72.2176 3.68209 73.0998 4.40614 73.7206 5.33512C74.3413 6.2641 74.6726 7.35629 74.6726 8.47356C74.6726 9.97178 74.0774 11.4086 73.018 12.468C71.9586 13.5274 70.5218 14.1226 69.0236 14.1226Z" fill="white"/>
<path d="M40.1822 31.6144C40.4676 31.0243 40.2206 30.3145 39.6304 30.0291C39.0403 29.7437 38.3305 29.9907 38.0451 30.5809C37.7597 31.171 38.0067 31.8808 38.5969 32.1662C39.187 32.4516 39.8968 32.2046 40.1822 31.6144Z" fill="white"/>
<path d="M43.8481 31.7628C44.0701 31.3038 43.8779 30.7518 43.4189 30.5298C42.9599 30.3078 42.4079 30.4999 42.1859 30.9589C41.9639 31.4179 42.156 31.97 42.615 32.192C43.074 32.414 43.6261 32.2218 43.8481 31.7628Z" fill="white"/>
<path d="M46.502 34.2844C46.7292 33.8145 46.5325 33.2493 46.0626 33.022C45.5927 32.7947 45.0275 32.9914 44.8002 33.4614C44.5729 33.9313 44.7696 34.4965 45.2396 34.7238C45.7095 34.951 46.2747 34.7543 46.502 34.2844Z" fill="white"/>
<path d="M38.8335 34.76C39.0608 34.2901 38.8641 33.7249 38.3941 33.4976C37.9242 33.2703 37.359 33.467 37.1317 33.937C36.9045 34.4069 37.1012 34.9721 37.5711 35.1994C38.041 35.4266 38.6062 35.2299 38.8335 34.76Z" fill="white"/>
<path d="M42.5074 34.341C42.7108 33.9203 42.5347 33.4142 42.114 33.2107C41.6932 33.0073 41.1872 33.1834 40.9837 33.6041C40.7802 34.0249 40.9563 34.5309 41.3771 34.7344C41.7978 34.9379 42.3039 34.7618 42.5074 34.341Z" fill="white"/>
<path d="M44.8585 37.0034C45.1439 36.4132 44.8969 35.7034 44.3067 35.418C43.7166 35.1326 43.0068 35.3796 42.7214 35.9698C42.436 36.5599 42.683 37.2697 43.2731 37.5551C43.8633 37.8405 44.5731 37.5935 44.8585 37.0034Z" fill="white"/>
<path d="M37.089 37.4601C37.3269 36.9683 37.121 36.3768 36.6292 36.139C36.1374 35.9012 35.5459 36.107 35.3081 36.5988C35.0703 37.0906 35.2761 37.6821 35.7679 37.9199C36.2597 38.1578 36.8512 37.9519 37.089 37.4601Z" fill="white"/>
<path d="M41.1538 36.6638C41.3811 36.1939 41.1844 35.6287 40.7144 35.4014C40.2445 35.1741 39.6793 35.3708 39.452 35.8408C39.2248 36.3107 39.4215 36.8759 39.8914 37.1032C40.3613 37.3304 40.9265 37.1337 41.1538 36.6638Z" fill="white"/>
<path d="M42.8645 39.6115C43.0706 39.1852 42.8922 38.6726 42.466 38.4665C42.0397 38.2604 41.5271 38.4388 41.321 38.865C41.1149 39.2912 41.2933 39.8038 41.7195 40.01C42.1457 40.2161 42.6583 40.0377 42.8645 39.6115Z" fill="white"/>
<path d="M39.6103 39.4623C39.8164 39.0361 39.638 38.5235 39.2118 38.3173C38.7856 38.1112 38.273 38.2896 38.0668 38.7158C37.8607 39.142 38.0391 39.6547 38.4653 39.8608C38.8916 40.0669 39.4042 39.8885 39.6103 39.4623Z" fill="white"/>
<path d="M40.5687 73.2833C42.863 73.2833 44.723 71.4233 44.723 69.129C44.723 66.8346 42.863 64.9746 40.5687 64.9746C38.2743 64.9746 36.4143 66.8346 36.4143 69.129C36.4143 71.4233 38.2743 73.2833 40.5687 73.2833Z" fill="#FBBF51"/>
<path d="M8.30095 70.1288C10.4011 70.1288 12.1036 68.4262 12.1036 66.3261C12.1036 64.2259 10.4011 62.5234 8.30095 62.5234C6.2008 62.5234 4.49829 64.2259 4.49829 66.3261C4.49829 68.4262 6.2008 70.1288 8.30095 70.1288Z" fill="#FBBF51"/>
<path d="M69.0223 12.6273C71.2924 12.6273 73.1326 10.787 73.1326 8.51688C73.1326 6.24678 71.2924 4.40649 69.0223 4.40649C66.7522 4.40649 64.9119 6.24678 64.9119 8.51688C64.9119 10.787 66.7522 12.6273 69.0223 12.6273Z" fill="#FBBF51"/>
<path d="M63.3519 59.5782C64.2988 59.5782 65.0664 58.8106 65.0664 57.8637C65.0664 56.9168 64.2988 56.1492 63.3519 56.1492C62.4051 56.1492 61.6375 56.9168 61.6375 57.8637C61.6375 58.8106 62.4051 59.5782 63.3519 59.5782Z" fill="#FBBF51"/>
<path d="M18.1928 14.4844C19.1397 14.4844 19.9073 13.7168 19.9073 12.7699C19.9073 11.823 19.1397 11.0554 18.1928 11.0554C17.2459 11.0554 16.4783 11.823 16.4783 12.7699C16.4783 13.7168 17.2459 14.4844 18.1928 14.4844Z" fill="#FBBF51"/>
<path d="M40.7113 16.0999H39.986C39.4093 16.0999 38.9419 16.5673 38.9419 17.1439V25.1999C38.9419 25.7765 39.4093 26.2439 39.986 26.2439H40.7113C41.288 26.2439 41.7554 25.7765 41.7554 25.1999V17.1439C41.7554 16.5673 41.288 16.0999 40.7113 16.0999Z" fill="white"/>
<path d="M40.4142 14.419C41.3732 14.419 42.1507 13.6415 42.1507 12.6825C42.1507 11.7235 41.3732 10.946 40.4142 10.946C39.4552 10.946 38.6777 11.7235 38.6777 12.6825C38.6777 13.6415 39.4552 14.419 40.4142 14.419Z" fill="#FBBF51"/>
<path d="M40.294 8.0332C39.3354 8.0332 38.3983 8.31746 37.6013 8.85003C36.8043 9.38259 36.183 10.1396 35.8162 11.0252C35.4494 11.9108 35.3534 12.8853 35.5404 13.8255C35.7274 14.7657 36.189 15.6293 36.8668 16.3071C37.5447 16.9849 38.4083 17.4466 39.3485 17.6336C40.2886 17.8206 41.2632 17.7246 42.1488 17.3578C43.0344 16.9909 43.7914 16.3697 44.3239 15.5727C44.8565 14.7756 45.1408 13.8385 45.1408 12.8799C45.1408 11.5945 44.6301 10.3617 43.7212 9.45278C42.8122 8.54384 41.5794 8.0332 40.294 8.0332ZM40.294 16.1111C39.6549 16.1111 39.0302 15.9216 38.4989 15.5666C37.9675 15.2115 37.5534 14.7069 37.3088 14.1165C37.0642 13.526 37.0003 12.8764 37.1249 12.2496C37.2496 11.6228 37.5573 11.0471 38.0092 10.5952C38.4611 10.1433 39.0369 9.83555 39.6636 9.71087C40.2904 9.5862 40.9401 9.65018 41.5305 9.89474C42.1209 10.1393 42.6256 10.5534 42.9806 11.0848C43.3357 11.6162 43.5252 12.2409 43.5252 12.8799C43.5252 13.7369 43.1847 14.5588 42.5788 15.1647C41.9728 15.7707 41.151 16.1111 40.294 16.1111Z" fill="white"/>
</svg>
