<svg width="88" height="74" viewBox="0 0 88 74" fill="none" xmlns="http://www.w3.org/2000/svg">
<path d="M85.6078 62.3922H84.1569V26.1176C84.1569 24.9632 83.6982 23.856 82.8819 23.0397C82.0656 22.2233 80.9584 21.7647 79.8039 21.7647H78.3529V7.2549C78.3529 5.33078 77.5886 3.48547 76.228 2.12491C74.8675 0.764354 73.0222 0 71.098 0H15.9608C14.0367 0 12.1914 0.764354 10.8308 2.12491C9.47024 3.48547 8.70588 5.33078 8.70588 7.2549V21.7647H7.2549C6.10043 21.7647 4.99324 22.2233 4.17691 23.0397C3.36057 23.856 2.90196 24.9632 2.90196 26.1176V32.0086H5.80392V26.1176C5.80392 25.7328 5.95679 25.3638 6.2289 25.0916C6.50102 24.8195 6.87008 24.6667 7.2549 24.6667H8.70588V62.3922H5.80392V40.6275H2.90196V62.3922H1.45098C1.06616 62.3922 0.697094 62.545 0.424982 62.8171C0.152871 63.0893 0 63.4583 0 63.8431V69.6471C0 70.8015 0.458612 71.9087 1.27495 72.7251C2.09128 73.5414 3.19847 74 4.35294 74H82.7059C83.8604 74 84.9675 73.5414 85.7839 72.7251C86.6002 71.9087 87.0588 70.8015 87.0588 69.6471V63.8431C87.0588 63.4583 86.906 63.0893 86.6338 62.8171C86.3617 62.545 85.9927 62.3922 85.6078 62.3922ZM79.8039 24.6667C80.1887 24.6667 80.5578 24.8195 80.8299 25.0916C81.102 25.3638 81.2549 25.7328 81.2549 26.1176V62.3922H78.3529V24.6667H79.8039ZM11.6078 7.2549C11.6078 6.10043 12.0665 4.99324 12.8828 4.17691C13.6991 3.36057 14.8063 2.90196 15.9608 2.90196H71.098C72.2525 2.90196 73.3597 3.36057 74.176 4.17691C74.9924 4.99324 75.451 6.10043 75.451 7.2549V11.6078H11.6078V7.2549ZM11.6078 23.2157V14.5098H75.451V62.3922H72.549V58.0392C72.5535 57.6914 72.4329 57.3536 72.2092 57.0873C71.9855 56.821 71.6735 56.6439 71.3302 56.5882L65.2941 55.5871C65.1345 55.1808 64.9604 54.76 64.7718 54.3537L68.2976 49.3333C68.4992 49.0547 68.5952 48.7136 68.5686 48.3708C68.542 48.028 68.3946 47.7058 68.1525 47.4616L59.9545 39.1765C59.7103 38.9344 59.3881 38.787 59.0453 38.7604C58.7024 38.7338 58.3613 38.8299 58.0827 39.0314L53.0188 42.6298C52.6126 42.4412 52.1918 42.2671 51.7855 42.1075L50.7843 36.0424C50.7287 35.699 50.5516 35.3871 50.2853 35.1634C50.0189 34.9397 49.6811 34.8191 49.3333 34.8235H37.7255C37.3777 34.8191 37.0399 34.9397 36.7736 35.1634C36.5072 35.3871 36.3301 35.699 36.2745 36.0424L35.2588 42.151C34.8526 42.3106 34.4318 42.4847 34.0255 42.6733L29.0196 39.0749C28.741 38.8734 28.3999 38.7774 28.0571 38.8039C27.7143 38.8305 27.3921 38.978 27.1478 39.22L18.8627 47.418C18.6207 47.6623 18.4733 47.9845 18.4467 48.3273C18.4201 48.6701 18.5161 49.0112 18.7176 49.2898L22.3161 54.3537C22.1275 54.76 21.9533 55.1808 21.7937 55.5871L15.6851 56.6027C15.3522 56.6671 15.0524 56.8461 14.8377 57.1085C14.623 57.3709 14.507 57.7002 14.5098 58.0392V62.3922H11.6078V23.2157ZM54.5569 62.5082C54.39 62.5823 54.2377 62.6855 54.1071 62.8129L51.6404 65.2941H35.4184L32.9518 62.8129C32.8211 62.6855 32.6688 62.5823 32.502 62.5082C32.4441 62.5148 32.3857 62.5148 32.3278 62.5082H32.0086C32.3549 59.6966 33.7174 57.1087 35.8395 55.232C37.9615 53.3553 40.6966 52.3194 43.5294 52.3194C46.3623 52.3194 49.0973 53.3553 51.2194 55.232C53.3414 57.1087 54.7039 59.6966 55.0502 62.5082H54.731C54.6731 62.5148 54.6147 62.5148 54.5569 62.5082ZM58.0392 62.3922C57.6799 58.8128 56.0038 55.4945 53.3361 53.0812C50.6684 50.6678 47.1993 49.3315 43.602 49.3315C40.0046 49.3315 36.5355 50.6678 33.8678 53.0812C31.2001 55.4945 29.524 58.8128 29.1647 62.3922H17.4118V59.2725L23.2157 58.3149C23.479 58.2717 23.7253 58.1568 23.9275 57.9827C24.1298 57.8087 24.2801 57.5822 24.362 57.3282C24.6457 56.4824 24.99 55.658 25.3922 54.8616C25.5023 54.6309 25.5496 54.3753 25.5292 54.1205C25.5088 53.8657 25.4215 53.6208 25.2761 53.4106L21.8373 48.6078L28.2941 42.151L33.0533 45.5318C33.2635 45.6772 33.5084 45.7645 33.7632 45.7849C34.018 45.8053 34.2737 45.758 34.5043 45.6478C35.3007 45.2457 36.1251 44.9014 36.971 44.6176C37.2249 44.5358 37.4514 44.3855 37.6255 44.1832C37.7995 43.981 37.9145 43.7347 37.9576 43.4714L38.9153 37.6674H48.0565L49.0141 43.4714C49.0573 43.7347 49.1722 43.981 49.3463 44.1832C49.5204 44.3855 49.7468 44.5358 50.0008 44.6176C50.8467 44.9014 51.671 45.2457 52.4675 45.6478C52.6981 45.758 52.9538 45.8053 53.2085 45.7849C53.4633 45.7645 53.7082 45.6772 53.9184 45.5318L58.6776 42.151L65.2941 48.6078L61.9133 53.3671C61.7679 53.5773 61.6806 53.8221 61.6602 54.0769C61.6398 54.3317 61.6871 54.5874 61.7973 54.818C62.1994 55.6145 62.5437 56.4388 62.8274 57.2847C62.9093 57.5387 63.0596 57.7651 63.2619 57.9392C63.4641 58.1133 63.7104 58.2282 63.9737 58.2714L69.7776 59.229V62.3922H58.0392ZM84.1569 69.6471C84.1569 70.0319 84.004 70.4009 83.7319 70.6731C83.4598 70.9452 83.0907 71.098 82.7059 71.098H4.35294C3.96812 71.098 3.59906 70.9452 3.32694 70.6731C3.05483 70.4009 2.90196 70.0319 2.90196 69.6471V65.2941H31.3267L33.7933 67.7753C33.9289 67.9098 34.0897 68.0162 34.2665 68.0884C34.4433 68.1606 34.6326 68.1972 34.8235 68.1961H52.2353C52.4263 68.1972 52.6156 68.1606 52.7923 68.0884C52.9691 68.0162 53.1299 67.9098 53.2655 67.7753L55.7322 65.2941H84.1569V69.6471Z" fill="white"/>
<path d="M5.80382 34.9099H2.90186V37.7248H5.80382V34.9099Z" fill="white"/>
<path d="M18.8627 5.80396H15.9607V8.70592H18.8627V5.80396Z" fill="#FBBF51"/>
<path d="M24.6666 5.80396H21.7646V8.70592H24.6666V5.80396Z" fill="white"/>
<path d="M30.4706 5.80396H27.5686V8.70592H30.4706V5.80396Z" fill="white"/>
<path d="M71.0979 5.80396H43.5293V8.70592H71.0979V5.80396Z" fill="white"/>
<path d="M17.4117 17.4119H14.5098V20.3138H17.4117V17.4119Z" fill="white"/>
<path d="M37.7255 17.4119H20.3137V20.3138H37.7255V17.4119Z" fill="#FBBF51"/>
<path d="M17.4117 23.2156H14.5098V26.1175H17.4117V23.2156Z" fill="#FBBF51"/>
<path d="M37.7255 23.2156H20.3137V26.1175H37.7255V23.2156Z" fill="white"/>
<path d="M17.4117 29.0195H14.5098V31.9215H17.4117V29.0195Z" fill="white"/>
<path d="M37.7255 29.0195H20.3137V31.9215H37.7255V29.0195Z" fill="#FBBF51"/>
<path d="M42.0784 31.9217H72.549V29.0197H45.9961L52.4529 23.4915L57.3863 25.9581C57.6068 26.0855 57.8571 26.1525 58.1118 26.1525C58.3665 26.1525 58.6167 26.0855 58.8372 25.9581L68.9941 20.1542L67.5431 17.6295L58.0392 23.0272L52.9318 20.4734C52.6767 20.3441 52.3892 20.293 52.1052 20.3266C51.8212 20.3601 51.5535 20.4769 51.3357 20.6621L43.5294 27.3221V17.4119H40.6274V30.4707C40.6274 30.8555 40.7803 31.2246 41.0524 31.4967C41.3245 31.7688 41.6936 31.9217 42.0784 31.9217Z" fill="#FBBF51"/>
</svg>
