<svg width="78" height="78" viewBox="0 0 78 78" fill="none" xmlns="http://www.w3.org/2000/svg">
<path d="M35.8308 17.3546L39.0808 7.60458C39.2187 7.19515 39.5137 6.85728 39.9007 6.66529C40.2877 6.4733 40.7352 6.44292 41.1446 6.58083C41.554 6.71875 41.8919 7.01365 42.0839 7.40068C42.2759 7.78771 42.3062 8.23516 42.1683 8.64458L38.9183 18.3946C38.7804 18.804 38.4855 19.1419 38.0985 19.3339C37.7115 19.5259 37.264 19.5562 36.8546 19.4183C36.4452 19.2804 36.1073 18.9855 35.9153 18.5985C35.7233 18.2115 35.6929 17.764 35.8308 17.3546Z" fill="#FBBF51"/>
<path d="M45.4994 17.8751C45.1767 17.8769 44.8607 17.7826 44.5917 17.6042C44.3227 17.4258 44.113 17.1713 43.9892 16.8732C43.8654 16.5751 43.8332 16.2469 43.8967 15.9304C43.9602 15.614 44.1165 15.3236 44.3457 15.0963L46.4582 13.0001L44.3457 10.9038C44.0397 10.5978 43.8678 10.1828 43.8678 9.75006C43.8678 9.31732 44.0397 8.9023 44.3457 8.59631C44.6517 8.29031 45.0667 8.11841 45.4994 8.11841C45.9322 8.11841 46.3472 8.29031 46.6532 8.59631L49.9032 11.8463C50.0555 11.9974 50.1764 12.1771 50.2589 12.3751C50.3414 12.5731 50.3839 12.7855 50.3839 13.0001C50.3839 13.2146 50.3414 13.427 50.2589 13.625C50.1764 13.823 50.0555 14.0027 49.9032 14.1538C46.3607 17.6963 46.3769 17.8751 45.4994 17.8751Z" fill="#FBBF51"/>
<path d="M32.4998 17.8751C31.6223 17.8751 31.5735 17.6313 28.096 14.1538C27.9437 14.0027 27.8228 13.823 27.7403 13.625C27.6578 13.427 27.6154 13.2146 27.6154 13.0001C27.6154 12.7855 27.6578 12.5731 27.7403 12.3751C27.8228 12.1771 27.9437 11.9974 28.096 11.8463L31.346 8.59631C31.652 8.29031 32.067 8.11841 32.4998 8.11841C32.9325 8.11841 33.3475 8.29031 33.6535 8.59631C33.9595 8.9023 34.1314 9.31732 34.1314 9.75006C34.1314 10.1828 33.9595 10.5978 33.6535 10.9038L31.541 13.0001L33.6535 15.0963C33.8827 15.3236 34.039 15.614 34.1025 15.9304C34.166 16.2469 34.1338 16.5751 34.01 16.8732C33.8862 17.1713 33.6765 17.4258 33.4075 17.6042C33.1386 17.7826 32.8225 17.8769 32.4998 17.8751Z" fill="#FBBF51"/>
<path d="M35.75 71.5002H32.5V55.2502C32.5 54.3883 32.1576 53.5616 31.5481 52.9521C30.9386 52.3427 30.112 52.0002 29.25 52.0002H6.5C5.63805 52.0002 4.8114 52.3427 4.2019 52.9521C3.59241 53.5616 3.25 54.3883 3.25 55.2502V71.5002H0V74.7502C0 75.6122 0.34241 76.4389 0.951903 77.0483C1.5614 77.6578 2.38805 78.0002 3.25 78.0002H32.5C33.362 78.0002 34.1886 77.6578 34.7981 77.0483C35.4076 76.4389 35.75 75.6122 35.75 74.7502V71.5002ZM6.5 55.2502H29.25V71.5002H6.5V55.2502Z" fill="white"/>
<path d="M58.5004 22.75H56.8754V3.25C56.8754 2.38805 56.533 1.5614 55.9235 0.951903C55.314 0.34241 54.4873 0 53.6254 0L24.3754 0C23.5134 0 22.6868 0.34241 22.0773 0.951903C21.4678 1.5614 21.1254 2.38805 21.1254 3.25V22.75H19.5004C19.0694 22.75 18.6561 22.9212 18.3513 23.226C18.0466 23.5307 17.8754 23.944 17.8754 24.375V29.25C17.8754 30.5429 18.389 31.7829 19.3032 32.6971C20.2175 33.6114 21.4574 34.125 22.7504 34.125H55.2504C56.5433 34.125 57.7833 33.6114 58.6975 32.6971C59.6117 31.7829 60.1254 30.5429 60.1254 29.25V24.375C60.1254 23.944 59.9542 23.5307 59.6494 23.226C59.3447 22.9212 58.9313 22.75 58.5004 22.75ZM24.3754 3.25H53.6254V22.75H24.3754V3.25ZM56.8754 29.25C56.8754 29.681 56.7042 30.0943 56.3994 30.399C56.0947 30.7038 55.6813 30.875 55.2504 30.875H22.7504C22.3194 30.875 21.9061 30.7038 21.6013 30.399C21.2966 30.0943 21.1254 29.681 21.1254 29.25V26H32.5004C32.5004 26.431 32.6716 26.8443 32.9763 27.149C33.2811 27.4538 33.6944 27.625 34.1254 27.625H43.8754C44.3063 27.625 44.7197 27.4538 45.0244 27.149C45.3292 26.8443 45.5004 26.431 45.5004 26H56.8754V29.25Z" fill="white"/>
<path d="M24.375 61.75H11.375C10.944 61.75 10.5307 61.5788 10.226 61.274C9.92121 60.9693 9.75 60.556 9.75 60.125C9.75 59.694 9.92121 59.2807 10.226 58.976C10.5307 58.6712 10.944 58.5 11.375 58.5H24.375C24.806 58.5 25.2193 58.6712 25.524 58.976C25.8288 59.2807 26 59.694 26 60.125C26 60.556 25.8288 60.9693 25.524 61.274C25.2193 61.5788 24.806 61.75 24.375 61.75Z" fill="white"/>
<path d="M24.375 68.2498H11.375C10.944 68.2498 10.5307 68.0786 10.226 67.7738C9.92121 67.4691 9.75 67.0557 9.75 66.6248C9.75 66.1938 9.92121 65.7805 10.226 65.4757C10.5307 65.171 10.944 64.9998 11.375 64.9998H24.375C24.806 64.9998 25.2193 65.171 25.524 65.4757C25.8288 65.7805 26 66.1938 26 66.6248C26 67.0557 25.8288 67.4691 25.524 67.7738C25.2193 68.0786 24.806 68.2498 24.375 68.2498Z" fill="#FBBF51"/>
<path d="M42.2504 74.7502C42.2504 75.6122 42.5928 76.4389 43.2023 77.0483C43.8118 77.6578 44.6384 78.0002 45.5004 78.0002H74.7504C75.6123 78.0002 76.439 77.6578 77.0485 77.0483C77.658 76.4389 78.0004 75.6122 78.0004 74.7502V71.5002H74.7504V55.2502C74.7504 54.3883 74.408 53.5616 73.7985 52.9521C73.189 52.3427 72.3623 52.0002 71.5004 52.0002H48.7504C47.8884 52.0002 47.0618 52.3427 46.4523 52.9521C45.8428 53.5616 45.5004 54.3883 45.5004 55.2502V71.5002H42.2504V74.7502ZM71.5004 71.5002H48.7504V55.2502H71.5004V71.5002Z" fill="white"/>
<path d="M53.6254 61.75H66.6254C67.0563 61.75 67.4697 61.5788 67.7744 61.274C68.0792 60.9693 68.2504 60.556 68.2504 60.125C68.2504 59.694 68.0792 59.2807 67.7744 58.976C67.4697 58.6712 67.0563 58.5 66.6254 58.5H53.6254C53.1944 58.5 52.7811 58.6712 52.4763 58.976C52.1716 59.2807 52.0004 59.694 52.0004 60.125C52.0004 60.556 52.1716 60.9693 52.4763 61.274C52.7811 61.5788 53.1944 61.75 53.6254 61.75Z" fill="#FBBF51"/>
<path d="M53.6254 68.2498H66.6254C67.0563 68.2498 67.4697 68.0786 67.7744 67.7738C68.0792 67.4691 68.2504 67.0557 68.2504 66.6248C68.2504 66.1938 68.0792 65.7805 67.7744 65.4757C67.4697 65.171 67.0563 64.9998 66.6254 64.9998H53.6254C53.1944 64.9998 52.7811 65.171 52.4763 65.4757C52.1716 65.7805 52.0004 66.1938 52.0004 66.6248C52.0004 67.0557 52.1716 67.4691 52.4763 67.7738C52.7811 68.0786 53.1944 68.2498 53.6254 68.2498Z" fill="white"/>
<path d="M61.7496 43.8752V47.1252C61.7496 47.5562 61.5784 47.9695 61.2737 48.2743C60.9689 48.579 60.5556 48.7502 60.1246 48.7502C59.6937 48.7502 59.2803 48.579 58.9756 48.2743C58.6708 47.9695 58.4996 47.5562 58.4996 47.1252V45.5002H19.4996V47.1252C19.4996 47.5562 19.3284 47.9695 19.0237 48.2743C18.7189 48.579 18.3056 48.7502 17.8746 48.7502C17.4437 48.7502 17.0303 48.579 16.7256 48.2743C16.4208 47.9695 16.2496 47.5562 16.2496 47.1252V43.8752C16.2496 43.4443 16.4208 43.0309 16.7256 42.7262C17.0303 42.4214 17.4437 42.2502 17.8746 42.2502H37.3746V39.0002C37.3746 38.5693 37.5458 38.1559 37.8506 37.8512C38.1553 37.5464 38.5687 37.3752 38.9996 37.3752C39.4306 37.3752 39.8439 37.5464 40.1487 37.8512C40.4534 38.1559 40.6246 38.5693 40.6246 39.0002V42.2502H60.1246C60.5556 42.2502 60.9689 42.4214 61.2737 42.7262C61.5784 43.0309 61.7496 43.4443 61.7496 43.8752Z" fill="white"/>
</svg>
