<svg width="78" height="78" viewBox="0 0 78 78" fill="none" xmlns="http://www.w3.org/2000/svg">
<path d="M28.6289 38.6199L39.0004 31.7056L49.3719 38.6211L44.3422 26.8859L54.4784 20.1288H43.6037L39.0004 9.38623L34.3972 20.1288H23.5225L33.6574 26.8859L28.6289 38.6199ZM31.8332 22.645H36.0553L39.0004 15.7747L41.9456 22.645H46.1676L41.2058 25.9524L43.7245 31.8301L39.0004 28.6812L34.2751 31.8301L36.7938 25.9524L31.8332 22.645Z" fill="#FBBF51"/>
<path d="M59.5115 55.3548L54.6126 44.8563C60.4198 40.2442 64.1613 33.1374 64.1613 25.1613C64.1613 11.2874 52.8739 0 39 0C25.1261 0 13.8387 11.2874 13.8387 25.1613C13.8387 33.1374 17.5802 40.2442 23.3887 44.8563L18.4885 55.3548H0V78H78V55.3548H59.5115ZM59.202 60.6437L50.8434 57.5099L47.9134 65.3225L43.1114 49.9565C46.5308 49.3904 49.7174 48.1436 52.5267 46.3421L59.202 60.6437ZM18.9351 23.9032H16.419C16.5964 20.6989 17.433 17.6733 18.8118 14.9584L20.9946 16.219C19.8258 18.5602 19.1062 21.1556 18.9351 23.9032ZM18.9351 26.4194C19.1062 29.167 19.8258 31.7624 20.9946 34.1049L18.8118 35.3655C17.4343 32.6505 16.5964 29.6249 16.419 26.4206H18.9351V26.4194ZM21.3871 25.1613C21.3871 15.449 29.2877 7.54839 39 7.54839C48.7123 7.54839 56.6129 15.449 56.6129 25.1613C56.6129 34.8735 48.7123 42.7742 39 42.7742C29.2877 42.7742 21.3871 34.8735 21.3871 25.1613ZM40.2581 5.09642V2.58029C43.4624 2.75768 46.488 3.59429 49.2029 4.97313L47.9423 7.15587C45.6011 5.98713 43.0057 5.26752 40.2581 5.09642ZM37.7419 5.09642C34.9943 5.26752 32.3989 5.98713 30.0564 7.15587L28.7971 4.97187C31.512 3.59429 34.5376 2.75642 37.7419 2.57903V5.09642ZM59.0649 26.4194H61.581C61.4036 29.6236 60.567 32.6493 59.1882 35.3642L57.0054 34.1036C58.1742 31.7624 58.8938 29.167 59.0649 26.4194ZM59.0649 23.9032C58.8938 21.1556 58.1742 18.5602 57.0054 16.2177L59.1882 14.9571C60.5657 17.672 61.4036 20.6977 61.581 23.902H59.0649V23.9032ZM40.2581 47.7423V45.2262C43.0057 45.0551 45.6011 44.3355 47.9436 43.1667L49.2042 45.3495C46.488 46.7283 43.4624 47.5649 40.2581 47.7423ZM37.7419 45.2262V47.7423C34.5376 47.5649 31.512 46.7283 28.7971 45.3495L30.0577 43.1667C32.3989 44.3355 34.9943 45.0551 37.7419 45.2262ZM39 50.3226C39.5284 50.3226 40.0454 50.276 40.5663 50.2433L42.164 55.3548H35.836L37.4337 50.2433C37.9545 50.276 38.4716 50.3226 39 50.3226ZM51.3856 44.0964L50.1288 41.92C52.3581 40.4355 54.2742 38.5194 55.7587 36.2901L57.9351 37.5469C56.2242 40.1536 53.9924 42.3854 51.3856 44.0964ZM57.9351 12.7756L55.7587 14.0325C54.2742 11.8032 52.3581 9.88713 50.1288 8.40261L51.3856 6.22616C53.9924 7.93713 56.2242 10.1689 57.9351 12.7756ZM26.6144 6.22616L27.8712 8.40261C25.6419 9.88713 23.7258 11.8032 22.2413 14.0325L20.0649 12.7756C21.7758 10.1689 24.0076 7.93713 26.6144 6.22616ZM20.0649 37.5469L22.2413 36.2901C23.7258 38.5194 25.6419 40.4355 27.8712 41.92L26.6144 44.0964C24.0076 42.3854 21.7758 40.1536 20.0649 37.5469ZM34.8874 49.9565L30.0854 65.3225L27.1553 57.5099L18.7967 60.6437L25.4708 46.3421C28.2813 48.1424 31.468 49.3904 34.8874 49.9565ZM75.4839 75.4839H2.51613V57.871H17.3147L13.9117 65.1627L25.6821 60.7482L30.3005 73.0646L35.0497 57.871H42.9503L47.6983 73.0646L52.3166 60.7482L64.0871 65.1627L60.6853 57.871H75.4839V75.4839Z" fill="white"/>
<path d="M66.6775 40.2581H64.1614V42.7742H66.6775V40.2581Z" fill="#FBBF51"/>
<path d="M66.6775 45.2903H64.1614V47.8064H66.6775V45.2903Z" fill="#FBBF51"/>
<path d="M69.1936 42.7742H66.6775V45.2903H69.1936V42.7742Z" fill="#FBBF51"/>
<path d="M64.1614 42.7742H61.6453V45.2903H64.1614V42.7742Z" fill="#FBBF51"/>
<path d="M71.7097 20.1292H69.1936V22.6453H71.7097V20.1292Z" fill="#FBBF51"/>
<path d="M71.7097 25.1614H69.1936V27.6775H71.7097V25.1614Z" fill="#FBBF51"/>
<path d="M74.2258 22.6453H71.7097V25.1614H74.2258V22.6453Z" fill="#FBBF51"/>
<path d="M69.1936 22.6453H66.6775V25.1614H69.1936V22.6453Z" fill="#FBBF51"/>
<path d="M71.7097 3.77417H69.1936V6.2903H71.7097V3.77417Z" fill="#FBBF51"/>
<path d="M71.7097 8.8064H69.1936V11.3225H71.7097V8.8064Z" fill="#FBBF51"/>
<path d="M74.2258 6.29028H71.7097V8.80641H74.2258V6.29028Z" fill="#FBBF51"/>
<path d="M69.1936 6.29028H66.6775V8.80641H69.1936V6.29028Z" fill="#FBBF51"/>
<path d="M8.80641 23.9033H6.29028V26.4194H8.80641V23.9033Z" fill="#FBBF51"/>
<path d="M11.3225 26.4194H8.8064V28.9356H11.3225V26.4194Z" fill="#FBBF51"/>
<path d="M8.80641 28.9355H6.29028V31.4517H8.80641V28.9355Z" fill="#FBBF51"/>
<path d="M6.2903 26.4194H3.77417V28.9356H6.2903V26.4194Z" fill="#FBBF51"/>
<path d="M11.3225 3.77417H8.8064V6.2903H11.3225V3.77417Z" fill="#FBBF51"/>
<path d="M13.8386 6.29028H11.3225V8.80641H13.8386V6.29028Z" fill="#FBBF51"/>
<path d="M11.3225 8.8064H8.8064V11.3225H11.3225V8.8064Z" fill="#FBBF51"/>
<path d="M8.80641 6.29028H6.29028V8.80641H8.80641V6.29028Z" fill="#FBBF51"/>
<path d="M12.5806 45.2903H10.0645V47.8064H12.5806V45.2903Z" fill="#FBBF51"/>
<path d="M15.0967 47.8064H12.5806V50.3225H15.0967V47.8064Z" fill="#FBBF51"/>
<path d="M12.5806 50.3225H10.0645V52.8386H12.5806V50.3225Z" fill="#FBBF51"/>
<path d="M10.0645 47.8064H7.54834V50.3225H10.0645V47.8064Z" fill="#FBBF51"/>
</svg>
