<svg width="105" height="99" viewBox="0 0 105 99" fill="none" xmlns="http://www.w3.org/2000/svg">
<path d="M51.8727 74.0206C62.2471 74.0206 70.6398 65.6278 70.6398 55.2534C70.6398 44.879 62.2471 36.4862 51.8727 36.4862C41.4983 36.4862 33.1055 44.879 33.1055 55.2534C33.1055 65.6278 41.6148 74.0206 51.8727 74.0206ZM51.8727 69.8242C49.4248 69.8242 47.0934 69.2414 45.1118 68.0757C45.5781 64.6953 48.4922 62.1308 51.8727 62.1308C55.3696 62.1308 58.1672 64.6953 58.6335 68.0757C56.6519 69.1248 54.4371 69.8242 51.8727 69.8242ZM48.026 51.057C48.026 48.8422 49.7745 47.0937 51.9892 47.0937C54.204 47.0937 55.9525 48.8422 55.9525 51.057C55.9525 53.2718 54.204 55.0203 51.9892 55.0203C49.7745 55.0203 48.026 53.2718 48.026 51.057ZM51.8727 40.9157C59.7992 40.9157 66.3269 47.4434 66.3269 55.37C66.3269 59.2167 64.8115 62.7136 62.3636 65.2781C61.198 62.1308 58.6335 59.5664 55.3696 58.5173C58.1672 57.235 60.1489 54.4374 60.1489 51.057C60.1489 46.5109 56.4187 42.7808 51.8727 42.7808C47.3266 42.7808 43.5964 46.5109 43.5964 51.057C43.5964 54.3209 45.5781 57.1185 48.3757 58.5173C45.1118 59.5664 42.5473 62.1308 41.3817 65.2781C38.9338 62.7136 37.4184 59.2167 37.4184 55.37C37.4184 47.3269 43.9461 40.9157 51.8727 40.9157Z" fill="#D9042B"/>
<path d="M8.04308 60.498C11.7732 60.498 14.9205 57.9335 15.853 54.4365C16.0862 54.5531 16.3193 54.5531 16.5524 54.5531H24.9452V61.5471H19.9329C19.35 61.5471 18.6506 61.7802 18.3009 62.363L12.7057 69.0073C11.8898 68.6576 10.9572 68.541 9.90814 68.541C5.47862 68.541 1.86506 72.1546 1.86506 76.5841C1.86506 81.0136 5.47862 84.6272 9.90814 84.6272C14.3377 84.6272 17.9512 81.0136 17.9512 76.5841C17.9512 74.7191 17.2518 72.9706 16.0862 71.5718L20.8654 65.86H24.9452C24.9452 65.9766 25.0618 66.0931 25.0618 66.2097C25.1783 66.3263 25.6446 67.2588 26.5771 68.7742V76.5841C26.5771 77.7498 27.5097 78.6823 28.6753 78.6823C29.841 78.6823 30.7735 77.7498 30.7735 76.5841V74.4859C33.8043 78.0995 38.2338 82.2959 43.9455 85.9094V95.9342C43.9455 97.0998 44.8781 98.0323 46.0437 98.0323C47.2094 98.0323 48.1419 97.0998 48.1419 95.9342V88.3573C49.0744 88.8236 49.8904 89.2899 50.8229 89.6396C51.0561 89.7561 51.4058 89.8727 51.7555 89.8727C52.1052 89.8727 52.3383 89.7561 52.688 89.6396C57.5838 87.4248 61.7802 84.6272 65.1606 81.8296V85.21C65.1606 86.3757 66.0931 87.3082 67.2588 87.3082C68.4245 87.3082 69.357 86.3757 69.357 85.21V77.8664C75.4184 71.8049 78.3326 66.4428 78.5657 65.9766C78.6823 65.86 78.6823 65.7434 78.6823 65.6269H82.9953L87.7745 71.3386C86.6088 72.7374 85.9094 74.4859 85.9094 76.351C85.9094 80.7805 89.523 84.3941 93.9525 84.3941C98.382 84.3941 101.996 80.7805 101.996 76.351C101.996 71.9215 98.382 68.3079 93.9525 68.3079C93.02 68.3079 92.0874 68.541 91.1549 68.7742L85.5597 62.1299C85.21 61.6636 84.5106 61.3139 83.9278 61.3139H78.7989V54.3199H87.5414C87.7745 54.3199 88.0076 54.2034 88.2407 54.2034C89.1733 57.7004 92.3206 60.2648 96.0507 60.2648C100.48 60.2648 104.094 56.6513 104.094 52.2217C104.094 47.7922 100.48 44.1787 96.0507 44.1787C92.3206 44.1787 89.1733 46.7431 88.2407 50.2401C88.0076 50.1235 87.7745 50.1236 87.5414 50.1236H79.032V44.8781H84.1609C84.7438 44.8781 85.4432 44.6449 85.7929 44.0621L91.388 37.4178C92.204 37.7675 93.1365 37.8841 94.1856 37.8841C98.6152 37.8841 102.229 34.2705 102.229 29.841C102.229 25.4115 98.6152 21.7979 94.1856 21.7979C89.7561 21.7979 86.1426 25.4115 86.1426 29.841C86.1426 31.7061 86.842 33.4546 88.0076 34.8534L83.2284 40.5651H79.032V32.9883C79.032 31.9392 78.3326 31.0067 77.2835 30.8901C73.2037 30.1907 69.2404 29.1416 65.86 28.0925V20.7488L71.5718 15.9696C72.9706 17.1353 74.719 17.8347 76.5841 17.8347C81.0136 17.8347 84.6272 14.2211 84.6272 9.79158C84.6272 5.36205 81.0136 1.7485 76.5841 1.7485C72.1546 1.7485 68.541 5.36205 68.541 9.79158C68.541 10.7241 68.7742 11.6566 69.0073 12.5892L62.363 18.1844C61.8968 18.5341 61.5471 19.2335 61.5471 19.8163V26.6937C58.5163 25.528 56.0684 24.5955 54.5531 23.8961V16.5524C54.5531 16.3193 54.4365 16.0862 54.4365 15.853C57.9335 14.9205 60.498 11.7732 60.498 8.04308C60.498 3.61356 56.8844 0 52.4549 0C48.0253 0 44.4118 3.61356 44.4118 8.04308C44.4118 11.7732 46.9763 14.9205 50.4732 15.853C50.3567 16.0862 50.3567 16.3193 50.3567 16.5524V23.5464C49.3076 24.0127 47.0928 25.1783 43.829 26.4606V20.0494C43.829 19.4666 43.5958 18.7672 43.013 18.4175L36.2521 12.7057C36.6018 11.8898 36.7184 10.9572 36.7184 9.90814C36.7184 5.47862 33.1049 1.86506 28.6753 1.86506C24.2458 1.86506 20.6323 5.47862 20.6323 9.90814C20.6323 14.3377 24.2458 17.9512 28.6753 17.9512C30.5404 17.9512 32.2889 17.2518 33.6877 16.0862L39.3994 20.8654V26.9268C39.3994 27.2765 39.516 27.5097 39.516 27.7428C35.9024 28.9085 31.4729 30.0741 26.5771 30.8901C25.528 31.0067 24.8286 31.9392 24.8286 32.9883V40.5651H20.8654L16.0862 34.8534C17.2518 33.4546 17.9512 31.7061 17.9512 29.841C17.9512 25.4115 14.3377 21.7979 9.90814 21.7979C5.47862 21.7979 1.86506 25.4115 1.86506 29.841C1.86506 34.2705 5.47862 37.8841 9.90814 37.8841C10.8407 37.8841 11.7732 37.6509 12.7057 37.4178L18.3009 44.0621C18.6506 44.5284 19.35 44.8781 19.9329 44.8781H24.9452V50.1236H16.5524C16.3193 50.1236 16.0862 50.2401 15.853 50.2401C14.9205 46.7431 11.7732 44.1787 8.04308 44.1787C3.61356 44.1787 0 47.7922 0 52.2217C0 56.6513 3.61356 60.498 8.04308 60.498ZM9.90814 80.1977C7.80995 80.1977 6.17802 78.5658 6.17802 76.4676C6.17802 74.3694 7.80995 72.7374 9.90814 72.7374C12.0063 72.7374 13.6383 74.3694 13.6383 76.4676C13.7548 78.5658 12.0063 80.1977 9.90814 80.1977ZM94.0691 72.7374C96.1673 72.7374 97.7992 74.3694 97.7992 76.4676C97.7992 78.5658 96.1673 80.1977 94.0691 80.1977C91.9709 80.1977 90.339 78.5658 90.339 76.4676C90.339 74.3694 92.0874 72.7374 94.0691 72.7374ZM96.0507 48.6082C98.1489 48.6082 99.7808 50.2401 99.7808 52.3383C99.7808 54.4365 98.1489 56.0684 96.0507 56.0684C93.9525 56.0684 92.3206 54.4365 92.3206 52.3383C92.3206 50.3567 93.9525 48.6082 96.0507 48.6082ZM94.0691 26.344C96.1673 26.344 97.7992 27.9759 97.7992 30.0741C97.7992 32.1723 96.1673 33.8043 94.0691 33.8043C91.9709 33.8043 90.339 32.1723 90.339 30.0741C90.339 27.9759 92.0874 26.344 94.0691 26.344ZM76.4675 6.17802C78.5657 6.17802 80.1977 7.80995 80.1977 9.90814C80.1977 12.0063 78.5657 13.6383 76.4675 13.6383C74.3694 13.6383 72.7374 12.0063 72.7374 9.90814C72.7374 7.80995 74.3694 6.17802 76.4675 6.17802ZM28.7919 13.7548C26.6937 13.7548 25.0618 12.1229 25.0618 10.0247C25.0618 7.92652 26.6937 6.17802 28.7919 6.17802C30.8901 6.17802 32.522 7.80995 32.522 9.90814C32.522 12.0063 30.8901 13.7548 28.7919 13.7548ZM48.6082 8.04308C48.6082 5.94489 50.2401 4.31296 52.3383 4.31296C54.4365 4.31296 56.0684 5.94489 56.0684 8.04308C56.0684 10.1413 54.4365 11.7732 52.3383 11.7732C50.3567 11.7732 48.6082 10.1413 48.6082 8.04308ZM29.1416 34.9699C40.7982 32.8717 49.0744 28.9085 51.9886 27.5097C54.9028 28.9085 63.7618 32.8717 74.719 34.9699V64.5778C73.3203 66.9091 66.0931 78.5658 51.9886 85.3266C37.8841 78.6823 30.657 67.0257 29.2582 64.5778V34.9699H29.1416ZM9.90814 33.8043C7.80995 33.8043 6.17802 32.1723 6.17802 30.0741C6.17802 27.9759 7.80995 26.344 9.90814 26.344C12.0063 26.344 13.6383 27.9759 13.6383 30.0741C13.7548 32.1723 12.0063 33.8043 9.90814 33.8043ZM8.04308 48.6082C10.1413 48.6082 11.7732 50.2401 11.7732 52.3383C11.7732 54.4365 10.1413 56.0684 8.04308 56.0684C5.94489 56.0684 4.31296 54.4365 4.31296 52.3383C4.19639 50.3567 5.94489 48.6082 8.04308 48.6082Z" fill="#3035B0"/>
<path d="M38.4659 95.9341V87.7745C38.4659 86.6088 37.5334 85.6763 36.3677 85.6763C35.2021 85.6763 34.2695 86.6088 34.2695 87.7745V95.9341C34.2695 97.0998 35.2021 98.0323 36.3677 98.0323C37.5334 98.0323 38.4659 97.0998 38.4659 95.9341Z" fill="#3035B0"/>
<path d="M30.8917 84.5097V83.344C30.8917 82.1784 29.9592 81.2458 28.7935 81.2458C27.6278 81.2458 26.6953 82.1784 26.6953 83.344V84.5097C26.6953 85.6754 27.6278 86.6079 28.7935 86.6079C29.9592 86.6079 30.8917 85.6754 30.8917 84.5097Z" fill="#3035B0"/>
<path d="M72.3867 84.9785V92.905C72.3867 94.0707 73.3193 95.0032 74.4849 95.0032C75.6506 95.0032 76.5831 94.0707 76.5831 92.905V84.9785C76.5831 83.8129 75.6506 82.8803 74.4849 82.8803C73.3193 82.7638 72.3867 83.8129 72.3867 84.9785Z" fill="#3035B0"/>
<path d="M63.7628 96.4013V91.0392C63.7628 89.8736 62.8303 88.941 61.6646 88.941C60.4989 88.941 59.5664 89.8736 59.5664 91.0392V96.4013C59.5664 97.567 60.4989 98.4995 61.6646 98.4995C62.8303 98.616 63.7628 97.6835 63.7628 96.4013Z" fill="#3035B0"/>
<path d="M76.4654 77.748C77.6311 77.748 78.5636 76.8155 78.5636 75.6498V75.4167C78.5636 74.251 77.6311 73.3185 76.4654 73.3185C75.2997 73.3185 74.3672 74.3676 74.3672 75.5332C74.3672 76.8155 75.2997 77.748 76.4654 77.748Z" fill="#3035B0"/>
</svg>
