<svg width="101" height="99" viewBox="0 0 101 99" fill="none" xmlns="http://www.w3.org/2000/svg">
<path d="M49.5801 46.29L47.5801 42.83L50.3101 41.25L53.0401 42.81L51.0601 46.29L50.3201 45.86L49.5801 46.29Z" fill="#3035B0"/>
<path d="M90.3101 68.72L87.0401 66.85L89.0201 63.38L92.2901 65.25L90.3101 68.72ZM83.7701 64.98L80.5001 63.11L82.4801 59.64L85.7501 61.51L83.7701 64.98ZM77.2301 61.24L73.9601 59.37L75.9401 55.9L79.2101 57.77L77.2301 61.24ZM70.6801 57.5L67.4101 55.63L69.3901 52.16L72.6601 54.03L70.6801 57.5ZM64.1401 53.77L60.8701 51.9L62.8501 48.43L66.1201 50.3L64.1401 53.77ZM57.6001 50.03L54.3301 48.16L56.3101 44.69L59.5801 46.56L57.6001 50.03Z" fill="#3035B0"/>
<path d="M95.5801 72.58L94.8501 71.32L93.5801 70.59L94.0001 69.85L93.5801 69.12L94.8401 68.39L95.5701 67.12L100.33 69.84L95.5801 72.58Z" fill="#3035B0"/>
<path d="M56.04 95.41L54.04 91.94L57.33 90.04L59.33 93.5L56.04 95.41ZM62.63 91.6L60.63 88.14L63.93 86.24L65.93 89.7L62.63 91.6ZM69.22 87.8L67.22 84.34L70.51 82.44L72.51 85.9L69.22 87.8ZM75.81 83.99L73.81 80.53L77.1 78.63L79.1 82.09L75.81 83.99ZM82.4 80.19L80.4 76.73L83.69 74.83L85.69 78.29L82.4 80.19ZM88.99 76.39L86.99 72.93L90.28 71.03L92.28 74.49L88.99 76.39Z" fill="#3035B0"/>
<path d="M50.0198 98.88L47.2798 97.32L49.2698 93.85L50.0098 94.27L50.7398 93.84L52.7398 97.31L50.0198 98.88Z" fill="#3035B0"/>
<path d="M44.0098 95.45L40.7398 93.58L42.7298 90.11L45.9998 91.98L44.0098 95.45ZM37.4698 91.71L34.1998 89.84L36.1898 86.37L39.4598 88.24L37.4698 91.71ZM30.9298 87.97L27.6598 86.1L29.6398 82.63L32.9098 84.5L30.9298 87.97ZM24.3898 84.23L21.1198 82.36L23.0998 78.89L26.3698 80.76L24.3898 84.23ZM17.8398 80.49L14.5698 78.62L16.5598 75.15L19.8298 77.02L17.8398 80.49ZM11.2998 76.76L8.02979 74.89L10.0098 71.42L13.2798 73.29L11.2998 76.76Z" fill="#3035B0"/>
<path d="M4.76 73.02L0 70.3L4.75 67.56L5.48 68.82L6.75 69.54L6.32 70.28L6.75 71.02L5.48 71.75L4.76 73.02Z" fill="#3035B0"/>
<path d="M10.04 69.12L8.04004 65.66L11.33 63.76L13.33 67.22L10.04 69.12ZM16.63 65.31L14.63 61.85L17.92 59.95L19.92 63.41L16.63 65.31ZM23.22 61.51L21.22 58.05L24.51 56.15L26.51 59.61L23.22 61.51ZM29.81 57.7L27.81 54.24L31.11 52.34L33.11 55.8L29.81 57.7ZM36.4 53.9L34.4 50.44L37.69 48.54L39.69 52L36.4 53.9ZM42.99 50.09L40.99 46.63L44.28 44.73L46.28 48.19L42.99 50.09Z" fill="#3035B0"/>
<path d="M50.28 14.77L81.16 32.41L50.08 50.35L19.21 32.71L50.28 14.77Z" fill="#B7BEC0"/>
<path d="M50.08 52.35C49.74 52.35 49.4 52.26 49.09 52.09L18.22 34.44C17.6 34.08 17.21 33.42 17.21 32.71C17.21 31.99 17.59 31.33 18.21 30.97L49.28 13.03C49.9 12.67 50.66 12.67 51.27 13.03L82.14 30.68C82.76 31.04 83.15 31.7 83.15 32.41C83.15 33.13 82.77 33.79 82.15 34.15L51.08 52.08C50.77 52.26 50.43 52.35 50.08 52.35ZM23.23 32.7L50.08 48.05L77.14 32.43L50.29 17.07L23.23 32.7Z" fill="#3035B0"/>
<path d="M80.9699 32.23L81.3299 68.09L50.2599 86.03L49.8999 50.17L80.9699 32.23Z" fill="#E7EEF8"/>
<path d="M50.4398 88.21C50.0998 88.21 49.7598 88.12 49.4498 87.95C48.8298 87.6 48.4498 86.94 48.4398 86.23L48.0798 50.37C48.0698 49.65 48.4598 48.98 49.0798 48.62L80.1498 30.68C80.7698 30.32 81.5298 30.32 82.1398 30.68C82.7598 31.03 83.1398 31.69 83.1498 32.4L83.5098 68.26C83.5198 68.98 83.1298 69.65 82.5098 70.01L51.4398 87.95C51.1298 88.13 50.7898 88.21 50.4398 88.21ZM52.0898 51.5L52.3998 82.77L79.4998 67.12L79.1898 35.86L52.0898 51.5Z" fill="#3035B0"/>
<path d="M50.08 50.35L50.44 86.21L19.57 68.57L19.21 32.71L50.08 50.35Z" fill="white"/>
<path d="M50.4599 88.21C50.4499 88.21 50.4499 88.21 50.4399 88.21C50.0999 88.21 49.7499 88.12 49.4499 87.95L18.5699 70.31C17.9499 69.96 17.5699 69.3 17.5599 68.59L17.1999 32.73C17.1899 32.01 17.5699 31.35 18.1899 30.99C18.8099 30.63 19.5699 30.62 20.1899 30.98L51.0599 48.63C51.6799 48.98 52.0599 49.64 52.0699 50.35L52.4199 85.93C52.4399 86.03 52.4399 86.13 52.4399 86.23C52.4599 87.32 51.5599 88.21 50.4599 88.21ZM21.5599 67.4L48.4099 82.75L48.0999 51.52L21.2499 36.17L21.5599 67.4Z" fill="#3035B0"/>
<path d="M50.3202 2L66.5902 11.3L50.2202 20.75L33.9502 11.45L50.3202 2Z" fill="#B7BEC0"/>
<path d="M50.2202 22.75C49.8802 22.75 49.5302 22.66 49.2302 22.49L32.9602 13.19C32.3402 12.83 31.9502 12.17 31.9502 11.46C31.9502 10.74 32.3302 10.08 32.9502 9.72L49.3202 0.27C49.9402 -0.09 50.7002 -0.09 51.3102 0.27L67.5802 9.57C68.2002 9.93 68.5902 10.59 68.5902 11.3C68.5902 12.02 68.2102 12.68 67.5902 13.04L51.2202 22.49C50.9102 22.66 50.5602 22.75 50.2202 22.75ZM37.9602 11.44L50.2102 18.44L62.5802 11.3L50.3302 4.3L37.9602 11.44Z" fill="#3035B0"/>
<path d="M66.4098 11.12L66.5998 30.01L50.2198 39.47L50.0298 20.57L66.4098 11.12Z" fill="#D9042B"/>
<path d="M50.4099 41.65C50.0699 41.65 49.7299 41.56 49.4199 41.39C48.7999 41.04 48.4199 40.38 48.4099 39.67L48.2199 20.77C48.2099 20.05 48.5999 19.38 49.2199 19.02L65.5899 9.56999C66.2099 9.20999 66.9599 9.20999 67.5799 9.56999C68.1999 9.91999 68.5799 10.58 68.5899 11.29L68.7799 30.18C68.7899 30.9 68.3999 31.57 67.7799 31.93L51.4099 41.39C51.0999 41.56 50.7499 41.65 50.4099 41.65ZM52.2299 21.9L52.3699 36.21L64.7699 29.05L64.6299 14.75L52.2299 21.9Z" fill="#3035B0"/>
<path d="M50.2202 20.75L50.4102 39.65L34.1402 30.35L33.9502 11.45L50.2202 20.75Z" fill="white"/>
<path d="M50.4201 41.65C50.4101 41.65 50.4101 41.65 50.4001 41.65C50.0601 41.65 49.7101 41.56 49.4101 41.39L33.1401 32.09C32.5201 31.74 32.1401 31.08 32.1301 30.37L31.9401 11.47C31.9301 10.75 32.3101 10.09 32.9301 9.72C33.5501 9.36 34.3101 9.35 34.9301 9.71L51.2001 19.01C51.8201 19.36 52.2001 20.02 52.2101 20.73L52.4001 39.34C52.4201 39.44 52.4201 39.54 52.4201 39.64C52.4201 40.75 51.5301 41.65 50.4201 41.65ZM36.1201 29.18L48.3701 36.18L48.2301 21.92L35.9901 14.92L36.1201 29.18Z" fill="#3035B0"/>
</svg>
