<svg width="99" height="97" viewBox="0 0 99 97" fill="none" xmlns="http://www.w3.org/2000/svg">
<g clip-path="url(#clip0_1006_6880)">
<path d="M33.4908 75.54L41.1308 67.9L70.0908 38.94L77.7308 31.3C82.7908 32.83 88.5108 31.59 92.5208 27.59C96.7408 23.37 97.8708 17.25 95.9508 12L87.0008 20.93L80.0508 19.07L78.1908 12.12L87.1308 3.17997C81.8808 1.26997 75.7508 2.39997 71.5408 6.61997C67.5408 10.62 66.3008 16.34 67.8308 21.41L60.1908 29.05L31.2308 58L23.5908 65.64C18.5208 64.11 12.8108 65.35 8.80078 69.35C4.58078 73.57 3.45078 79.69 5.38078 84.94L14.3208 76L21.2708 77.86L23.1308 84.81L14.1908 93.75C19.4408 95.67 25.5708 94.54 29.7808 90.33C33.7808 86.32 35.0208 80.6 33.4908 75.54Z" fill="white"/>
<path d="M19.3103 96.66C17.3203 96.66 15.3603 96.31 13.5003 95.63L10.5603 94.55L20.8903 84.22L19.6303 79.5L14.9103 78.24L4.58029 88.57L3.50029 85.63C1.25029 79.49 2.78029 72.55 7.39029 67.93C10.5703 64.75 14.7903 63 19.2903 63C20.5403 63 21.7803 63.14 22.9903 63.41L65.6003 20.8C64.3403 15.19 66.0203 9.31003 70.1203 5.20003C73.2903 2.03003 77.5103 0.280029 82.0003 0.280029C83.9903 0.280029 85.9503 0.630029 87.8103 1.31003L90.7503 2.39003L80.4303 12.72L81.6903 17.44L86.4103 18.7L96.7403 8.37003L97.8203 11.31C100.07 17.45 98.5403 24.39 93.9303 29.01C90.7503 32.19 86.5303 33.94 82.0303 33.94C80.7803 33.94 79.5403 33.8 78.3303 33.53L35.7103 76.14C36.9703 81.75 35.2903 87.63 31.1903 91.74C28.0203 94.91 23.8003 96.66 19.3103 96.66ZM18.1603 92.61C18.5403 92.64 18.9303 92.66 19.3103 92.66C22.7303 92.66 25.9403 91.33 28.3603 88.91C31.7103 85.56 32.9403 80.66 31.5703 76.12L31.2203 74.97L77.1503 29.04L78.3003 29.38C79.5103 29.74 80.7603 29.93 82.0203 29.93C85.4503 29.93 88.6703 28.6 91.0903 26.18C93.8003 23.47 95.1103 19.7 94.7803 15.97L87.5903 23.16L78.4103 20.7L75.9503 11.52L83.1403 4.33003C82.7803 4.30003 82.3903 4.28003 82.0003 4.28003C78.5803 4.28003 75.3603 5.61003 72.9503 8.03003C69.6003 11.38 68.3703 16.28 69.7403 20.82L70.0903 21.97L24.1603 67.9L23.0103 67.55C21.8003 67.19 20.5503 67 19.2903 67C15.8603 67 12.6403 68.33 10.2203 70.76C7.51029 73.47 6.20029 77.24 6.53029 80.97L13.7203 73.78L22.9003 76.24L25.3603 85.42L18.1603 92.61Z" fill="#3035B0"/>
<path d="M60.2995 45.6799C59.5195 44.8999 58.2495 44.8999 57.4695 45.6799L56.2595 46.8899C56.1395 46.5899 55.9495 46.2899 55.6895 46.0299L52.8495 43.1899L43.1895 52.8499L46.0295 55.6899C46.2895 55.9499 46.5895 56.1399 46.8895 56.2599L45.6795 57.4699C44.8995 58.2499 44.8995 59.5199 45.6795 60.2999L80.8695 95.4899C81.6495 96.2699 82.9195 96.2699 83.6995 95.4899L95.4895 83.6999C96.2695 82.9199 96.2695 81.6499 95.4895 80.8699L60.2995 45.6799Z" fill="#D9042B"/>
<path d="M47.9697 47.9599L12.9297 12.9299L47.9697 47.9599Z" fill="white"/>
<path d="M14.3499 11.5202L11.5215 14.3486L46.5512 49.3784L49.3796 46.55L14.3499 11.5202Z" fill="#3035B0"/>
<path d="M14.4308 15.34L8.24078 14.71L2.55078 5.78005L5.78078 2.55005L14.7108 8.24005L15.3408 14.43L14.4308 15.34Z" fill="white"/>
<path d="M15.17 17.43L7.08 16.6L0 5.5L5.5 0L16.6 7.08L17.43 15.18L15.17 17.43ZM9.41 12.82L13.21 13.21L12.82 9.41L6.06 5.1L5.1 6.06L9.41 12.82Z" fill="#3035B0"/>
<path d="M52.7285 58.3901L82.7785 88.4401L52.7285 58.3901Z" fill="white"/>
<path d="M54.1429 56.9731L51.3145 59.8015L81.3662 89.8533L84.1946 87.0249L54.1429 56.9731Z" fill="white"/>
<path d="M58.3906 52.73L88.4406 82.78L58.3906 52.73Z" fill="white"/>
<path d="M59.8011 51.3239L56.9727 54.1523L87.0244 84.2041L89.8528 81.3757L59.8011 51.3239Z" fill="white"/>
<path d="M44.4102 59.0799L59.0502 44.4399L44.4102 59.0799Z" fill="white"/>
<path d="M57.6422 43.0265L42.9961 57.6685L45.8241 60.4973L60.4702 45.8553L57.6422 43.0265Z" fill="white"/>
</g>
<defs>
<clipPath id="clip0_1006_6880">
<rect width="98.84" height="96.66" fill="white"/>
</clipPath>
</defs>
</svg>
