<svg width="78" height="77" viewBox="0 0 78 77" fill="none" xmlns="http://www.w3.org/2000/svg">
<path d="M73.65 25.6667H72.7042L44.082 9.48896C44.1075 9.32138 44.1247 9.15263 44.1333 8.98333C44.1316 7.84557 43.7529 6.74046 43.0562 5.8409C42.3596 4.94133 41.3845 4.29805 40.2833 4.0117V1.28333C40.2833 0.942972 40.1481 0.616551 39.9075 0.375879C39.6668 0.135208 39.3404 0 39 0C38.6596 0 38.3332 0.135208 38.0925 0.375879C37.8519 0.616551 37.7167 0.942972 37.7167 1.28333V5.13333C37.7167 5.47369 37.8519 5.80011 38.0925 6.04078C38.3332 6.28146 38.6596 6.41666 39 6.41666C39.5076 6.41666 40.0039 6.5672 40.426 6.84923C40.848 7.13125 41.177 7.53211 41.3713 8.00111C41.5656 8.47011 41.6164 8.98618 41.5173 9.48406C41.4183 9.98195 41.1739 10.4393 40.8149 10.7982C40.456 11.1572 39.9986 11.4016 39.5007 11.5007C39.0028 11.5997 38.4868 11.5489 38.0178 11.3546C37.5488 11.1604 37.1479 10.8314 36.8659 10.4093C36.5839 9.98721 36.4333 9.49097 36.4333 8.98333C36.4333 8.64297 36.2981 8.31655 36.0575 8.07588C35.8168 7.8352 35.4904 7.7 35.15 7.7C34.8096 7.7 34.4832 7.8352 34.2425 8.07588C34.0019 8.31655 33.8667 8.64297 33.8667 8.98333C33.8753 9.15263 33.8924 9.32138 33.918 9.48896L5.29582 25.6667H4.35C3.32892 25.6667 2.34965 26.0723 1.62764 26.7943C0.905624 27.5163 0.5 28.4956 0.5 29.5167C0.5 30.5377 0.905624 31.517 1.62764 32.239C2.34965 32.961 3.32892 33.3666 4.35 33.3666V43.6333C4.35 43.9737 4.48521 44.3001 4.72588 44.5408C4.96655 44.7814 5.29297 44.9166 5.63333 44.9166C5.97369 44.9166 6.30012 44.7814 6.54079 44.5408C6.78146 44.3001 6.91667 43.9737 6.91667 43.6333V33.3666H71.0833V61.6C71.0833 61.9403 71.2185 62.2668 71.4592 62.5074C71.6999 62.7481 72.0263 62.8833 72.3667 62.8833C72.707 62.8833 73.0334 62.7481 73.2741 62.5074C73.5148 62.2668 73.65 61.9403 73.65 61.6V33.3666C74.6711 33.3666 75.6503 32.961 76.3724 32.239C77.0944 31.517 77.5 30.5377 77.5 29.5167C77.5 28.4956 77.0944 27.5163 76.3724 26.7943C75.6503 26.0723 74.6711 25.6667 73.65 25.6667ZM73.65 30.8H4.35C4.00964 30.8 3.68322 30.6648 3.44255 30.4241C3.20187 30.1834 3.06667 29.857 3.06667 29.5167C3.06667 29.1763 3.20187 28.8499 3.44255 28.6092C3.68322 28.3685 4.00964 28.2333 4.35 28.2333H14.6167C14.957 28.2333 15.2834 28.0981 15.5241 27.8574C15.7648 27.6168 15.9 27.2903 15.9 26.95C15.9 26.6096 15.7648 26.2832 15.5241 26.0425C15.2834 25.8019 14.957 25.6667 14.6167 25.6667H10.51L34.8112 11.935C35.2821 12.6093 35.9087 13.16 36.638 13.5402C37.3673 13.9204 38.1776 14.119 39 14.119C39.8224 14.119 40.6327 13.9204 41.362 13.5402C42.0912 13.16 42.7179 12.6093 43.1888 11.935L67.49 25.6667H26.1667C25.8263 25.6667 25.4999 25.8019 25.2592 26.0425C25.0185 26.2832 24.8833 26.6096 24.8833 26.95C24.8833 27.2903 25.0185 27.6168 25.2592 27.8574C25.4999 28.0981 25.8263 28.2333 26.1667 28.2333H73.65C73.9904 28.2333 74.3168 28.3685 74.5574 28.6092C74.7981 28.8499 74.9333 29.1763 74.9333 29.5167C74.9333 29.857 74.7981 30.1834 74.5574 30.4241C74.3168 30.6648 73.9904 30.8 73.65 30.8Z" fill="#3035B0"/>
<path d="M73.65 69.2999V66.7332C73.65 66.3928 73.5148 66.0664 73.2741 65.8257C73.0334 65.585 72.707 65.4498 72.3667 65.4498C72.0263 65.4498 71.6999 65.585 71.4592 65.8257C71.2185 66.0664 71.0833 66.3928 71.0833 66.7332V70.5832C71.0833 70.9236 71.2185 71.25 71.4592 71.4907C71.6999 71.7314 72.0263 71.8666 72.3667 71.8666H73.65C73.9904 71.8666 74.3168 72.0018 74.5574 72.2425C74.7981 72.4832 74.9333 72.8096 74.9333 73.1499C74.9333 73.4903 74.7981 73.8167 74.5574 74.0574C74.3168 74.2981 73.9904 74.4333 73.65 74.4333H4.35C4.00964 74.4333 3.68322 74.2981 3.44255 74.0574C3.20187 73.8167 3.06667 73.4903 3.06667 73.1499C3.06667 72.8096 3.20187 72.4832 3.44255 72.2425C3.68322 72.0018 4.00964 71.8666 4.35 71.8666H67.2333C67.5737 71.8666 67.9001 71.7314 68.1408 71.4907C68.3815 71.25 68.5167 70.9236 68.5167 70.5832C68.5167 70.2429 68.3815 69.9165 68.1408 69.6758C67.9001 69.4351 67.5737 69.2999 67.2333 69.2999H6.91667V48.7663C6.91667 48.4259 6.78146 48.0995 6.54079 47.8588C6.30012 47.6181 5.97369 47.4829 5.63333 47.4829C5.29297 47.4829 4.96655 47.6181 4.72588 47.8588C4.48521 48.0995 4.35 48.4259 4.35 48.7663V69.2999C3.32892 69.2999 2.34965 69.7055 1.62764 70.4275C0.905624 71.1496 0.5 72.1288 0.5 73.1499C0.5 74.171 0.905624 75.1503 1.62764 75.8723C2.34965 76.5944 3.32892 77 4.35 77H73.65C74.6711 77 75.6503 76.5944 76.3724 75.8723C77.0944 75.1503 77.5 74.171 77.5 73.1499C77.5 72.1288 77.0944 71.1496 76.3724 70.4275C75.6503 69.7055 74.6711 69.2999 73.65 69.2999Z" fill="#3035B0"/>
<path d="M14.6168 65.4511V37.2188C14.6168 36.8785 14.4815 36.5521 14.2409 36.3114C14.0002 36.0707 13.6738 35.9355 13.3334 35.9355C12.993 35.9355 12.6666 36.0707 12.4259 36.3114C12.1853 36.5521 12.05 36.8785 12.05 37.2188V65.4511C12.05 65.7914 12.1853 66.1178 12.4259 66.3585C12.6666 66.5992 12.993 66.7344 13.3334 66.7344C13.6738 66.7344 14.0002 66.5992 14.2409 66.3585C14.4815 66.1178 14.6168 65.7914 14.6168 65.4511Z" fill="#D9042B"/>
<path d="M21.0334 65.4511V37.2188C21.0334 36.8785 20.8982 36.5521 20.6576 36.3114C20.4169 36.0707 20.0905 35.9355 19.7501 35.9355C19.4098 35.9355 19.0833 36.0707 18.8427 36.3114C18.602 36.5521 18.4668 36.8785 18.4668 37.2188V65.4511C18.4668 65.7914 18.602 66.1178 18.8427 66.3585C19.0833 66.5992 19.4098 66.7344 19.7501 66.7344C20.0905 66.7344 20.4169 66.5992 20.6576 66.3585C20.8982 66.1178 21.0334 65.7914 21.0334 65.4511Z" fill="#3035B0"/>
<path d="M27.45 65.4511V37.2188C27.45 36.8785 27.3147 36.5521 27.0741 36.3114C26.8334 36.0707 26.507 35.9355 26.1666 35.9355C25.8263 35.9355 25.4998 36.0707 25.2592 36.3114C25.0185 36.5521 24.8833 36.8785 24.8833 37.2188V65.4511C24.8833 65.7914 25.0185 66.1178 25.2592 66.3585C25.4998 66.5992 25.8263 66.7344 26.1666 66.7344C26.507 66.7344 26.8334 66.5992 27.0741 66.3585C27.3147 66.1178 27.45 65.7914 27.45 65.4511Z" fill="#D9042B"/>
<path d="M33.8667 65.4511V37.2188C33.8667 36.8785 33.7315 36.5521 33.4908 36.3114C33.2502 36.0707 32.9237 35.9355 32.5834 35.9355C32.243 35.9355 31.9166 36.0707 31.6759 36.3114C31.4353 36.5521 31.3 36.8785 31.3 37.2188V65.4511C31.3 65.7914 31.4353 66.1178 31.6759 66.3585C31.9166 66.5992 32.243 66.7344 32.5834 66.7344C32.9237 66.7344 33.2502 66.5992 33.4908 66.3585C33.7315 66.1178 33.8667 65.7914 33.8667 65.4511Z" fill="#3035B0"/>
<path d="M40.2833 65.4511V37.2188C40.2833 36.8785 40.1481 36.5521 39.9074 36.3114C39.6667 36.0707 39.3403 35.9355 38.9999 35.9355C38.6595 35.9355 38.3331 36.0707 38.0924 36.3114C37.8518 36.5521 37.7166 36.8785 37.7166 37.2188V65.4511C37.7166 65.7914 37.8518 66.1178 38.0924 66.3585C38.3331 66.5992 38.6595 66.7344 38.9999 66.7344C39.3403 66.7344 39.6667 66.5992 39.9074 66.3585C40.1481 66.1178 40.2833 65.7914 40.2833 65.4511Z" fill="#D9042B"/>
<path d="M46.7 65.4511V37.2188C46.7 36.8785 46.5648 36.5521 46.3241 36.3114C46.0835 36.0707 45.757 35.9355 45.4167 35.9355C45.0763 35.9355 44.7499 36.0707 44.5092 36.3114C44.2685 36.5521 44.1333 36.8785 44.1333 37.2188V65.4511C44.1333 65.7914 44.2685 66.1178 44.5092 66.3585C44.7499 66.5992 45.0763 66.7344 45.4167 66.7344C45.757 66.7344 46.0835 66.5992 46.3241 66.3585C46.5648 66.1178 46.7 65.7914 46.7 65.4511Z" fill="#3035B0"/>
<path d="M53.1167 65.4511V37.2188C53.1167 36.8785 52.9815 36.5521 52.7408 36.3114C52.5002 36.0707 52.1737 35.9355 51.8334 35.9355C51.493 35.9355 51.1666 36.0707 50.9259 36.3114C50.6853 36.5521 50.55 36.8785 50.55 37.2188V65.4511C50.55 65.7914 50.6853 66.1178 50.9259 66.3585C51.1666 66.5992 51.493 66.7344 51.8334 66.7344C52.1737 66.7344 52.5002 66.5992 52.7408 66.3585C52.9815 66.1178 53.1167 65.7914 53.1167 65.4511Z" fill="#D9042B"/>
<path d="M59.5333 65.4511V37.2188C59.5333 36.8785 59.3981 36.5521 59.1574 36.3114C58.9167 36.0707 58.5903 35.9355 58.2499 35.9355C57.9095 35.9355 57.5831 36.0707 57.3424 36.3114C57.1018 36.5521 56.9666 36.8785 56.9666 37.2188V65.4511C56.9666 65.7914 57.1018 66.1178 57.3424 66.3585C57.5831 66.5992 57.9095 66.7344 58.2499 66.7344C58.5903 66.7344 58.9167 66.5992 59.1574 66.3585C59.3981 66.1178 59.5333 65.7914 59.5333 65.4511Z" fill="#3035B0"/>
<path d="M65.95 65.4511V37.2188C65.95 36.8785 65.8148 36.5521 65.5741 36.3114C65.3335 36.0707 65.007 35.9355 64.6667 35.9355C64.3263 35.9355 63.9999 36.0707 63.7592 36.3114C63.5185 36.5521 63.3833 36.8785 63.3833 37.2188V65.4511C63.3833 65.7914 63.5185 66.1178 63.7592 66.3585C63.9999 66.5992 64.3263 66.7344 64.6667 66.7344C65.007 66.7344 65.3335 66.5992 65.5741 66.3585C65.8148 66.1178 65.95 65.7914 65.95 65.4511Z" fill="#D9042B"/>
<path d="M21.0334 25.6685H19.7501C19.4097 25.6685 19.0833 25.8036 18.8427 26.0442C18.602 26.2847 18.4668 26.611 18.4668 26.9512C18.4668 27.2914 18.602 27.6176 18.8427 27.8582C19.0833 28.0987 19.4097 28.2339 19.7501 28.2339H21.0334C21.3738 28.2339 21.7002 28.0987 21.9408 27.8582C22.1815 27.6176 22.3167 27.2914 22.3167 26.9512C22.3167 26.611 22.1815 26.2847 21.9408 26.0442C21.7002 25.8036 21.3738 25.6685 21.0334 25.6685Z" fill="#3035B0"/>
</svg>
