<svg width="85" height="71" viewBox="0 0 85 71" fill="none" xmlns="http://www.w3.org/2000/svg">
<path d="M49.9084 18.1444C47.3815 18.142 44.8856 18.7078 42.6015 19.8011C41.6544 20.008 40.7953 20.5101 40.1451 21.2369C37.8127 22.8701 35.9138 25.0593 34.6162 27.6111H31.1928C32.9955 23.2342 36.2416 19.6243 40.3788 17.3956C44.5159 15.167 49.2885 14.4573 53.8847 15.3872C58.4808 16.3171 62.6165 18.8292 65.5881 22.4962C68.5596 26.1631 70.1836 30.7583 70.1836 35.5C70.1836 40.2416 68.5596 44.8369 65.5881 48.5038C62.6165 52.1707 58.4808 54.6829 53.8847 55.6128C49.2885 56.5427 44.5159 55.833 40.3788 53.6043C36.2416 51.3757 32.9955 47.7658 31.1928 43.3889H34.6162C35.9107 45.9559 37.8127 48.1592 40.1529 49.8025C40.8021 50.5249 41.6582 51.0241 42.6015 51.2304C44.927 52.327 47.466 52.882 50.0316 52.8545C52.5972 52.8269 55.124 52.2176 57.426 51.0713C59.728 49.9251 61.7466 48.2711 63.333 46.2311C64.9194 44.1911 66.0334 41.8172 66.5928 39.2841C67.1523 36.7509 67.1429 34.1231 66.5655 31.5941C65.9881 29.0651 64.8573 26.6993 63.2564 24.6709C61.6556 22.6425 59.6253 21.0033 57.3153 19.8738C55.0052 18.7443 52.4741 18.1533 49.9084 18.1444Z" fill="#3035B0"/>
<path d="M47.5142 9.29145e-09H52.3023C53.1264 0.0102309 53.914 0.345975 54.4968 0.935554C55.0796 1.52513 55.4114 2.32183 55.4216 3.15556V6.05078C59.4057 6.82367 63.1906 8.41592 66.5417 10.7289L68.5615 8.67778C68.852 8.37722 69.1989 8.13842 69.5819 7.97538C69.9649 7.81233 70.3762 7.72835 70.7917 7.72835C71.2073 7.72835 71.6186 7.81233 72.0016 7.97538C72.3846 8.13842 72.7315 8.37722 73.022 8.67778L76.422 12.1094C76.7191 12.4033 76.9552 12.7543 77.1163 13.1417C77.2775 13.5292 77.3605 13.9453 77.3605 14.3657C77.3605 14.786 77.2775 15.2021 77.1163 15.5896C76.9552 15.977 76.7191 16.328 76.422 16.6219L74.4023 18.6651C76.6727 22.046 78.2358 25.8608 78.9954 29.8752H81.8807C82.7049 29.8855 83.4924 30.2212 84.0752 30.8108C84.658 31.4004 84.9899 32.197 85 33.0308V37.8746C84.9899 38.7083 84.658 39.505 84.0752 40.0946C83.4924 40.6841 82.7049 41.0199 81.8807 41.0301H79.0188C78.2609 45.0771 76.6867 48.9228 74.3945 52.327L76.422 54.3702C76.7191 54.6641 76.9552 55.0151 77.1163 55.4025C77.2775 55.79 77.3605 56.2061 77.3605 56.6264C77.3605 57.0468 77.2775 57.4629 77.1163 57.8504C76.9552 58.2378 76.7191 58.5888 76.422 58.8827L73.0298 62.3222C72.7393 62.6228 72.3924 62.8616 72.0094 63.0246C71.6264 63.1877 71.2151 63.2716 70.7995 63.2716C70.384 63.2716 69.9727 63.1877 69.5897 63.0246C69.2067 62.8616 68.8598 62.6228 68.5693 62.3222L66.5495 60.279C63.2076 62.5759 59.4366 64.1571 55.4683 64.9256V67.8444C55.4582 68.6782 55.1264 69.4749 54.5436 70.0644C53.9608 70.654 53.1732 70.9898 52.3491 71H47.561C46.7369 70.9898 45.9493 70.654 45.3665 70.0644C44.7837 69.4749 44.4519 68.6782 44.4417 67.8444V64.9492C40.4412 64.1825 36.6399 62.59 33.2748 60.2711L31.255 62.3222C30.9645 62.6228 30.6176 62.8616 30.2346 63.0246C29.8516 63.1877 29.4403 63.2716 29.0248 63.2716C28.6092 63.2716 28.1979 63.1877 27.8149 63.0246C27.4319 62.8616 27.085 62.6228 26.7945 62.3222L23.3945 58.8906C23.0974 58.5967 22.8613 58.2457 22.7002 57.8583C22.539 57.4708 22.456 57.0547 22.456 56.6343C22.456 56.214 22.539 55.7979 22.7002 55.4104C22.8613 55.023 23.0974 54.672 23.3945 54.3781L25.422 52.327C23.5877 49.5948 22.2123 46.5748 21.3514 43.3889H24.6032C25.4929 46.34 26.8806 49.1131 28.705 51.5854C28.929 51.8894 29.0373 52.2648 29.01 52.6429C28.9828 53.021 28.822 53.3765 28.5569 53.6444L25.6014 56.6817L29.0404 60.1054L31.9725 57.0998C32.2373 56.8316 32.5888 56.6689 32.9625 56.6413C33.3363 56.6138 33.7073 56.7233 34.0078 56.9499C37.5565 59.6363 41.7154 61.3778 46.1028 62.0146C46.4775 62.0681 46.8202 62.2577 47.067 62.548C47.3137 62.8383 47.4478 63.2095 47.444 63.5923V67.8602H52.2711V63.5765C52.2674 63.1937 52.4014 62.8225 52.6482 62.5322C52.8949 62.242 53.2376 62.0524 53.6124 61.9988C57.9997 61.362 62.1586 59.6205 65.7073 56.9341C66.0078 56.7076 66.3788 56.598 66.7526 56.6256C67.1263 56.6531 67.4778 56.8158 67.7427 57.084L70.745 60.0739L74.1294 56.5949L71.2596 53.6444C70.9945 53.3765 70.8337 53.021 70.8065 52.6429C70.7793 52.2648 70.8875 51.8894 71.1115 51.5854C73.767 47.9955 75.4885 43.7882 76.1179 39.3498C76.1709 38.9707 76.3583 38.624 76.6452 38.3743C76.9322 38.1247 77.2991 37.9891 77.6775 37.9929H81.8963V33.1097H77.7165C77.3381 33.1134 76.9712 32.9779 76.6842 32.7282C76.3973 32.4786 76.2098 32.1319 76.1569 31.7528C75.5274 27.3144 73.806 23.1071 71.1505 19.5171C70.8928 19.2106 70.7606 18.8162 70.7809 18.4144C70.8012 18.0126 70.9725 17.6339 71.2596 17.3556L74.2151 14.3183L70.7761 10.8946L67.844 13.9002C67.5792 14.1684 67.2277 14.3311 66.854 14.3587C66.4802 14.3862 66.1092 14.2767 65.8087 14.0501C62.2604 11.3631 58.1013 9.62155 53.7138 8.98544C53.339 8.93186 52.9963 8.74226 52.7495 8.45197C52.5028 8.16168 52.3688 7.79052 52.3725 7.40767V3.13978H47.5454V7.36822C47.5491 7.75107 47.4151 8.12224 47.1683 8.41252C46.9216 8.70281 46.5789 8.89242 46.2041 8.946C41.8166 9.5821 37.6575 11.3237 34.1092 14.0107C33.8062 14.2713 33.4163 14.405 33.0191 14.3845C32.622 14.364 32.2476 14.1907 31.9725 13.9002L28.9702 10.9103L25.5858 14.3893L28.5569 17.3556C28.822 17.6235 28.9828 17.979 29.01 18.3571C29.0373 18.7352 28.929 19.1106 28.705 19.4146C26.8806 21.8869 25.4929 24.66 24.6032 27.6111H21.3514C22.2123 24.4252 23.5877 21.4052 25.422 18.673L23.3945 16.6298C23.0974 16.3359 22.8613 15.9849 22.7002 15.5975C22.539 15.21 22.456 14.7939 22.456 14.3736C22.456 13.9532 22.539 13.5371 22.7002 13.1496C22.8613 12.7622 23.0974 12.4112 23.3945 12.1173L26.7867 8.67778C27.0772 8.37722 27.4241 8.13842 27.8071 7.97538C28.1901 7.81233 28.6014 7.72835 29.017 7.72835C29.4325 7.72835 29.8438 7.81233 30.2268 7.97538C30.6098 8.13842 30.9567 8.37722 31.2472 8.67778L33.2748 10.7289C36.6174 8.4348 40.3883 6.85626 44.356 6.09022V3.15556C44.3662 2.31504 44.7035 1.51248 45.2947 0.921805C45.8858 0.331131 46.6833 -6.40517e-05 47.5142 9.29145e-09Z" fill="#3035B0"/>
<path d="M14.8164 38.6555C14.8164 38.2371 14.9807 37.8358 15.2732 37.5399C15.5657 37.244 15.9624 37.0778 16.3761 37.0778H53.8073C54.132 37.0788 54.4483 37.1823 54.7121 37.3739C54.9759 37.5655 55.1739 37.8356 55.2787 38.1466C55.3834 38.4575 55.3896 38.7938 55.2964 39.1085C55.2032 39.4232 55.0152 39.7006 54.7586 39.902L44.5586 47.8303C44.2308 48.0856 43.8162 48.1986 43.406 48.1446C42.9958 48.0906 42.6236 47.874 42.3713 47.5424C42.1189 47.2107 42.0072 46.7913 42.0605 46.3763C42.1139 45.9613 42.3281 45.5848 42.6559 45.3295L49.2297 40.2333H16.3761C15.9624 40.2333 15.5657 40.0671 15.2732 39.7712C14.9807 39.4753 14.8164 39.074 14.8164 38.6555Z" fill="#D9042B"/>
<path d="M5.45874 26.8222C6.63453 26.8219 7.77898 27.2057 8.72179 27.9164C9.6646 28.6271 10.3554 29.6268 10.6913 30.7667H49.2298L42.656 25.6389C42.3282 25.3836 42.114 25.0071 42.0607 24.5921C42.0073 24.1771 42.119 23.7577 42.3714 23.4261C42.6237 23.0944 42.9959 22.8778 43.4061 22.8238C43.8163 22.7698 44.2309 22.8829 44.5587 23.1381L54.7587 31.1296C55.0032 31.3342 55.1801 31.6094 55.2659 31.9185C55.3517 32.2275 55.3422 32.5557 55.2389 32.8591C55.1355 33.1626 54.9431 33.427 54.6873 33.6169C54.4315 33.8069 54.1245 33.9134 53.8074 33.9222H10.6913C10.4021 34.9036 9.84879 35.7843 9.09326 36.4659C8.33773 37.1475 7.40973 37.6032 6.41296 37.7819C5.4162 37.9607 4.38993 37.8555 3.44884 37.4782C2.50776 37.1008 1.68893 36.4662 1.08385 35.6452C0.478779 34.8242 0.111301 33.8491 0.02248 32.829C-0.0663376 31.8088 0.126999 30.7838 0.580891 29.8684C1.03478 28.9531 1.73135 28.1834 2.59274 27.6455C3.45414 27.1075 4.44643 26.8225 5.45874 26.8222ZM5.45874 34.7111C5.92144 34.7111 6.37375 34.5723 6.75847 34.3123C7.14319 34.0522 7.44304 33.6826 7.62011 33.2501C7.79718 32.8177 7.84351 32.3418 7.75324 31.8827C7.66297 31.4237 7.44016 31.002 7.11298 30.671C6.78581 30.34 6.36896 30.1146 5.91515 30.0233C5.46134 29.9319 4.99096 29.9788 4.56348 30.1579C4.136 30.3371 3.77063 30.6404 3.51356 31.0296C3.2565 31.4188 3.11929 31.8764 3.11929 32.3445C3.11929 32.9721 3.36577 33.5741 3.8045 34.0179C4.24323 34.4618 4.83828 34.7111 5.45874 34.7111Z" fill="#D9042B"/>
</svg>
