<svg width="76" height="76" viewBox="0 0 76 76" fill="none" xmlns="http://www.w3.org/2000/svg">
<path d="M47.8983 29.0725C48.3274 28.575 48.2661 27.7977 47.7757 27.3624C46.3967 26.1186 44.7725 25.1858 42.9951 24.564C35.3338 21.8277 26.8758 25.9321 24.179 33.7055C21.4822 41.4789 25.5274 50.0607 33.1887 52.797C34.7822 53.3567 36.437 53.6676 38.0919 53.6676C40.2677 53.6676 42.4435 53.1701 44.4661 52.1751C48.0209 50.4339 50.687 47.4178 52.0048 43.6554C52.4645 42.3495 52.7403 40.9814 52.8322 39.6133C52.8628 38.9603 52.3725 38.3695 51.729 38.3384C51.0854 38.3073 50.5032 38.8048 50.4725 39.4578C50.4112 40.6083 50.1661 41.7587 49.7983 42.847C48.6951 46.0186 46.458 48.5682 43.4854 49.9985C40.5128 51.4599 37.1419 51.6465 34.0161 50.5271C27.5806 48.2573 24.179 41.0436 26.4467 34.5139C28.7145 27.9843 35.7935 24.5329 42.229 26.8338C43.7306 27.3624 45.079 28.1708 46.2435 29.1969C46.7032 29.6322 47.4693 29.57 47.8983 29.0725Z" fill="#D9042B"/>
<path d="M47.8983 29.0725C48.3274 28.575 48.2661 27.7977 47.7757 27.3624C46.3967 26.1186 44.7725 25.1858 42.9951 24.564C35.3338 21.8277 26.8758 25.9321 24.179 33.7055C21.4822 41.4789 25.5274 50.0607 33.1887 52.797C34.7822 53.3567 36.437 53.6676 38.0919 53.6676C40.2677 53.6676 42.4435 53.1701 44.4661 52.1751C48.0209 50.4339 50.687 47.4178 52.0048 43.6554C52.4645 42.3495 52.7403 40.9814 52.8322 39.6133C52.8628 38.9603 52.3725 38.3695 51.729 38.3384C51.0854 38.3073 50.5032 38.8048 50.4725 39.4578C50.4112 40.6083 50.1661 41.7587 49.7983 42.847C48.6951 46.0186 46.458 48.5682 43.4854 49.9985C40.5128 51.4599 37.1419 51.6465 34.0161 50.5271C27.5806 48.2573 24.179 41.0436 26.4467 34.5139C28.7145 27.9843 35.7935 24.5329 42.229 26.8338C43.7306 27.3624 45.079 28.1708 46.2435 29.1969C46.7032 29.6322 47.4693 29.57 47.8983 29.0725Z" stroke="#3035B0"/>
<path d="M68.9209 46.827C66.408 46.827 64.2934 48.6305 63.7418 51.0247H54.4563C55.6515 49.4078 56.6015 47.5733 57.3064 45.6144C59.1451 40.3907 58.8999 34.7316 56.5709 29.6944C55.9886 28.4196 55.2838 27.238 54.4563 26.1187H63.7418C64.2934 28.5129 66.408 30.3163 68.9209 30.3163C71.8628 30.3163 74.2225 27.891 74.2225 24.9371C74.2225 21.9832 71.8322 19.5579 68.9209 19.5579C66.408 19.5579 64.2934 21.3614 63.7418 23.7556H52.3725C50.3193 21.7034 47.837 20.1176 45.0483 19.0604C45.0789 18.9671 45.0789 18.8739 45.0789 18.7495V9.98108C45.0789 8.79953 46.0289 7.83562 47.1935 7.83562H51.2386C51.4838 10.5719 53.7515 12.7484 56.5096 12.7484C59.4515 12.7484 61.8112 10.3231 61.8112 7.36922C61.8112 4.38423 59.4209 1.99002 56.5096 1.99002C54.2418 1.99002 52.3112 3.42033 51.5451 5.44141H47.1628C44.6805 5.44141 42.658 7.49359 42.658 10.0122V18.3453C39.5322 17.5368 36.2531 17.5368 33.0967 18.3453C33.2806 18.1276 33.3725 17.8789 33.3725 17.5679V9.98108C33.3725 7.4625 31.3499 5.41032 28.8676 5.41032H25.2209C24.6999 3.0472 22.5854 1.24377 20.0725 1.24377C17.1306 1.24377 14.7709 3.66908 14.7709 6.62297C14.7709 9.57687 17.1612 12.0022 20.0725 12.0022C22.5854 12.0022 24.6999 10.1987 25.2515 7.80453H28.8983C30.0628 7.80453 31.0128 8.76843 31.0128 9.94999V17.5368C31.0128 18.0654 31.3499 18.5007 31.8402 18.6873C30.9822 18.9671 30.1241 19.3092 29.266 19.7134C27.1209 20.7395 25.2209 22.0765 23.5967 23.7245H12.3193C11.7677 21.3303 9.65314 19.5268 7.14023 19.5268C4.22894 19.5268 1.83862 21.9521 1.83862 24.906C1.83862 27.8599 4.22894 30.2852 7.14023 30.2852C9.65314 30.2852 11.7677 28.4818 12.3193 26.0876H21.5435C20.3483 27.7045 19.3983 29.539 18.6935 31.4979C18.4789 32.1197 18.7854 32.8038 19.3983 33.0526C20.0112 33.2702 20.6854 32.9593 20.9306 32.3374C21.8193 29.881 23.1676 27.6734 24.8838 25.8388C24.9451 25.7766 25.0064 25.7456 25.037 25.6834C26.508 24.1598 28.2854 22.8849 30.2467 21.9521C34.6289 19.8689 39.5628 19.6201 44.1289 21.2681C46.5805 22.1698 48.7564 23.5379 50.5644 25.3102C50.687 25.6834 50.9628 25.9632 51.2999 26.0876C52.5564 27.4557 53.5983 29.0104 54.3951 30.7516C56.4483 35.198 56.6934 40.2041 55.0693 44.837C54.2418 47.2002 52.9547 49.3145 51.3305 51.118C50.9628 51.2423 50.687 51.5222 50.5644 51.8953C49.1547 53.2634 47.5305 54.4139 45.7225 55.2534C41.3402 57.3367 36.4064 57.5854 31.8402 55.9375C29.2047 54.9736 26.8451 53.4189 24.9451 51.4289C24.9451 51.4289 24.9451 51.4289 24.9144 51.3978C23.2596 49.6566 21.9418 47.6044 21.0838 45.3345C20.8386 44.7127 20.1644 44.4017 19.5515 44.6505C18.9386 44.8992 18.6322 45.5833 18.8773 46.2052C19.5515 47.9464 20.4402 49.5633 21.5435 51.0558H12.3193C11.7677 48.6616 9.65314 46.8581 7.14023 46.8581C4.1983 46.8581 1.83862 49.2834 1.83862 52.2373C1.83862 55.2223 4.22894 57.6165 7.14023 57.6165C9.65314 57.6165 11.7677 55.8131 12.3193 53.4189H23.6273C25.7112 55.5022 28.2547 57.119 31.0741 58.1451C31.3193 58.2384 31.5644 58.3317 31.8402 58.3939C31.3806 58.5493 31.0128 58.9846 31.0128 59.5443V67.1312C31.0128 68.3127 30.0628 69.2766 28.8983 69.2766H25.2515C24.6999 66.8824 22.5854 65.079 20.0725 65.079C17.1306 65.079 14.7709 67.5043 14.7709 70.4582C14.7709 73.4432 17.1612 75.8374 20.0725 75.8374C22.5854 75.8374 24.6999 74.034 25.2515 71.6397H28.8983C31.3806 71.6397 33.4031 69.5876 33.4031 67.069V59.4821C33.4031 59.1712 33.2806 58.9225 33.1273 58.7048C34.7515 59.109 36.4064 59.3267 38.0612 59.3267C39.6547 59.3267 41.2176 59.1401 42.7805 58.767V67.069C42.7805 69.5876 44.8031 71.6397 47.2854 71.6397H51.6676C52.4338 73.6608 54.3644 75.0911 56.6322 75.0911C59.5741 75.0911 61.9338 72.6658 61.9338 69.7119C61.9338 66.727 59.5434 64.3327 56.6322 64.3327C53.8741 64.3327 51.5757 66.4782 51.3612 69.2455H47.316C46.1515 69.2455 45.2015 68.2816 45.2015 67.1001V58.3628C45.2015 58.2695 45.1709 58.1451 45.1709 58.0518C45.7225 57.8342 46.3047 57.6165 46.8563 57.3367C48.9709 56.3106 50.8709 54.9736 52.4951 53.3567H63.7418C64.2934 55.7509 66.408 57.5543 68.9209 57.5543C71.8628 57.5543 74.2225 55.129 74.2225 52.1751C74.2225 49.2212 71.8322 46.827 68.9209 46.827ZM56.5402 4.38423C58.1644 4.38423 59.4822 5.72126 59.4822 7.36922C59.4822 9.01718 58.1644 10.3542 56.5402 10.3542C54.916 10.3542 53.5983 9.01718 53.5983 7.36922C53.5983 5.72126 54.916 4.38423 56.5402 4.38423ZM20.0725 9.60796C18.4483 9.60796 17.1306 8.27093 17.1306 6.62297C17.1306 4.97501 18.4483 3.63798 20.0725 3.63798C21.6967 3.63798 22.9838 4.97501 22.9838 6.62297C22.9838 8.27093 21.666 9.60796 20.0725 9.60796ZM7.14023 27.891C5.51604 27.891 4.1983 26.554 4.1983 24.906C4.1983 23.2581 5.51604 21.921 7.14023 21.921C8.76443 21.921 10.0822 23.2581 10.0822 24.906C10.0822 26.554 8.76443 27.891 7.14023 27.891ZM68.9209 21.9521C70.5451 21.9521 71.8628 23.2892 71.8628 24.9371C71.8628 26.5851 70.5451 27.9221 68.9209 27.9221C67.3273 27.9221 66.0096 26.6162 65.9789 24.9682V24.9371V24.906C65.9789 23.2581 67.2967 21.9521 68.9209 21.9521ZM7.14023 55.1912C5.51604 55.1912 4.1983 53.8542 4.1983 52.2062C4.1983 50.5583 5.51604 49.2212 7.14023 49.2212C8.76443 49.2212 10.0822 50.5583 10.0822 52.2062C10.0822 53.8542 8.76443 55.1912 7.14023 55.1912ZM20.0725 73.4743C18.4483 73.4743 17.1306 72.1372 17.1306 70.4893C17.1306 68.8413 18.4483 67.5043 20.0725 67.5043C21.6967 67.5043 23.0144 68.8413 23.0144 70.4893C23.0144 72.1372 21.666 73.4743 20.0725 73.4743ZM56.5402 66.7891C58.1644 66.7891 59.4822 68.1262 59.4822 69.7741C59.4822 71.4221 58.1644 72.7591 56.5402 72.7591C54.916 72.7591 53.5983 71.4221 53.5983 69.7741C53.5983 68.1262 54.916 66.7891 56.5402 66.7891ZM68.9209 55.1912C67.3273 55.1912 66.0096 53.8853 65.9789 52.2684V52.2373V52.2062C66.0096 50.5894 67.2967 49.2523 68.9209 49.2523C70.5451 49.2523 71.8628 50.5894 71.8628 52.2373C71.8628 53.8853 70.5144 55.1912 68.9209 55.1912Z" fill="#3035B0"/>
<path d="M30.3694 38.867C30.3694 43.2823 33.8936 46.8581 38.2452 46.8581C42.5968 46.8581 46.121 43.2823 46.121 38.867C46.121 34.4517 42.5968 30.876 38.2452 30.876C33.8936 30.876 30.3694 34.4828 30.3694 38.867ZM43.7307 38.867C43.7307 41.9453 41.2484 44.4328 38.2452 44.4328C35.242 44.4328 32.7597 41.9142 32.7597 38.867C32.7597 35.8199 35.242 33.3013 38.2452 33.3013C41.2484 33.3013 43.7307 35.7888 43.7307 38.867Z" fill="#D9042B"/>
<path d="M30.3694 38.867C30.3694 43.2823 33.8936 46.8581 38.2452 46.8581C42.5968 46.8581 46.121 43.2823 46.121 38.867C46.121 34.4517 42.5968 30.876 38.2452 30.876C33.8936 30.876 30.3694 34.4828 30.3694 38.867ZM43.7307 38.867C43.7307 41.9453 41.2484 44.4328 38.2452 44.4328C35.242 44.4328 32.7597 41.9142 32.7597 38.867C32.7597 35.8199 35.242 33.3013 38.2452 33.3013C41.2484 33.3013 43.7307 35.7888 43.7307 38.867Z" stroke="#D9042B"/>
</svg>
