<svg width="77" height="77" viewBox="0 0 77 77" fill="none" xmlns="http://www.w3.org/2000/svg">
<g clip-path="url(#clip0_1170_3126)">
<path d="M13.3365 21.969C13.0636 21.8053 12.7368 21.7564 12.4279 21.8331C12.119 21.9098 11.853 22.1057 11.6883 22.3781L11.3694 22.9195C11.2824 23.0564 11.2239 23.2096 11.1976 23.3697C11.1713 23.5298 11.1776 23.6936 11.2162 23.8512C11.2548 24.0088 11.3249 24.157 11.4222 24.2868C11.5196 24.4166 11.6422 24.5254 11.7827 24.6066C11.9232 24.6878 12.0786 24.7397 12.2397 24.7593C12.4008 24.7789 12.5641 24.7656 12.72 24.7204C12.8758 24.6752 13.0209 24.5989 13.1465 24.4962C13.2721 24.3935 13.3756 24.2664 13.4508 24.1226L13.7456 23.6173C13.9093 23.3443 13.9582 23.0176 13.8815 22.7087C13.8049 22.3997 13.6089 22.1338 13.3365 21.969Z" fill="#3035B0"/>
<path d="M11.5922 52.0051C11.4539 52.0817 11.3321 52.1848 11.2336 52.3084C11.1352 52.4321 11.0621 52.574 11.0185 52.726C10.975 52.8779 10.9618 53.037 10.9797 53.1941C10.9976 53.3511 11.0463 53.5031 11.123 53.6413L11.4358 54.1888C11.6023 54.4506 11.8635 54.6381 12.1649 54.7119C12.4663 54.7857 12.7846 54.7402 13.0533 54.5849C13.3219 54.4297 13.5202 54.1766 13.6066 53.8785C13.6931 53.5805 13.6611 53.2606 13.5172 52.9856L13.2345 52.4743C13.1579 52.3352 13.0546 52.2127 12.9304 52.1137C12.8063 52.0148 12.6637 51.9414 12.5111 51.8977C12.3584 51.8541 12.1986 51.8411 12.0409 51.8596C11.8832 51.878 11.7307 51.9275 11.5922 52.0051Z" fill="#3035B0"/>
<path d="M9.625 38.5601V38.5C9.625 38.3235 9.625 38.1491 9.625 37.9766C9.625 37.6575 9.49824 37.3515 9.27261 37.1259C9.04698 36.9003 8.74096 36.7735 8.42188 36.7735C8.10279 36.7735 7.79677 36.9003 7.57114 37.1259C7.34551 37.3515 7.21875 37.6575 7.21875 37.9766C7.21875 38.1651 7.21875 38.3536 7.21875 38.5421V38.6022C7.21875 38.9213 7.34551 39.2274 7.57114 39.453C7.79677 39.6786 8.10279 39.8054 8.42188 39.8054C8.74096 39.8054 9.04698 39.6786 9.27261 39.453C9.49824 39.2274 9.625 38.9213 9.625 38.6022V38.5601Z" fill="#3035B0"/>
<path d="M8.28952 46.6512C8.31829 46.8147 8.3806 46.9705 8.47252 47.1088C8.56444 47.247 8.68398 47.3648 8.82362 47.4546C8.96326 47.5444 9.11997 47.6043 9.28391 47.6306C9.44784 47.6569 9.61544 47.649 9.77616 47.6074C9.93689 47.5657 10.0873 47.4913 10.2178 47.3887C10.3483 47.2861 10.4562 47.1576 10.5347 47.0113C10.6132 46.865 10.6605 46.704 10.6737 46.5385C10.687 46.373 10.6658 46.2066 10.6115 46.0496C10.5594 45.8611 10.5113 45.6727 10.4672 45.4842C10.3874 45.1746 10.1879 44.9095 9.91267 44.747C9.63741 44.5846 9.30888 44.5381 8.99936 44.6179C8.68985 44.6977 8.4247 44.8971 8.26224 45.1724C8.09979 45.4477 8.05334 45.7762 8.13311 46.0857C8.18525 46.2622 8.23738 46.4507 8.28952 46.6512Z" fill="#3035B0"/>
<path d="M9.91373 29.0374C9.76166 28.9933 9.60238 28.9796 9.44501 28.9972C9.28765 29.0147 9.1353 29.0632 8.9967 29.1398C8.8581 29.2163 8.73597 29.3195 8.63733 29.4433C8.53869 29.5672 8.46546 29.7093 8.42186 29.8615C8.3617 30.0621 8.30556 30.2626 8.25342 30.4631C8.207 30.6182 8.19235 30.781 8.21033 30.9418C8.22831 31.1027 8.27856 31.2582 8.35806 31.3992C8.43757 31.5402 8.5447 31.6636 8.67305 31.7622C8.80139 31.8608 8.94831 31.9325 9.10501 31.973C9.26171 32.0135 9.42496 32.022 9.585 31.9979C9.74505 31.9738 9.89859 31.9177 10.0364 31.8329C10.1743 31.7481 10.2936 31.6363 10.3873 31.5043C10.4809 31.3723 10.547 31.2228 10.5815 31.0647C10.6296 30.8762 10.6817 30.6897 10.7379 30.5052C10.8197 30.2014 10.7793 29.8776 10.6253 29.6032C10.4712 29.3288 10.2158 29.1257 9.91373 29.0374Z" fill="#3035B0"/>
<path d="M45.8873 10.5755L46.4468 10.7258C46.7422 10.7834 47.0484 10.7282 47.3051 10.5711C47.5618 10.414 47.7503 10.1663 47.8334 9.87707C47.9165 9.5878 47.8881 9.27789 47.7539 9.0085C47.6197 8.7391 47.3894 8.52979 47.1085 8.42186L46.5069 8.25342C46.3519 8.207 46.189 8.19235 46.0282 8.21033C45.8674 8.22831 45.7118 8.27856 45.5708 8.35806C45.4299 8.43757 45.3064 8.5447 45.2078 8.67305C45.1092 8.80139 45.0375 8.94831 44.997 9.10501C44.9565 9.26171 44.9481 9.42496 44.9721 9.58501C44.9962 9.74505 45.0523 9.89859 45.1371 10.0364C45.2219 10.1743 45.3337 10.2936 45.4657 10.3873C45.5977 10.4809 45.7472 10.547 45.9053 10.5815L45.8873 10.5755Z" fill="#3035B0"/>
<path d="M38.4038 9.625H39.0054C39.3245 9.625 39.6305 9.49824 39.8561 9.27261C40.0817 9.04698 40.2085 8.74096 40.2085 8.42188C40.2085 8.10279 40.0817 7.79677 39.8561 7.57114C39.6305 7.34551 39.3245 7.21875 39.0054 7.21875H38.4038C38.0847 7.21875 37.7787 7.34551 37.5531 7.57114C37.3274 7.79677 37.2007 8.10279 37.2007 8.42188C37.2007 8.74096 37.3274 9.04698 37.5531 9.27261C37.7787 9.49824 38.0847 9.625 38.4038 9.625Z" fill="#3035B0"/>
<path d="M30.6255 10.6657C30.7311 10.6654 30.8363 10.6513 30.9383 10.6236L31.4977 10.4792C31.651 10.4397 31.795 10.3704 31.9214 10.2753C32.0479 10.1801 32.1544 10.061 32.2348 9.92469C32.3153 9.7884 32.3681 9.63759 32.3902 9.48088C32.4124 9.32417 32.4035 9.16464 32.364 9.01138C32.3245 8.85813 32.2552 8.71415 32.16 8.58767C32.0649 8.4612 31.9458 8.3547 31.8095 8.27426C31.6732 8.19382 31.5224 8.14102 31.3657 8.11886C31.209 8.09671 31.0494 8.10563 30.8962 8.14513L30.2946 8.30154C30.0135 8.37793 29.7697 8.5537 29.6083 8.79624C29.447 9.03877 29.3792 9.3316 29.4174 9.62037C29.4556 9.90915 29.5973 10.1743 29.8161 10.3665C30.035 10.5587 30.3161 10.665 30.6074 10.6657H30.6255Z" fill="#3035B0"/>
<path d="M23.3887 13.6916C23.6 13.6912 23.8074 13.6352 23.9902 13.5291L24.4955 13.2404C24.6338 13.1638 24.7556 13.0606 24.854 12.9369C24.9524 12.8132 25.0254 12.6714 25.069 12.5194C25.1126 12.3675 25.1258 12.2085 25.1079 12.0514C25.09 11.8944 25.0414 11.7424 24.9647 11.6041C24.8881 11.4659 24.785 11.3441 24.6613 11.2457C24.5376 11.1473 24.3957 11.0742 24.2438 11.0306C24.0919 10.9871 23.9328 10.9739 23.7758 10.9917C23.6187 11.0096 23.4667 11.0583 23.3285 11.1349L22.7811 11.4477C22.5523 11.5804 22.3737 11.7848 22.2727 12.0292C22.1718 12.2737 22.1542 12.5445 22.2227 12.8C22.2912 13.0554 22.4419 13.2812 22.6516 13.4423C22.8612 13.6035 23.1182 13.6911 23.3826 13.6916H23.3887Z" fill="#3035B0"/>
<path d="M63.6213 55.0851C63.7564 55.1673 63.9063 55.2222 64.0626 55.2465C64.2189 55.2707 64.3784 55.2639 64.532 55.2265C64.6857 55.1891 64.8304 55.1217 64.958 55.0283C65.0856 54.9349 65.1935 54.8172 65.2756 54.682L65.5704 54.1406C65.7142 53.8657 65.7463 53.5458 65.6598 53.2477C65.5733 52.9497 65.3751 52.6966 65.1064 52.5413C64.8378 52.386 64.5195 52.3405 64.2181 52.4144C63.9167 52.4882 63.6555 52.6756 63.489 52.9375L63.1942 53.4368C63.1139 53.573 63.0613 53.7238 63.0393 53.8804C63.0173 54.037 63.0264 54.1964 63.0661 54.3495C63.1057 54.5026 63.1752 54.6463 63.2705 54.7726C63.3657 54.8988 63.485 55.005 63.6213 55.0851Z" fill="#3035B0"/>
<path d="M64.7944 25.0912C65.0065 25.0931 65.2153 25.0389 65.3997 24.9341C65.5841 24.8292 65.7375 24.6775 65.8444 24.4943C65.9513 24.3111 66.0078 24.1029 66.0083 23.8908C66.0088 23.6786 65.9532 23.4702 65.8471 23.2865L65.5343 22.7391C65.3624 22.4897 65.1029 22.3144 64.8074 22.248C64.5119 22.1816 64.2023 22.2291 63.9403 22.381C63.6783 22.5329 63.4832 22.778 63.394 23.0674C63.3048 23.3567 63.3279 23.6691 63.4589 23.9422L63.7416 24.4415C63.8418 24.6349 63.9927 24.7976 64.1781 24.912C64.3635 25.0264 64.5765 25.0883 64.7944 25.0912Z" fill="#3035B0"/>
<path d="M37.9465 67.375C37.6274 67.375 37.3214 67.5018 37.0958 67.7274C36.8702 67.953 36.7434 68.259 36.7434 68.5781C36.7434 68.8972 36.8702 69.2032 37.0958 69.4289C37.3214 69.6545 37.6274 69.7812 37.9465 69.7812H38.5481C38.8672 69.7812 39.1732 69.6545 39.3988 69.4289C39.6245 69.2032 39.7512 68.8972 39.7512 68.5781C39.7512 68.259 39.6245 67.953 39.3988 67.7274C39.1732 67.5018 38.8672 67.375 38.5481 67.375H37.9465Z" fill="#3035B0"/>
<path d="M52.8532 13.4389L53.3525 13.7337C53.6261 13.898 53.9538 13.9469 54.2635 13.8696C54.5731 13.7924 54.8394 13.5952 55.0038 13.3216C55.1681 13.048 55.217 12.7203 55.1397 12.4106C55.0624 12.101 54.8653 11.8347 54.5917 11.6703L54.0443 11.3515C53.9072 11.2725 53.7559 11.2213 53.5991 11.2007C53.4422 11.1802 53.2828 11.1908 53.1301 11.2318C52.9773 11.2729 52.8341 11.3436 52.7086 11.44C52.5832 11.5364 52.478 11.6566 52.399 11.7937C52.32 11.9307 52.2688 12.082 52.2482 12.2389C52.2277 12.3957 52.2383 12.5551 52.2793 12.7079C52.3204 12.8606 52.3911 13.0038 52.4875 13.1293C52.5839 13.2547 52.7041 13.3599 52.8411 13.4389H52.8532Z" fill="#3035B0"/>
<path d="M52.9375 63.501L52.4322 63.7837C52.2873 63.8562 52.1586 63.9573 52.0538 64.0808C51.9489 64.2043 51.8701 64.3477 51.822 64.5024C51.7739 64.6571 51.7576 64.82 51.774 64.9812C51.7904 65.1423 51.8392 65.2985 51.9174 65.4404C51.9956 65.5823 52.1017 65.7069 52.2293 65.8068C52.3568 65.9066 52.5032 65.9797 52.6597 66.0216C52.8162 66.0635 52.9796 66.0734 53.14 66.0506C53.3004 66.0279 53.4545 65.973 53.5932 65.8892L54.1406 65.5703C54.4025 65.4039 54.5899 65.1426 54.6637 64.8412C54.7376 64.5398 54.6921 64.2216 54.5368 63.9529C54.3815 63.6842 54.1284 63.486 53.8304 63.3995C53.5323 63.3131 53.2124 63.3451 52.9375 63.4889V63.501Z" fill="#3035B0"/>
<path d="M68.6925 30.2826C68.6637 30.1191 68.6014 29.9633 68.5095 29.8251C68.4176 29.6868 68.298 29.5691 68.1584 29.4792C68.0187 29.3894 67.862 29.3295 67.6981 29.3032C67.5342 29.2769 67.3666 29.2848 67.2058 29.3265C67.0451 29.3681 66.8948 29.4426 66.7642 29.5451C66.6337 29.6477 66.5258 29.7762 66.4473 29.9225C66.3688 30.0689 66.3215 30.2298 66.3083 30.3953C66.295 30.5608 66.3162 30.7273 66.3705 30.8842C66.4226 31.0687 66.4707 31.2552 66.5148 31.4436C66.5946 31.7532 66.7941 32.0183 67.0693 32.1808C67.3446 32.3432 67.6731 32.3897 67.9826 32.3099C68.2922 32.2301 68.5573 32.0307 68.7198 31.7554C68.8822 31.4801 68.9287 31.1516 68.8489 30.8421C68.7968 30.6736 68.7446 30.4872 68.6925 30.2826Z" fill="#3035B0"/>
<path d="M67.0682 48.0227C67.2214 48.0696 67.3825 48.0854 67.5419 48.0692C67.7013 48.0529 67.8559 48.005 67.9965 47.9283C68.1372 47.8515 68.2611 47.7474 68.3609 47.6221C68.4608 47.4968 68.5347 47.3528 68.5781 47.1986C68.6343 46.9981 68.6904 46.7975 68.7466 46.597C68.8008 46.4401 68.822 46.2737 68.8088 46.1082C68.7955 45.9427 68.7482 45.7817 68.6697 45.6354C68.5913 45.489 68.4834 45.3606 68.3528 45.258C68.2223 45.1554 68.0719 45.0809 67.9112 45.0393C67.7505 44.9977 67.5829 44.9897 67.4189 45.016C67.255 45.0423 67.0983 45.1023 66.9586 45.1921C66.819 45.2819 66.6994 45.3996 66.6075 45.5379C66.5156 45.6762 66.4533 45.8319 66.4245 45.9955C66.3764 46.1819 66.3223 46.3684 66.2681 46.5549C66.1852 46.8556 66.2223 47.1766 66.3716 47.4505C66.5209 47.7243 66.7706 47.9295 67.0682 48.0227Z" fill="#3035B0"/>
<path d="M46.0014 66.3944L45.442 66.5388C45.2887 66.5783 45.1448 66.6476 45.0183 66.7428C44.8918 66.8379 44.7853 66.957 44.7049 67.0933C44.5424 67.3686 44.496 67.6971 44.5757 68.0066C44.6555 68.3161 44.855 68.5813 45.1302 68.7437C45.4055 68.9062 45.734 68.9527 46.0436 68.8729L46.6451 68.7165C46.8086 68.6877 46.9644 68.6254 47.1027 68.5335C47.2409 68.4416 47.3587 68.322 47.4485 68.1824C47.5383 68.0427 47.5982 67.886 47.6245 67.7221C47.6508 67.5581 47.6429 67.3905 47.6013 67.2298C47.5596 67.0691 47.4852 66.9187 47.3826 66.7882C47.28 66.6576 47.1515 66.5497 47.0052 66.4713C46.8589 66.3928 46.6979 66.3455 46.5324 66.3323C46.3669 66.319 46.2005 66.3402 46.0436 66.3944H46.0014Z" fill="#3035B0"/>
<path d="M23.5934 63.2363C23.4582 63.148 23.3066 63.0878 23.1477 63.0594C22.9887 63.0309 22.8257 63.0347 22.6683 63.0706C22.5108 63.1065 22.3623 63.1736 22.2313 63.2682C22.1004 63.3627 21.9899 63.4825 21.9063 63.6207C21.8227 63.7588 21.7677 63.9123 21.7447 64.0722C21.7217 64.232 21.7311 64.3948 21.7723 64.5509C21.8135 64.707 21.8858 64.8532 21.9847 64.9808C22.0836 65.1084 22.2072 65.2148 22.3481 65.2936L22.8895 65.6124C23.0265 65.6995 23.1796 65.758 23.3397 65.7843C23.4998 65.8106 23.6636 65.8043 23.8212 65.7657C23.9788 65.7271 24.127 65.657 24.2568 65.5597C24.3866 65.4623 24.4954 65.3397 24.5766 65.1992C24.6578 65.0587 24.7098 64.9033 24.7293 64.7422C24.7489 64.5811 24.7357 64.4177 24.6905 64.2619C24.6452 64.1061 24.569 63.961 24.4662 63.8354C24.3635 63.7098 24.2364 63.6063 24.0926 63.531L23.5934 63.2363Z" fill="#3035B0"/>
<path d="M67.375 38.3737V38.5C67.375 38.6925 67.375 38.893 67.375 39.1015C67.375 39.4206 67.5018 39.7267 67.7274 39.9523C67.953 40.1779 68.259 40.3047 68.5781 40.3047C68.8972 40.3047 69.2032 40.1779 69.4289 39.9523C69.6545 39.7267 69.7812 39.4206 69.7812 39.1015C69.7812 38.893 69.7812 38.6925 69.7812 38.5V38.3737C69.7812 38.0546 69.6545 37.7485 69.4289 37.5229C69.2032 37.2973 68.8972 37.1705 68.5781 37.1705C68.259 37.1705 67.953 37.2973 67.7274 37.5229C67.5018 37.7485 67.375 38.0546 67.375 38.3737Z" fill="#3035B0"/>
<path d="M30.4992 66.2501C30.1905 66.1615 29.8592 66.1992 29.5783 66.3549C29.2974 66.5106 29.0898 66.7715 29.0013 67.0802C28.9127 67.3889 28.9505 67.7202 29.1061 68.0011C29.2618 68.282 29.5227 68.4896 29.8314 68.5781L30.433 68.7465C30.737 68.8129 31.0549 68.7589 31.32 68.5958C31.585 68.4328 31.7765 68.1734 31.8544 67.8721C31.9322 67.5708 31.8903 67.2511 31.7375 66.98C31.5846 66.709 31.3327 66.5077 31.0346 66.4185L30.4992 66.2501Z" fill="#3035B0"/>
<path d="M5.41334 15.3207C5.56666 15.4628 5.75437 15.5625 5.95796 15.61C6.16155 15.6574 6.37399 15.651 6.57435 15.5914L12.211 13.9191L18.8703 20.5723L20.4524 18.9601L20.5486 18.8699L14.1119 12.4091L15.6098 6.13483C15.6589 5.92722 15.6519 5.71029 15.5895 5.50627C15.5272 5.30226 15.4117 5.11849 15.2549 4.97382L10.2258 0.317722C10.0719 0.174588 9.88317 0.0742785 9.67841 0.0267833C9.47365 -0.0207118 9.26003 -0.0137351 9.05881 0.0470184L2.44162 2.00811C2.23807 2.06827 2.05406 2.18121 1.90826 2.33546C1.76246 2.48971 1.66007 2.67978 1.61146 2.88639L0.029352 9.50358C-0.0197352 9.71119 -0.0127364 9.92812 0.0496312 10.1321C0.111999 10.3362 0.227492 10.5199 0.384274 10.6646L5.41334 15.3207ZM3.78912 4.1196L9.08287 2.54952L13.1013 6.26116L11.8501 11.5188L6.5563 13.0889L2.53787 9.37725L3.78912 4.1196Z" fill="#D9042B"/>
<path d="M61.7443 72.0251L66.7794 76.6812C66.9327 76.8233 67.1204 76.923 67.324 76.9704C67.5276 77.0179 67.7401 77.0115 67.9404 76.9519L74.5576 74.9908C74.7604 74.9311 74.9439 74.8191 75.0897 74.666C75.2354 74.5128 75.3382 74.324 75.3878 74.1185L76.9699 67.5013C77.019 67.2937 77.012 67.0768 76.9496 66.8728C76.8872 66.6688 76.7717 66.485 76.6149 66.3403L71.5859 61.6782C71.4326 61.5361 71.2449 61.4364 71.0413 61.3889C70.8377 61.3415 70.6252 61.3479 70.4249 61.4075L64.7882 63.0799L58.4297 56.7274L58.3395 56.8236L56.7273 58.4298L62.8873 64.5898L61.3894 70.8641C61.3403 71.0717 61.3473 71.2886 61.4097 71.4926C61.472 71.6966 61.5875 71.8804 61.7443 72.0251ZM65.1492 65.4801L70.4429 63.91L74.4614 67.6216L73.2041 72.8793L67.9103 74.4494L63.8919 70.7377L65.1492 65.4801Z" fill="#D9042B"/>
<path d="M56.547 18.9673L58.1532 20.5735L64.8064 13.9202L70.4431 15.5925C70.6434 15.6522 70.8559 15.6586 71.0595 15.6111C71.2631 15.5636 71.4508 15.4639 71.6041 15.3218L76.6392 10.6657C76.7959 10.5211 76.9114 10.3373 76.9738 10.1333C77.0362 9.92925 77.0432 9.71232 76.9941 9.50471L75.412 2.88753C75.3624 2.68202 75.2596 2.49319 75.1139 2.34006C74.9681 2.18693 74.7846 2.0749 74.5818 2.01526L67.9646 0.0541655C67.7605 -0.011917 67.5425 -0.0222225 67.333 0.0243165C67.1236 0.0708556 66.9304 0.172546 66.7735 0.318853L61.7385 4.97495C61.5817 5.11962 61.4662 5.30339 61.4038 5.5074C61.3415 5.71142 61.3345 5.92835 61.3835 6.13596L62.8814 12.4103L56.4207 18.8771L56.547 18.9673ZM67.9105 2.55065L73.2042 4.12073L74.4615 9.37838L70.4431 13.09L65.1493 11.5199L63.8921 6.26229L67.9105 2.55065Z" fill="#D9042B"/>
<path d="M20.1584 27.6238L21.8127 29.2721C21.0085 30.6733 20.3858 32.1712 19.9599 33.7296H17.6259C16.6631 33.7703 15.7555 34.1906 15.1017 34.8985C14.4479 35.6064 14.101 36.5444 14.1368 37.5074V40.0761C14.101 41.0391 14.4479 41.9771 15.1017 42.6851C15.7555 43.393 16.6631 43.8133 17.6259 43.8539H19.9599C20.3854 45.4145 21.008 46.9144 21.8127 48.3175L20.1524 49.9839C19.5037 50.6948 19.1614 51.6328 19.1997 52.5945C19.238 53.5562 19.6538 54.464 20.357 55.1212L22.1616 56.9259C22.8912 57.6615 23.8808 58.0807 24.9168 58.0929C25.3622 58.0998 25.8044 58.0177 26.2176 57.8514C26.6308 57.6851 27.0067 57.4379 27.3231 57.1244L28.9774 55.4701C30.3813 56.2717 31.8811 56.8922 33.4409 57.3169V59.651C33.4754 60.6169 33.8921 61.5297 34.5995 62.1885C35.3068 62.8473 36.2468 63.1982 37.2127 63.1641H39.7874C40.7514 63.1999 41.6903 62.8522 42.3984 62.1971C43.1065 61.5419 43.5261 60.6329 43.5652 59.669V57.3349C45.1252 56.9107 46.6251 56.2901 48.0288 55.4881L49.6771 57.1485C49.9933 57.4623 50.3691 57.7096 50.7823 57.876C51.1956 58.0423 51.638 58.1242 52.0834 58.117C53.1195 58.1054 54.1093 57.6861 54.8385 56.9499L56.6432 55.1453C57.0142 54.7777 57.3084 54.3401 57.5088 53.8578C57.7091 53.3755 57.8116 52.8582 57.8102 52.336C57.8178 51.8905 57.736 51.448 57.5697 51.0347C57.4033 50.6214 57.1558 50.2457 56.8417 49.9297L55.1874 48.2754C55.9917 46.8721 56.6143 45.3722 57.0402 43.8118H59.3743C60.3371 43.7711 61.2446 43.3509 61.8985 42.643C62.5523 41.935 62.8992 40.997 62.8634 40.034V37.5195C62.8976 36.5569 62.5502 35.6198 61.8967 34.9122C61.2432 34.2046 60.3366 33.7839 59.3743 33.7417H57.0402C56.6141 32.1814 55.9915 30.6815 55.1874 29.2781L56.8417 27.6238C57.4937 26.9132 57.8382 25.9735 57.7999 25.0099C57.7616 24.0463 57.3436 23.137 56.6372 22.4804L54.8325 20.6757C54.1043 19.9374 53.1143 19.5159 52.0774 19.5027C51.6319 19.4954 51.1896 19.5774 50.7763 19.7437C50.3631 19.91 49.9873 20.1574 49.6711 20.4712L48.0168 22.1255C46.6151 21.3237 45.1173 20.7031 43.5592 20.2787V17.9266C43.5185 16.9649 43.0991 16.0583 42.3925 15.4046C41.6859 14.751 40.7494 14.4033 39.7874 14.4375H37.2127C36.2497 14.4017 35.3117 14.7486 34.6038 15.4024C33.8959 16.0562 33.4756 16.9638 33.4349 17.9266V20.2667C31.8747 20.693 30.3748 21.3155 28.9713 22.1195L27.317 20.4531C27.0002 20.1407 26.6241 19.8946 26.2109 19.7294C25.7977 19.5641 25.3557 19.4829 24.9108 19.4906C23.8738 19.5039 22.8839 19.9253 22.1556 20.6637L20.3509 22.4684C19.6455 23.1286 19.2294 24.0409 19.1934 25.0064C19.1573 25.972 19.5042 26.9127 20.1584 27.6238ZM22.0654 24.1828L23.8701 22.3781C24.1469 22.092 24.5248 21.9257 24.9228 21.9149C25.1747 21.9076 25.4193 22.0007 25.6026 22.1736L27.9246 24.4956C28.1185 24.6892 28.3726 24.8108 28.645 24.8404C28.9174 24.8699 29.1916 24.8056 29.4225 24.6581C31.0957 23.5813 32.9474 22.8113 34.8907 22.3842C35.1632 22.3242 35.4064 22.1715 35.5787 21.952C35.751 21.7325 35.8417 21.46 35.8352 21.181V17.9266C35.8788 17.6023 36.047 17.3079 36.3043 17.1057C36.5615 16.9035 36.8874 16.8095 37.2127 16.8438H39.7874C40.1118 16.8112 40.4362 16.9059 40.6921 17.1079C40.948 17.31 41.1154 17.6035 41.159 17.9266V21.2051C41.1525 21.484 41.2431 21.7566 41.4154 21.9761C41.5877 22.1955 41.8309 22.3483 42.1034 22.4082C44.0416 22.8304 45.8892 23.5943 47.5596 24.6641C47.7905 24.8116 48.0648 24.8759 48.3371 24.8464C48.6095 24.8168 48.8636 24.6952 49.0575 24.5017L51.3795 22.1796C51.4698 22.0929 51.5764 22.0249 51.693 21.9795C51.8097 21.9341 51.9342 21.9121 52.0593 21.9149C52.4583 21.9267 52.8366 22.0953 53.112 22.3842L54.9167 24.1889C55.1701 24.3952 55.3331 24.6921 55.3713 25.0167C55.4094 25.3412 55.3198 25.6678 55.1213 25.9274L52.8173 28.2434C52.6237 28.4373 52.5021 28.6914 52.4726 28.9638C52.443 29.2361 52.5073 29.5104 52.6549 29.7413C53.7264 31.4115 54.4923 33.259 54.9167 35.1974C54.9766 35.47 55.1294 35.7132 55.3489 35.8855C55.5684 36.0578 55.8409 36.1484 56.1199 36.1419H59.3743C59.6974 36.1855 59.9909 36.3529 60.1929 36.6088C60.395 36.8647 60.4897 37.1891 60.4571 37.5135V40.0821C60.4897 40.4065 60.395 40.7309 60.1929 40.9868C59.9909 41.2427 59.6974 41.4101 59.3743 41.4537H56.0958C55.8168 41.4472 55.5443 41.5378 55.3248 41.7101C55.1054 41.8824 54.9526 42.1256 54.8927 42.3982C54.4685 44.3367 53.7026 46.1843 52.6308 47.8543C52.4833 48.0852 52.419 48.3595 52.4485 48.6318C52.478 48.9042 52.5996 49.1583 52.7932 49.3522L55.1152 51.6742C55.2953 51.8479 55.3992 52.0859 55.404 52.336C55.3932 52.7369 55.2246 53.1174 54.9348 53.3947L53.1301 55.1994C52.8533 55.4856 52.4753 55.6518 52.0774 55.6626C51.9512 55.6662 51.8256 55.6447 51.7078 55.5992C51.5901 55.5538 51.4826 55.4854 51.3916 55.3979L49.0575 53.118C48.8659 52.9216 48.6128 52.7966 48.3404 52.7638C48.0679 52.731 47.7924 52.7923 47.5596 52.9375C45.8924 54.0145 44.0469 54.7864 42.1095 55.2174C41.8369 55.2774 41.5937 55.4301 41.4214 55.6496C41.2491 55.8691 41.1585 56.1416 41.165 56.4206V59.6991C41.1158 60.0189 40.9451 60.3075 40.6885 60.5047C40.4319 60.7019 40.1092 60.7926 39.7874 60.7578H37.2127C36.888 60.7872 36.5645 60.6905 36.3091 60.4878C36.0538 60.2851 35.8862 59.9919 35.8412 59.669V56.3965C35.8477 56.1176 35.757 55.845 35.5847 55.6255C35.4125 55.4061 35.1692 55.2533 34.8967 55.1934C32.9569 54.7703 31.1076 54.0065 29.4345 52.9375C29.2037 52.79 28.9294 52.7257 28.657 52.7552C28.3847 52.7848 28.1305 52.9064 27.9366 53.0999L25.6146 55.416C25.5236 55.5034 25.4161 55.5718 25.2983 55.6173C25.1806 55.6627 25.055 55.6843 24.9288 55.6806C24.5308 55.6699 24.1529 55.5036 23.8761 55.2174L22.0714 53.4128C21.8194 53.2055 21.6573 52.9087 21.6192 52.5847C21.5811 52.2606 21.6698 51.9343 21.8669 51.6742L24.1949 49.3522C24.39 49.1579 24.5125 48.9027 24.542 48.629C24.5716 48.3553 24.5064 48.0797 24.3574 47.8483C23.2845 46.1788 22.5185 44.331 22.0955 42.3921C22.0356 42.1196 21.8828 41.8764 21.6633 41.7041C21.4438 41.5318 21.1713 41.4412 20.8924 41.4477H17.6259C17.3041 41.4013 17.0123 41.2331 16.8109 40.9779C16.6094 40.7227 16.5135 40.3999 16.5431 40.0761V37.5195C16.515 37.196 16.6114 36.874 16.8126 36.6191C17.0138 36.3642 17.3047 36.1957 17.6259 36.1479H20.9044C21.1833 36.1544 21.4559 36.0638 21.6753 35.8915C21.8948 35.7192 22.0476 35.476 22.1075 35.2035C22.5308 33.2646 23.2968 31.4169 24.3694 29.7473C24.5184 29.5159 24.5836 29.2403 24.5541 28.9666C24.5245 28.6929 24.402 28.4377 24.207 28.2434L21.8609 25.9274C21.662 25.6669 21.5722 25.3393 21.6103 25.0137C21.6485 24.6882 21.8117 24.3903 22.0654 24.1828Z" fill="#3035B0"/>
<path d="M38.5001 50.2305C39.1043 50.2305 39.7077 50.1842 40.3048 50.0921C40.6239 50.0427 40.9103 49.8685 41.1009 49.6079C41.2916 49.3473 41.3709 49.0216 41.3214 48.7025C41.272 48.3834 41.0978 48.097 40.8372 47.9064C40.5766 47.7157 40.2509 47.6364 39.9318 47.6859C37.8575 48.0038 35.7365 47.6122 33.9125 46.5745C32.0884 45.5368 30.6681 43.9137 29.8814 41.9682C29.0947 40.0226 28.9878 37.8685 29.578 35.8546C30.1682 33.8407 31.421 32.0851 33.1333 30.8719C34.8457 29.6587 36.9174 29.0591 39.0131 29.1701C41.1087 29.2811 43.1055 30.0963 44.6801 31.4836C46.2548 32.8709 47.315 34.7491 47.6891 36.814C48.0632 38.879 47.7293 41.0098 46.7415 42.8613C46.598 43.1423 46.5706 43.4684 46.6652 43.7694C46.7599 44.0704 46.9689 44.3222 47.2474 44.4705C47.5259 44.6188 47.8515 44.6518 48.1541 44.5624C48.4566 44.4729 48.712 44.2682 48.865 43.9923C50.0655 41.7266 50.4906 39.13 50.0753 36.5999C49.66 34.0697 48.4271 31.7453 46.5653 29.9823C44.7035 28.2193 42.3153 27.1149 39.7662 26.8381C37.2172 26.5613 34.6476 27.1273 32.4508 28.4495C30.2539 29.7717 28.5508 31.7772 27.602 34.1593C26.6532 36.5413 26.511 39.1686 27.1971 41.6392C27.8833 44.1097 29.36 46.2874 31.4013 47.8389C33.4426 49.3905 35.9361 50.2306 38.5001 50.2305Z" fill="#3035B0"/>
<path d="M44.5156 48.125C45.1801 48.125 45.7188 47.5863 45.7188 46.9219C45.7188 46.2574 45.1801 45.7188 44.5156 45.7188C43.8512 45.7188 43.3125 46.2574 43.3125 46.9219C43.3125 47.5863 43.8512 48.125 44.5156 48.125Z" fill="#3035B0"/>
<path d="M69.1797 70.3828C69.8442 70.3828 70.3828 69.8442 70.3828 69.1797C70.3828 68.5152 69.8442 67.9766 69.1797 67.9766C68.5152 67.9766 67.9766 68.5152 67.9766 69.1797C67.9766 69.8442 68.5152 70.3828 69.1797 70.3828Z" fill="#3035B0"/>
<path d="M7.82031 70.3828C8.48478 70.3828 9.02344 69.8442 9.02344 69.1797C9.02344 68.5152 8.48478 67.9766 7.82031 67.9766C7.15584 67.9766 6.61719 68.5152 6.61719 69.1797C6.61719 69.8442 7.15584 70.3828 7.82031 70.3828Z" fill="#3035B0"/>
<path d="M69.1797 9.02344C69.8442 9.02344 70.3828 8.48478 70.3828 7.82031C70.3828 7.15584 69.8442 6.61719 69.1797 6.61719C68.5152 6.61719 67.9766 7.15584 67.9766 7.82031C67.9766 8.48478 68.5152 9.02344 69.1797 9.02344Z" fill="#3035B0"/>
<path d="M7.82031 9.02344C8.48478 9.02344 9.02344 8.48478 9.02344 7.82031C9.02344 7.15584 8.48478 6.61719 7.82031 6.61719C7.15584 6.61719 6.61719 7.15584 6.61719 7.82031C6.61719 8.48478 7.15584 9.02344 7.82031 9.02344Z" fill="#3035B0"/>
<path d="M1.61219 74.1125C1.66174 74.318 1.76456 74.5068 1.91029 74.66C2.05603 74.8131 2.23954 74.9251 2.44235 74.9848L9.05954 76.9459C9.2599 77.0055 9.47234 77.0119 9.67593 76.9644C9.87952 76.917 10.0672 76.8173 10.2206 76.6752L15.2556 72.0191C15.4124 71.8744 15.5279 71.6906 15.5903 71.4866C15.6526 71.2826 15.6596 71.0657 15.6106 70.858L14.1127 64.5838L20.2666 58.4298L18.6484 56.8236L18.5582 56.7274L12.2177 63.0799L6.5811 61.4075C6.38074 61.3479 6.16829 61.3415 5.96471 61.3889C5.76112 61.4364 5.57341 61.5361 5.42008 61.6782L0.385006 66.3343C0.228224 66.479 0.112731 66.6627 0.0503636 66.8668C-0.012004 67.0708 -0.0190028 67.2877 0.0300844 67.4953L1.61219 74.1125ZM6.55102 63.8859L11.8448 65.456L13.102 70.7137L9.0836 74.4253L3.78985 72.8552L2.53258 67.5976L6.55102 63.8859Z" fill="#D9042B"/>
</g>
<defs>
<clipPath id="clip0_1170_3126">
<rect width="77" height="77" fill="white"/>
</clipPath>
</defs>
</svg>
