<svg width="78" height="75" viewBox="0 0 78 75" fill="none" xmlns="http://www.w3.org/2000/svg">
<path d="M3.65625 49.5968H20.7188C21.3927 49.5968 21.9375 49.056 21.9375 48.3871V29.0322C21.9375 28.3633 21.3927 27.8226 20.7188 27.8226H3.65625C2.98228 27.8226 2.4375 28.3633 2.4375 29.0322V48.3871C2.4375 49.056 2.98228 49.5968 3.65625 49.5968ZM4.875 30.2419H19.5V47.1774H4.875V30.2419Z" fill="#3035B0"/>
<path d="M3.65625 24.1936H20.7188C21.3927 24.1936 21.9375 23.6528 21.9375 22.9839V3.62905C21.9375 2.9601 21.3927 2.41937 20.7188 2.41937H3.65625C2.98228 2.41937 2.4375 2.9601 2.4375 3.62905V22.9839C2.4375 23.6528 2.98228 24.1936 3.65625 24.1936ZM4.875 4.83873H19.5V21.7742H4.875V4.83873Z" fill="#3035B0"/>
<path d="M3.65625 75H20.7188C21.3927 75 21.9375 74.4593 21.9375 73.7903V54.4355C21.9375 53.7666 21.3927 53.2258 20.7188 53.2258H3.65625C2.98228 53.2258 2.4375 53.7666 2.4375 54.4355V73.7903C2.4375 74.4593 2.98228 75 3.65625 75ZM4.875 55.6452H19.5V72.5807H4.875V55.6452Z" fill="#3035B0"/>
<path d="M17.0625 7.25806H7.3125V9.67741H17.0625V7.25806Z" fill="#3035B0"/>
<path d="M17.0625 12.0968H7.3125V14.5162H17.0625V12.0968Z" fill="#3035B0"/>
<path d="M17.0625 16.9355H7.3125V19.3548H17.0625V16.9355Z" fill="#3035B0"/>
<path d="M17.0625 32.6613H7.3125V35.0807H17.0625V32.6613Z" fill="#3035B0"/>
<path d="M17.0625 37.5H7.3125V39.9194H17.0625V37.5Z" fill="#3035B0"/>
<path d="M17.0625 42.3387H7.3125V44.758H17.0625V42.3387Z" fill="#3035B0"/>
<path d="M17.0625 58.0645H7.3125V60.4839H17.0625V58.0645Z" fill="#3035B0"/>
<path d="M17.0625 62.9032H7.3125V65.3226H17.0625V62.9032Z" fill="#3035B0"/>
<path d="M17.0625 67.7419H7.3125V70.1613H17.0625V67.7419Z" fill="#3035B0"/>
<path d="M59.7188 22.9839H54.8438C54.1698 22.9839 53.625 23.5246 53.625 24.1936V30.242C53.625 30.9109 54.1698 31.4516 54.8438 31.4516H59.7188C60.3927 31.4516 60.9375 30.9109 60.9375 30.242V24.1936C60.9375 23.5246 60.3927 22.9839 59.7188 22.9839ZM58.5 29.0323H56.0625V25.4032H58.5V29.0323Z" fill="#D9042B"/>
<path d="M65.8125 22.9839H63.375V31.4516H65.8125V22.9839Z" fill="#3035B0"/>
<path d="M74.3438 22.9839H69.4688C68.7948 22.9839 68.25 23.5246 68.25 24.1936V30.242C68.25 30.9109 68.7948 31.4516 69.4688 31.4516H74.3438C75.0177 31.4516 75.5625 30.9109 75.5625 30.242V24.1936C75.5625 23.5246 75.0177 22.9839 74.3438 22.9839ZM73.125 29.0323H70.6875V25.4032H73.125V29.0323Z" fill="#D9042B"/>
<path d="M58.5 33.871H56.0625V42.3387H58.5V33.871Z" fill="#3035B0"/>
<path d="M60.9375 35.0806V41.129C60.9375 41.798 61.4823 42.3387 62.1562 42.3387H67.0312C67.7052 42.3387 68.25 41.798 68.25 41.129V35.0806C68.25 34.4117 67.7052 33.871 67.0312 33.871H62.1562C61.4823 33.871 60.9375 34.4117 60.9375 35.0806ZM63.375 36.2903H65.8125V39.9194H63.375V36.2903Z" fill="#D9042B"/>
<path d="M73.125 33.871H70.6875V42.3387H73.125V33.871Z" fill="#3035B0"/>
<path d="M53.625 52.0161C53.625 52.6851 54.1698 53.2258 54.8438 53.2258H59.7188C60.3927 53.2258 60.9375 52.6851 60.9375 52.0161V45.9677C60.9375 45.2988 60.3927 44.7581 59.7188 44.7581H54.8438C54.1698 44.7581 53.625 45.2988 53.625 45.9677V52.0161ZM56.0625 47.1774H58.5V50.8064H56.0625V47.1774Z" fill="#D9042B"/>
<path d="M65.8125 44.7581H63.375V53.2258H65.8125V44.7581Z" fill="#3035B0"/>
<path d="M74.3438 44.7581H69.4688C68.7948 44.7581 68.25 45.2988 68.25 45.9677V52.0161C68.25 52.6851 68.7948 53.2258 69.4688 53.2258H74.3438C75.0177 53.2258 75.5625 52.6851 75.5625 52.0161V45.9677C75.5625 45.2988 75.0177 44.7581 74.3438 44.7581ZM73.125 50.8064H70.6875V47.1774H73.125V50.8064Z" fill="#D9042B"/>
<path d="M40.2773 26.2416L37.507 34.7698L30.4115 12.9351C30.2469 12.4355 29.7789 12.0968 29.25 12.0968H24.375V14.5162H28.3615L35.8325 37.5H24.375V39.9194H35.8325L28.3615 62.9033H24.375V65.3226H29.25C29.7789 65.3226 30.2469 64.9839 30.4102 64.4843L37.5058 42.6496L40.276 51.1778C40.4406 51.6774 40.9086 52.0162 41.4375 52.0162H47.0267L45.4508 53.5803L47.1742 55.2908L50.8304 51.6617C51.3069 51.1887 51.3069 50.4242 50.8304 49.9512L47.1742 46.3222L45.4508 48.0327L47.0267 49.5968H42.326L38.7879 38.7097L42.326 27.8226H47.0267L45.4508 29.3867L47.1742 31.0972L50.8304 27.4682C51.3069 26.9952 51.3069 26.2307 50.8304 25.7577L47.1742 22.1287L45.4508 23.8391L47.0267 25.4033H41.4375C40.9086 25.4033 40.4406 25.742 40.2773 26.2416Z" fill="#3035B0"/>
</svg>
