<svg width="88" height="77" viewBox="0 0 88 77" fill="none" xmlns="http://www.w3.org/2000/svg">
<path d="M7.29159 14.5825C7.67836 14.5825 8.04929 14.4289 8.32278 14.1554C8.59627 13.8819 8.74992 13.511 8.74992 13.1242V10.2075C8.74992 9.82075 8.90356 9.44981 9.17705 9.17632C9.45055 8.90283 9.82148 8.74919 10.2083 8.74919H13.1249C13.5117 8.74919 13.8826 8.59554 14.1561 8.32205C14.4296 8.04856 14.5833 7.67763 14.5833 7.29085C14.5833 6.90408 14.4296 6.53315 14.1561 6.25966C13.8826 5.98617 13.5117 5.83252 13.1249 5.83252H10.2083C9.04793 5.83252 7.93513 6.29346 7.11466 7.11393C6.29419 7.9344 5.83325 9.0472 5.83325 10.2075V13.1242C5.83325 13.511 5.9869 13.8819 6.26039 14.1554C6.53388 14.4289 6.90481 14.5825 7.29159 14.5825Z" fill="#3035B0"/>
<path d="M18.9583 8.75H23.3333C23.7201 8.75 24.091 8.59631 24.3645 8.32274C24.638 8.04918 24.7916 7.67814 24.7916 7.29126C24.7916 6.90438 24.638 6.53334 24.3645 6.25977C24.091 5.98621 23.7201 5.83252 23.3333 5.83252H18.9583C18.5716 5.83252 18.2006 5.98621 17.9271 6.25977C17.6536 6.53334 17.5 6.90438 17.5 7.29126C17.5 7.67814 17.6536 8.04918 17.9271 8.32274C18.2006 8.59631 18.5716 8.75 18.9583 8.75Z" fill="#3035B0"/>
<path d="M78.7503 42.292C78.7503 42.6788 78.5967 43.0497 78.3232 43.3232C78.0497 43.5967 77.6788 43.7503 77.292 43.7503H74.3753C73.9886 43.7503 73.6176 43.904 73.3441 44.1775C73.0706 44.451 72.917 44.8219 72.917 45.2087C72.917 45.5954 73.0706 45.9664 73.3441 46.2399C73.6176 46.5133 73.9886 46.667 74.3753 46.667H77.292C78.4523 46.667 79.5651 46.2061 80.3856 45.3856C81.2061 44.5651 81.667 43.4523 81.667 42.292V39.3753C81.667 38.9886 81.5133 38.6176 81.2399 38.3441C80.9664 38.0706 80.5954 37.917 80.2087 37.917C79.8219 37.917 79.451 38.0706 79.1775 38.3441C78.904 38.6176 78.7503 38.9886 78.7503 39.3753V42.292Z" fill="#3035B0"/>
<path d="M68.5423 43.7495H64.1668C63.7799 43.7495 63.409 43.9032 63.1354 44.1768C62.8619 44.4503 62.7083 44.8214 62.7083 45.2083C62.7083 45.5951 62.8619 45.9662 63.1354 46.2397C63.409 46.5133 63.7799 46.667 64.1668 46.667H68.5423C68.9292 46.667 69.3001 46.5133 69.5737 46.2397C69.8472 45.9662 70.0009 45.5951 70.0009 45.2083C70.0009 44.8214 69.8472 44.4503 69.5737 44.1768C69.3001 43.9032 68.9292 43.7495 68.5423 43.7495Z" fill="#3035B0"/>
<path d="M83.125 0H4.375C3.21468 0 2.10188 0.460936 1.28141 1.28141C0.460936 2.10188 0 3.21468 0 4.375V59.7917C0 60.952 0.460936 62.0648 1.28141 62.8853C2.10188 63.7057 3.21468 64.1667 4.375 64.1667H39.375V67.0833C39.375 67.8569 39.6823 68.5987 40.2293 69.1457C40.7763 69.6927 41.5181 70 42.2917 70V77H45.2083V70C45.9819 70 46.7237 69.6927 47.2707 69.1457C47.8177 68.5987 48.125 67.8569 48.125 67.0833V64.1667H83.125C84.2853 64.1667 85.3981 63.7057 86.2186 62.8853C87.0391 62.0648 87.5 60.952 87.5 59.7917V4.375C87.5 3.21468 87.0391 2.10188 86.2186 1.28141C85.3981 0.460936 84.2853 0 83.125 0ZM4.375 2.91667H83.125C83.5118 2.91667 83.8827 3.07031 84.1562 3.3438C84.4297 3.61729 84.5833 3.98823 84.5833 4.375V49.5833H2.91667V4.375C2.91667 3.98823 3.07031 3.61729 3.3438 3.3438C3.61729 3.07031 3.98823 2.91667 4.375 2.91667ZM45.2083 67.0833H42.2917V64.1667H45.2083V67.0833ZM84.5833 59.7917C84.5833 60.1784 84.4297 60.5494 84.1562 60.8229C83.8827 61.0964 83.5118 61.25 83.125 61.25H4.375C3.98823 61.25 3.61729 61.0964 3.3438 60.8229C3.07031 60.5494 2.91667 60.1784 2.91667 59.7917V52.5H84.5833V59.7917Z" fill="#3035B0"/>
<path d="M74.3753 58.335H77.292C77.6788 58.335 78.0497 58.1812 78.3232 57.9076C78.5967 57.634 78.7504 57.2629 78.7504 56.876C78.7504 56.489 78.5967 56.1179 78.3232 55.8443C78.0497 55.5707 77.6788 55.417 77.292 55.417H74.3753C73.9886 55.417 73.6176 55.5707 73.3441 55.8443C73.0706 56.1179 72.917 56.489 72.917 56.876C72.917 57.2629 73.0706 57.634 73.3441 57.9076C73.6176 58.1812 73.9886 58.335 74.3753 58.335Z" fill="#3035B0"/>
<path d="M65.6251 58.335H68.5417C68.9285 58.335 69.2994 58.1812 69.5729 57.9076C69.8464 57.634 70 57.2629 70 56.876C70 56.489 69.8464 56.1179 69.5729 55.8443C69.2994 55.5707 68.9285 55.417 68.5417 55.417H65.6251C65.2383 55.417 64.8674 55.5707 64.5939 55.8443C64.3204 56.1179 64.1667 56.489 64.1667 56.876C64.1667 57.2629 64.3204 57.634 64.5939 57.9076C64.8674 58.1812 65.2383 58.335 65.6251 58.335Z" fill="#3035B0"/>
<path d="M8.98463 37.2549C9.11712 37.4587 9.29845 37.6262 9.51213 37.7421C9.72582 37.858 9.96509 37.9186 10.2082 37.9185H46.6665C46.9078 37.9184 47.1453 37.8585 47.3578 37.7441C47.5703 37.6296 47.751 37.4642 47.8839 37.2627C48.0167 37.0612 48.0974 36.8299 48.1189 36.5895C48.1403 36.3491 48.1017 36.1072 48.0067 35.8854L43.6317 25.6762C43.5192 25.414 43.3323 25.1905 43.094 25.0335C42.8558 24.8764 42.5768 24.7927 42.2915 24.7927C42.0062 24.7927 41.7271 24.8764 41.4889 25.0335C41.2507 25.1905 41.0637 25.414 40.9513 25.6762L39.7277 28.5304L36.3823 18.4977C36.2864 18.2059 36.1008 17.9518 35.8521 17.7717C35.6033 17.5916 35.304 17.4946 34.9969 17.4946C34.6898 17.4946 34.3905 17.5916 34.1417 17.7717C33.8929 17.9518 33.7074 18.2059 33.6115 18.4977L29.1665 31.8498L24.7157 18.4977C24.6198 18.2059 24.4342 17.9518 24.1854 17.7717C23.9366 17.5916 23.6374 17.4946 23.3302 17.4946C23.0231 17.4946 22.7238 17.5916 22.4751 17.7717C22.2263 17.9518 22.0407 18.2059 21.9448 18.4977L19.174 26.8109L17.3686 22.7462C17.2541 22.4882 17.0672 22.269 16.8306 22.1152C16.594 21.9613 16.3179 21.8794 16.0357 21.8794C15.7535 21.8794 15.4773 21.9613 15.2407 22.1152C15.0041 22.269 14.8172 22.4882 14.7028 22.7462L8.86942 35.8722C8.77231 36.0941 8.73199 36.3367 8.75211 36.5781C8.77222 36.8195 8.85214 37.0521 8.98463 37.2549ZM34.9998 23.5702L38.1746 33.0924C38.268 33.3728 38.4443 33.6181 38.6803 33.796C38.9162 33.9739 39.2006 34.0759 39.4958 34.0886C39.7928 34.1092 40.0887 34.0349 40.3406 33.8762C40.5926 33.7176 40.7875 33.483 40.8973 33.2062L42.2915 29.9538L44.4542 35.0015H31.1906L34.9998 23.5702ZM16.0415 26.9246L18.0423 31.4269C18.1619 31.6954 18.3598 31.9215 18.6101 32.0756C18.8604 32.2297 19.1514 32.3045 19.4449 32.2903C19.7385 32.2761 20.0209 32.1736 20.2552 31.9961C20.4895 31.8186 20.6646 31.5744 20.7577 31.2956L23.3332 23.5702L27.1423 35.0015H12.4525L16.0415 26.9246Z" fill="#D9042B"/>
<path d="M56.8748 26.25H62.7082C63.0949 26.25 63.4659 26.0964 63.7394 25.8229C64.0129 25.5494 64.1665 25.1784 64.1665 24.7917V18.9583C64.1665 18.5716 64.0129 18.2006 63.7394 17.9271C63.4659 17.6536 63.0949 17.5 62.7082 17.5H56.8748C56.4881 17.5 56.1171 17.6536 55.8436 17.9271C55.5701 18.2006 55.4165 18.5716 55.4165 18.9583V24.7917C55.4165 25.1784 55.5701 25.5494 55.8436 25.8229C56.1171 26.0964 56.4881 26.25 56.8748 26.25ZM58.3332 20.4167H61.2498V23.3333H58.3332V20.4167Z" fill="#D9042B"/>
<path d="M56.8748 37.917H62.7082C63.0949 37.917 63.4659 37.7633 63.7394 37.4897C64.0129 37.2162 64.1665 36.8451 64.1665 36.4583V30.6233C64.1665 30.2364 64.0129 29.8654 63.7394 29.5918C63.4659 29.3182 63.0949 29.1646 62.7082 29.1646H56.8748C56.4881 29.1646 56.1171 29.3182 55.8436 29.5918C55.5701 29.8654 55.4165 30.2364 55.4165 30.6233V36.4583C55.4165 36.8451 55.5701 37.2162 55.8436 37.4897C56.1171 37.7633 56.4881 37.917 56.8748 37.917ZM58.3332 32.082H61.2498V34.9995H58.3332V32.082Z" fill="#3035B0"/>
<path d="M68.5414 26.25H77.2914C77.6782 26.25 78.0491 26.0963 78.3226 25.8227C78.5961 25.5492 78.7498 25.1781 78.7498 24.7913C78.7498 24.4044 78.5961 24.0333 78.3226 23.7598C78.0491 23.4862 77.6782 23.3325 77.2914 23.3325H68.5414C68.1546 23.3325 67.7836 23.4862 67.5101 23.7598C67.2367 24.0333 67.083 24.4044 67.083 24.7913C67.083 25.1781 67.2367 25.5492 67.5101 25.8227C67.7836 26.0963 68.1546 26.25 68.5414 26.25Z" fill="#D9042B"/>
<path d="M68.5414 32.0815H77.2914C77.6782 32.0815 78.0491 31.9279 78.3226 31.6544C78.5961 31.3808 78.7498 31.0099 78.7498 30.623C78.7498 30.2362 78.5961 29.8653 78.3226 29.5917C78.0491 29.3182 77.6782 29.1646 77.2914 29.1646H68.5414C68.1546 29.1646 67.7836 29.3182 67.5101 29.5917C67.2367 29.8653 67.083 30.2362 67.083 30.623C67.083 31.0099 67.2367 31.3808 67.5101 31.6544C67.7836 31.9279 68.1546 32.0815 68.5414 32.0815Z" fill="#3035B0"/>
</svg>
